<svg width="1280" height="720" xmlns="http://www.w3.org/2000/svg" xmlns:xlink="http://www.w3.org/1999/xlink" overflow="hidden"><defs><filter id="fx0" x="-10%" y="-10%" width="120%" height="120%" filterUnits="userSpaceOnUse" primitiveUnits="userSpaceOnUse"><feComponentTransfer color-interpolation-filters="sRGB"><feFuncR type="discrete" tableValues="0 0"/><feFuncG type="discrete" tableValues="0 0"/><feFuncB type="discrete" tableValues="0 0"/><feFuncA type="linear" slope="0.4" intercept="0"/></feComponentTransfer><feGaussianBlur stdDeviation="0 0"/></filter><clipPath id="clip1"><rect x="0" y="0" width="1280" height="720"/></clipPath><clipPath id="clip2"><rect x="0" y="1" width="367" height="366"/></clipPath><clipPath id="clip3"><rect x="0" y="0" width="368" height="368"/></clipPath></defs><g clip-path="url(#clip1)"><rect x="0" y="0" width="1280" height="720" fill="#212529"/><g clip-path="url(#clip2)" filter="url(#fx0)" transform="translate(467 176)"><g clip-path="url(#clip3)"><path d="M0.666656 184C0.666656 82.9319 82.5985 1 183.667 1 284.735 1 366.667 82.9319 366.667 184 366.667 285.068 284.735 367 183.667 367 82.5985 367 0.666656 285.068 0.666656 184Z" fill="#1CADE4" fill-rule="evenodd"/></g></g><path d="M457 360C457 258.932 538.932 177 640 177 741.068 177 823 258.932 823 360 823 461.068 741.068 543 640 543 538.932 543 457 461.068 457 360Z" fill="#1CADE4" fill-rule="evenodd"/><rect x="0" y="0" width="640" height="720" fill="#1CADE4"/><path d="M518 0 0 0 0 720 518 720 518 543C436.198 543 369.884 461.068 369.884 360 369.884 258.932 436.198 177 518 177Z" fill="#1CADE4" fill-rule="evenodd" transform="matrix(-1 0 0 1 1277 0)"/><text fill="#D9D9D9" font-family="Tw Cen MT,Tw Cen MT_MSFontService,sans-serif" font-weight="700" font-size="181" transform="translate(61.9837 311)">THEOREME DE <tspan font-size="181" x="0" y="218">PYTHAGORE</tspan></text><path d="M258.533 157.153C256.246 154.275 254.352 151.197 252.839 147.972L252.813 147.892 257.063 152.008C274.896 165.279 304.282 162.576 327.456 144.169 350.631 125.762 359.916 97.7511 351.027 77.3774L349.627 75.048 355.075 80.4741C373.364 103.501 366.578 139.333 339.919 160.507 313.26 181.681 276.822 180.18 258.533 157.153Z" fill="#D9D9D9" fill-rule="evenodd"/><path d="M572.809 94.4452C574.063 90.9901 575.693 87.7641 577.648 84.7864L577.702 84.7219 576.422 90.4985C574.457 112.64 592.151 136.257 619.969 146.358 647.787 156.459 676.512 149.697 689.212 131.454L690.463 129.042 688.694 136.525C678.658 164.165 644.58 177.152 612.579 165.532 580.578 153.912 562.772 122.085 572.809 94.4452Z" fill="#D9D9D9" fill-rule="evenodd"/></g></svg>