<svg width="1280" height="720" xmlns="http://www.w3.org/2000/svg" xmlns:xlink="http://www.w3.org/1999/xlink" overflow="hidden"><defs><filter id="fx0" x="-10%" y="-10%" width="120%" height="120%" filterUnits="userSpaceOnUse" primitiveUnits="userSpaceOnUse"><feComponentTransfer color-interpolation-filters="sRGB"><feFuncR type="discrete" tableValues="0 0"/><feFuncG type="discrete" tableValues="0 0"/><feFuncB type="discrete" tableValues="0 0"/><feFuncA type="linear" slope="0.4" intercept="0"/></feComponentTransfer><feGaussianBlur stdDeviation="0 0"/></filter><clipPath id="clip1"><rect x="0" y="0" width="1280" height="720"/></clipPath><clipPath id="clip2"><rect x="0" y="1" width="367" height="366"/></clipPath><clipPath id="clip3"><rect x="0" y="0" width="368" height="368"/></clipPath></defs><g clip-path="url(#clip1)"><rect x="0" y="0" width="1280" height="720" fill="#212529"/><g clip-path="url(#clip2)" filter="url(#fx0)" transform="translate(467 176)"><g clip-path="url(#clip3)"><path d="M0.666656 184C0.666656 82.9319 82.5985 1 183.667 1 284.735 1 366.667 82.9319 366.667 184 366.667 285.068 284.735 367 183.667 367 82.5985 367 0.666656 285.068 0.666656 184Z" fill="#1CADE4" fill-rule="evenodd"/></g></g><path d="M457 360C457 258.932 538.932 177 640 177 741.068 177 823 258.932 823 360 823 461.068 741.068 543 640 543 538.932 543 457 461.068 457 360Z" fill="#1CADE4" fill-rule="evenodd"/><rect x="0" y="0" width="640" height="720" fill="#1CADE4"/><text fill="#D9D9D9" font-family="Tw Cen MT,Tw Cen MT_MSFontService,sans-serif" font-weight="700" font-size="181" transform="translate(149.417 311)">TEOREME DE<tspan font-size="181" x="201.913" y="218">THALES</tspan></text><path d="M750.333 327.684C751.587 324.229 753.217 321.003 755.172 318.025L755.226 317.96 753.946 323.737C751.981 345.879 769.675 369.496 797.493 379.597 825.311 389.698 854.036 382.936 866.736 364.692L867.987 362.28 866.218 369.763C856.182 397.403 822.104 410.39 790.103 398.77 758.102 387.15 740.296 355.324 750.333 327.684Z" fill="#D9D9D9" fill-rule="evenodd"/><path d="M219.117 152.011C217.076 148.954 215.442 145.73 214.2 142.391L214.18 142.31 218.076 146.762C234.754 161.458 264.263 161.187 288.876 144.754 313.49 128.321 325.053 101.171 317.874 80.1335L316.671 77.6966 321.653 83.5534C337.981 108.01 328.264 143.16 299.949 162.064 271.635 180.968 235.445 176.467 219.117 152.011Z" fill="#D9D9D9" fill-rule="evenodd"/><path d="M553.533 94.4453C554.788 90.9902 556.418 87.7642 558.373 84.7865L558.426 84.722 557.146 90.4986C555.182 112.64 572.875 136.257 600.693 146.358 628.512 156.459 657.236 149.697 669.936 131.454L671.187 129.042 669.419 136.525C659.382 164.165 625.304 177.152 593.303 165.532 561.302 153.912 543.497 122.085 553.533 94.4453Z" fill="#D9D9D9" fill-rule="evenodd"/></g></svg>