<svg version="1.1" xmlns="http://www.w3.org/2000/svg" xmlns:xlink="http://www.w3.org/1999/xlink" width="1358" height="662"><defs><clipPath id="IPUriWkhfvDC"><path fill="none" stroke="none" d=" M 0 0 L 1358 0 L 1358 662 L 0 662 L 0 0 Z"/></clipPath></defs><g transform="scale(1,1)" clip-path="url(#IPUriWkhfvDC)"><g><rect fill="rgb(255,255,255)" stroke="none" x="0" y="0" width="1358" height="662" fill-opacity="0"/><path fill="none" stroke="rgb(0,0,0)" paint-order="fill stroke markers" d=" M 411.0000000000003 279 L 423.0000000000003 291" stroke-opacity="1" stroke-linecap="square" stroke-miterlimit="10" stroke-width="3"/><path fill="none" stroke="rgb(0,0,0)" paint-order="fill stroke markers" d=" M 411.0000000000003 291 L 423.0000000000003 279" stroke-opacity="1" stroke-linecap="square" stroke-miterlimit="10" stroke-width="3"/><path fill="none" stroke="rgb(0,0,0)" paint-order="fill stroke markers" d=" M 629.0000000000001 281 L 641.0000000000001 293" stroke-opacity="1" stroke-linecap="square" stroke-miterlimit="10" stroke-width="3"/><path fill="none" stroke="rgb(0,0,0)" paint-order="fill stroke markers" d=" M 629.0000000000001 293 L 641.0000000000001 281" stroke-opacity="1" stroke-linecap="square" stroke-miterlimit="10" stroke-width="3"/><path fill="none" stroke="rgb(0,0,0)" paint-order="fill stroke markers" d=" M 760 280 L 772 292" stroke-opacity="1" stroke-linecap="square" stroke-miterlimit="10" stroke-width="3"/><path fill="none" stroke="rgb(0,0,0)" paint-order="fill stroke markers" d=" M 760 292 L 772 280" stroke-opacity="1" stroke-linecap="square" stroke-miterlimit="10" stroke-width="3"/><g transform="scale(35,35)"><g transform="translate(8.927714285714286,9.034793714285714)"><path fill="rgb(0,0,0)" stroke="none" paint-order="stroke fill markers" d=" M 0.494 -0.555 L 0.08 -0.555 L 0.08 -0.607 L 0.494 -0.607 L 0.494 -0.555 Z"/></g><g transform="translate(8.885714285714286,9.034793714285714)"><path fill="rgb(0,0,0)" stroke="none" paint-order="stroke fill markers" d=" M 0.536 -0.401 Q 0.516 -0.41600000000000004 0.488 -0.41600000000000004 Q 0.461 -0.41600000000000004 0.4375 -0.392 Q 0.41400000000000003 -0.368 0.403 -0.325 Q 0.4 -0.316 0.385 -0.257 Q 0.37 -0.198 0.368 -0.189 Q 0.34600000000000003 -0.099 0.34600000000000003 -0.078 Q 0.34600000000000003 -0.028 0.402 -0.028 Q 0.44 -0.028 0.482 -0.0575 Q 0.524 -0.08700000000000001 0.544 -0.149 Q 0.548 -0.162 0.5670000000000001 -0.162 Q 0.591 -0.162 0.591 -0.148 Q 0.591 -0.134 0.578 -0.1095 Q 0.5650000000000001 -0.085 0.542 -0.058 Q 0.519 -0.031 0.48 -0.0115 Q 0.441 0.008 0.397 0.008 Q 0.295 0.008 0.259 -0.053 Q 0.215 0.008 0.152 0.008 Q 0.105 0.008 0.07150000000000001 -0.0165 Q 0.038 -0.041 0.038 -0.08 Q 0.038 -0.115 0.06 -0.1365 Q 0.082 -0.158 0.11 -0.158 Q 0.133 -0.158 0.1465 -0.14400000000000002 Q 0.16 -0.13 0.16 -0.112 Q 0.16 -0.091 0.1455 -0.07050000000000001 Q 0.131 -0.05 0.106 -0.043000000000000003 Q 0.126 -0.028 0.154 -0.028 Q 0.181 -0.028 0.20450000000000002 -0.051500000000000004 Q 0.228 -0.075 0.23900000000000002 -0.11900000000000001 L 0.273 -0.256 Q 0.296 -0.34800000000000003 0.296 -0.366 Q 0.296 -0.41600000000000004 0.24 -0.41600000000000004 Q 0.202 -0.41600000000000004 0.16 -0.3865 Q 0.11800000000000001 -0.357 0.098 -0.295 Q 0.094 -0.28200000000000003 0.075 -0.28200000000000003 Q 0.051000000000000004 -0.28200000000000003 0.051000000000000004 -0.296 Q 0.051000000000000004 -0.31 0.064 -0.3345 Q 0.077 -0.359 0.1 -0.386 Q 0.123 -0.41300000000000003 0.162 -0.4325 Q 0.201 -0.452 0.245 -0.452 Q 0.34700000000000003 -0.452 0.383 -0.391 Q 0.427 -0.452 0.49 -0.452 Q 0.537 -0.452 0.5705 -0.4275 Q 0.604 -0.403 0.604 -0.364 Q 0.604 -0.329 0.582 -0.3075 Q 0.56 -0.28600000000000003 0.532 -0.28600000000000003 Q 0.509 -0.28600000000000003 0.4955 -0.3 Q 0.482 -0.314 0.482 -0.332 Q 0.482 -0.353 0.4965 -0.3735 Q 0.511 -0.394 0.536 -0.401 Z"/></g><g transform="translate(9.822492063492065,9.034793714285714)"><path fill="rgb(0,0,0)" stroke="none" paint-order="stroke fill markers" d=" M 0.788 -0.332 L 0.105 -0.332 Q 0.064 -0.332 0.064 -0.362 Q 0.064 -0.393 0.11 -0.393 L 0.783 -0.393 Q 0.8290000000000001 -0.393 0.8290000000000001 -0.362 Q 0.8290000000000001 -0.332 0.788 -0.332 M 0.783 -0.108 L 0.11 -0.108 Q 0.064 -0.108 0.064 -0.139 Q 0.064 -0.169 0.105 -0.169 L 0.788 -0.169 Q 0.8290000000000001 -0.169 0.8290000000000001 -0.139 Q 0.8290000000000001 -0.108 0.783 -0.108 Z"/></g><g transform="translate(11.028427464466414,8.358285714285714)"><path fill="rgb(0,0,0)" stroke="none" paint-order="stroke fill markers" d=" M 0.352 -0.352 Q 0.403 -0.341 0.4395 -0.3205 Q 0.47600000000000003 -0.3 0.4935 -0.2745 Q 0.511 -0.249 0.5185 -0.2265 Q 0.526 -0.20400000000000001 0.526 -0.18 Q 0.526 -0.10300000000000001 0.4625 -0.046 Q 0.399 0.011 0.274 0.011 Q 0.176 0.011 0.112 -0.0305 Q 0.048 -0.07200000000000001 0.048 -0.139 Q 0.048 -0.176 0.07 -0.1965 Q 0.092 -0.217 0.125 -0.217 Q 0.158 -0.217 0.1795 -0.196 Q 0.201 -0.17500000000000002 0.201 -0.14100000000000001 Q 0.201 -0.082 0.14300000000000002 -0.066 Q 0.197 -0.032 0.269 -0.032 Q 0.299 -0.032 0.32 -0.044 Q 0.341 -0.056 0.35100000000000003 -0.07050000000000001 Q 0.361 -0.085 0.3665 -0.109 Q 0.372 -0.133 0.3725 -0.1465 Q 0.373 -0.16 0.373 -0.181 Q 0.373 -0.203 0.3725 -0.2165 Q 0.372 -0.23 0.366 -0.2545 Q 0.36 -0.279 0.34950000000000003 -0.293 Q 0.339 -0.307 0.317 -0.3185 Q 0.295 -0.33 0.264 -0.33 L 0.22 -0.33 Q 0.209 -0.33 0.20450000000000002 -0.3305 Q 0.2 -0.331 0.196 -0.335 Q 0.192 -0.339 0.192 -0.34800000000000003 Q 0.192 -0.364 0.20400000000000001 -0.365 Q 0.215 -0.367 0.252 -0.369 Q 0.277 -0.37 0.296 -0.3805 Q 0.315 -0.391 0.3255 -0.40800000000000003 Q 0.336 -0.425 0.343 -0.441 Q 0.35000000000000003 -0.457 0.353 -0.47600000000000003 Q 0.356 -0.495 0.3565 -0.5035000000000001 Q 0.357 -0.512 0.357 -0.519 Q 0.357 -0.616 0.271 -0.616 Q 0.20600000000000002 -0.616 0.161 -0.58 Q 0.219 -0.5660000000000001 0.219 -0.51 Q 0.219 -0.481 0.2 -0.461 Q 0.181 -0.441 0.149 -0.441 Q 0.12 -0.441 0.1 -0.4605 Q 0.08 -0.48 0.08 -0.511 Q 0.08 -0.5720000000000001 0.1345 -0.6135 Q 0.189 -0.655 0.277 -0.655 Q 0.379 -0.655 0.4365 -0.6155 Q 0.494 -0.5760000000000001 0.494 -0.516 Q 0.494 -0.456 0.452 -0.41300000000000003 Q 0.41000000000000003 -0.37 0.352 -0.352 Z"/></g><g transform="translate(12.269427464466414,8.358285714285714)"><path fill="rgb(0,0,0)" stroke="none" paint-order="stroke fill markers" d=" M 0.548 -0.596 L 0.393 -0.41600000000000004 Q 0.342 -0.357 0.328 -0.249 Q 0.318 -0.182 0.318 -0.106 L 0.318 -0.06 Q 0.318 -0.03 0.3045 -0.0125 Q 0.291 0.005 0.279 0.008 Q 0.267 0.011 0.255 0.011 Q 0.249 0.011 0.242 0.0095 Q 0.23500000000000001 0.008 0.222 0.0025 Q 0.209 -0.003 0.201 -0.019 Q 0.193 -0.035 0.193 -0.059000000000000004 Q 0.193 -0.258 0.361 -0.454 L 0.41600000000000004 -0.519 L 0.247 -0.519 Q 0.149 -0.519 0.138 -0.513 Q 0.122 -0.505 0.111 -0.422 L 0.064 -0.422 L 0.099 -0.676 L 0.146 -0.676 Q 0.147 -0.669 0.1485 -0.666 Q 0.15 -0.663 0.155 -0.659 Q 0.16 -0.655 0.17 -0.653 Q 0.179 -0.65 0.2545 -0.647 Q 0.33 -0.644 0.354 -0.644 L 0.558 -0.644 Q 0.558 -0.617 0.5565 -0.6105 Q 0.555 -0.604 0.548 -0.596 Z"/></g><g transform="translate(12.844427464466413,8.358285714285714)"><path fill="rgb(0,0,0)" stroke="none" paint-order="stroke fill markers" d=" M 0.5285 -0.369 Q 0.5285 -0.369 0.52875 -0.359 Q 0.529 -0.34900000000000003 0.529 -0.319 Q 0.529 -0.289 0.5285 -0.2685 Q 0.528 -0.248 0.523 -0.2105 Q 0.518 -0.17300000000000001 0.5095000000000001 -0.1465 Q 0.501 -0.12 0.483 -0.088 Q 0.465 -0.056 0.44 -0.036000000000000004 Q 0.41500000000000004 -0.016 0.3755 -0.0025 Q 0.336 0.011 0.28700000000000003 0.011 Q 0.23700000000000002 0.011 0.1975 -0.003 Q 0.158 -0.017 0.1335 -0.0365 Q 0.109 -0.056 0.091 -0.0885 Q 0.073 -0.121 0.0645 -0.147 Q 0.056 -0.17300000000000001 0.051000000000000004 -0.211 Q 0.046 -0.249 0.0455 -0.269 Q 0.045 -0.289 0.045 -0.319 Q 0.045 -0.34900000000000003 0.0455 -0.369 Q 0.046 -0.389 0.051000000000000004 -0.4275 Q 0.056 -0.466 0.0645 -0.493 Q 0.073 -0.52 0.091 -0.553 Q 0.109 -0.586 0.1335 -0.6065 Q 0.158 -0.627 0.1975 -0.641 Q 0.23700000000000002 -0.655 0.28700000000000003 -0.655 Q 0.337 -0.655 0.3765 -0.6405 Q 0.41600000000000004 -0.626 0.4405 -0.606 Q 0.465 -0.586 0.483 -0.5525 Q 0.501 -0.519 0.5095000000000001 -0.4925 Q 0.518 -0.466 0.523 -0.4275 Q 0.528 -0.389 0.5285 -0.369 M 0.28700000000000003 -0.025 Q 0.307 -0.025 0.326 -0.0315 Q 0.34500000000000003 -0.038 0.3665 -0.0635 Q 0.388 -0.089 0.394 -0.132 Q 0.401 -0.184 0.401 -0.331 Q 0.401 -0.519 0.384 -0.556 Q 0.371 -0.587 0.34400000000000003 -0.603 Q 0.317 -0.619 0.28700000000000003 -0.619 Q 0.269 -0.619 0.2505 -0.614 Q 0.232 -0.609 0.209 -0.5845 Q 0.186 -0.56 0.181 -0.52 Q 0.17300000000000001 -0.468 0.17300000000000001 -0.331 Q 0.17300000000000001 -0.17200000000000001 0.182 -0.12 Q 0.191 -0.07100000000000001 0.2225 -0.048 Q 0.254 -0.025 0.28700000000000003 -0.025 Z"/></g><g transform="translate(13.641649686688634,8.358285714285714)"><path fill="rgb(0,0,0)" stroke="none" paint-order="stroke fill markers" d=" M 0.47700000000000004 -0.22 L 0.47700000000000004 0.09 Q 0.47700000000000004 0.132 0.446 0.132 Q 0.41600000000000004 0.132 0.41600000000000004 0.09 L 0.41600000000000004 -0.22 L 0.107 -0.22 Q 0.064 -0.22 0.064 -0.25 Q 0.064 -0.281 0.107 -0.281 L 0.41600000000000004 -0.281 L 0.41600000000000004 -0.591 Q 0.41600000000000004 -0.633 0.447 -0.633 Q 0.47700000000000004 -0.633 0.47700000000000004 -0.591 L 0.47700000000000004 -0.281 L 0.786 -0.281 Q 0.8290000000000001 -0.281 0.8290000000000001 -0.25 Q 0.8290000000000001 -0.22 0.786 -0.22 L 0.47700000000000004 -0.22 Z"/></g><g transform="translate(14.757871908910856,8.358285714285714)"><path fill="rgb(0,0,0)" stroke="none" paint-order="stroke fill markers" d=" M 0.548 -0.596 L 0.393 -0.41600000000000004 Q 0.342 -0.357 0.328 -0.249 Q 0.318 -0.182 0.318 -0.106 L 0.318 -0.06 Q 0.318 -0.03 0.3045 -0.0125 Q 0.291 0.005 0.279 0.008 Q 0.267 0.011 0.255 0.011 Q 0.249 0.011 0.242 0.0095 Q 0.23500000000000001 0.008 0.222 0.0025 Q 0.209 -0.003 0.201 -0.019 Q 0.193 -0.035 0.193 -0.059000000000000004 Q 0.193 -0.258 0.361 -0.454 L 0.41600000000000004 -0.519 L 0.247 -0.519 Q 0.149 -0.519 0.138 -0.513 Q 0.122 -0.505 0.111 -0.422 L 0.064 -0.422 L 0.099 -0.676 L 0.146 -0.676 Q 0.147 -0.669 0.1485 -0.666 Q 0.15 -0.663 0.155 -0.659 Q 0.16 -0.655 0.17 -0.653 Q 0.179 -0.65 0.2545 -0.647 Q 0.33 -0.644 0.354 -0.644 L 0.558 -0.644 Q 0.558 -0.617 0.5565 -0.6105 Q 0.555 -0.604 0.548 -0.596 Z"/></g><g transform="translate(15.332871908910855,8.358285714285714)"><path fill="rgb(0,0,0)" stroke="none" paint-order="stroke fill markers" d=" M 0.5285 -0.369 Q 0.5285 -0.369 0.52875 -0.359 Q 0.529 -0.34900000000000003 0.529 -0.319 Q 0.529 -0.289 0.5285 -0.2685 Q 0.528 -0.248 0.523 -0.2105 Q 0.518 -0.17300000000000001 0.5095000000000001 -0.1465 Q 0.501 -0.12 0.483 -0.088 Q 0.465 -0.056 0.44 -0.036000000000000004 Q 0.41500000000000004 -0.016 0.3755 -0.0025 Q 0.336 0.011 0.28700000000000003 0.011 Q 0.23700000000000002 0.011 0.1975 -0.003 Q 0.158 -0.017 0.1335 -0.0365 Q 0.109 -0.056 0.091 -0.0885 Q 0.073 -0.121 0.0645 -0.147 Q 0.056 -0.17300000000000001 0.051000000000000004 -0.211 Q 0.046 -0.249 0.0455 -0.269 Q 0.045 -0.289 0.045 -0.319 Q 0.045 -0.34900000000000003 0.0455 -0.369 Q 0.046 -0.389 0.051000000000000004 -0.4275 Q 0.056 -0.466 0.0645 -0.493 Q 0.073 -0.52 0.091 -0.553 Q 0.109 -0.586 0.1335 -0.6065 Q 0.158 -0.627 0.1975 -0.641 Q 0.23700000000000002 -0.655 0.28700000000000003 -0.655 Q 0.337 -0.655 0.3765 -0.6405 Q 0.41600000000000004 -0.626 0.4405 -0.606 Q 0.465 -0.586 0.483 -0.5525 Q 0.501 -0.519 0.5095000000000001 -0.4925 Q 0.518 -0.466 0.523 -0.4275 Q 0.528 -0.389 0.5285 -0.369 M 0.28700000000000003 -0.025 Q 0.307 -0.025 0.326 -0.0315 Q 0.34500000000000003 -0.038 0.3665 -0.0635 Q 0.388 -0.089 0.394 -0.132 Q 0.401 -0.184 0.401 -0.331 Q 0.401 -0.519 0.384 -0.556 Q 0.371 -0.587 0.34400000000000003 -0.603 Q 0.317 -0.619 0.28700000000000003 -0.619 Q 0.269 -0.619 0.2505 -0.614 Q 0.232 -0.609 0.209 -0.5845 Q 0.186 -0.56 0.181 -0.52 Q 0.17300000000000001 -0.468 0.17300000000000001 -0.331 Q 0.17300000000000001 -0.17200000000000001 0.182 -0.12 Q 0.191 -0.07100000000000001 0.2225 -0.048 Q 0.254 -0.025 0.28700000000000003 -0.025 Z"/></g><g transform="translate(16.130094131133077,8.358285714285714)"><path fill="rgb(0,0,0)" stroke="none" paint-order="stroke fill markers" d=" M 0.47700000000000004 -0.22 L 0.47700000000000004 0.09 Q 0.47700000000000004 0.132 0.446 0.132 Q 0.41600000000000004 0.132 0.41600000000000004 0.09 L 0.41600000000000004 -0.22 L 0.107 -0.22 Q 0.064 -0.22 0.064 -0.25 Q 0.064 -0.281 0.107 -0.281 L 0.41600000000000004 -0.281 L 0.41600000000000004 -0.591 Q 0.41600000000000004 -0.633 0.447 -0.633 Q 0.47700000000000004 -0.633 0.47700000000000004 -0.591 L 0.47700000000000004 -0.281 L 0.786 -0.281 Q 0.8290000000000001 -0.281 0.8290000000000001 -0.25 Q 0.8290000000000001 -0.22 0.786 -0.22 L 0.47700000000000004 -0.22 Z"/></g><g transform="translate(17.246316353355297,8.358285714285714)"><path fill="rgb(0,0,0)" stroke="none" paint-order="stroke fill markers" d=" M 0.445 -0.156 L 0.445 -0.047 L 0.542 -0.047 L 0.542 0 Q 0.507 -0.003 0.38 -0.003 Q 0.246 -0.003 0.20800000000000002 0 L 0.20800000000000002 -0.047 L 0.32 -0.047 L 0.32 -0.156 L 0.032 -0.156 L 0.032 -0.203 L 0.381 -0.64 Q 0.39 -0.651 0.395 -0.6535 Q 0.4 -0.656 0.41500000000000004 -0.656 Q 0.435 -0.656 0.44 -0.6505 Q 0.445 -0.645 0.445 -0.624 L 0.445 -0.203 L 0.542 -0.203 L 0.542 -0.156 L 0.445 -0.156 M 0.331 -0.203 L 0.331 -0.513 L 0.084 -0.203 L 0.331 -0.203 Z"/></g><g transform="translate(18.487316353355293,8.358285714285714)"><path fill="rgb(0,0,0)" stroke="none" paint-order="stroke fill markers" d=" M 0.199 -0.47900000000000004 L 0.34900000000000003 -0.395 Q 0.419 -0.441 0.419 -0.507 Q 0.419 -0.558 0.3835 -0.587 Q 0.34800000000000003 -0.616 0.28500000000000003 -0.616 Q 0.265 -0.616 0.247 -0.6135 Q 0.229 -0.611 0.20600000000000002 -0.604 Q 0.183 -0.597 0.169 -0.5805 Q 0.155 -0.5640000000000001 0.155 -0.539 Q 0.155 -0.504 0.199 -0.47900000000000004 M 0.393 -0.37 Q 0.42 -0.354 0.436 -0.3435 Q 0.452 -0.333 0.47650000000000003 -0.31 Q 0.501 -0.28700000000000003 0.5135 -0.256 Q 0.526 -0.225 0.526 -0.187 Q 0.526 -0.1 0.463 -0.0445 Q 0.4 0.011 0.28500000000000003 0.011 Q 0.181 0.011 0.1145 -0.032 Q 0.048 -0.075 0.048 -0.161 Q 0.048 -0.273 0.176 -0.329 Q 0.08 -0.383 0.08 -0.48 Q 0.08 -0.556 0.1345 -0.6055 Q 0.189 -0.655 0.289 -0.655 Q 0.38 -0.655 0.437 -0.618 Q 0.494 -0.581 0.494 -0.508 Q 0.494 -0.422 0.393 -0.37 M 0.222 -0.302 Q 0.134 -0.252 0.134 -0.161 Q 0.134 -0.10200000000000001 0.17500000000000002 -0.067 Q 0.216 -0.032 0.289 -0.032 Q 0.324 -0.032 0.3545 -0.0385 Q 0.385 -0.045 0.41250000000000003 -0.069 Q 0.44 -0.093 0.44 -0.132 Q 0.44 -0.155 0.4275 -0.17300000000000001 Q 0.41500000000000004 -0.191 0.4015 -0.2005 Q 0.388 -0.21 0.359 -0.226 Q 0.247 -0.289 0.222 -0.302 Z"/></g><g transform="translate(19.062316353355293,8.358285714285714)"><path fill="rgb(0,0,0)" stroke="none" paint-order="stroke fill markers" d=" M 0.5285 -0.369 Q 0.5285 -0.369 0.52875 -0.359 Q 0.529 -0.34900000000000003 0.529 -0.319 Q 0.529 -0.289 0.5285 -0.2685 Q 0.528 -0.248 0.523 -0.2105 Q 0.518 -0.17300000000000001 0.5095000000000001 -0.1465 Q 0.501 -0.12 0.483 -0.088 Q 0.465 -0.056 0.44 -0.036000000000000004 Q 0.41500000000000004 -0.016 0.3755 -0.0025 Q 0.336 0.011 0.28700000000000003 0.011 Q 0.23700000000000002 0.011 0.1975 -0.003 Q 0.158 -0.017 0.1335 -0.0365 Q 0.109 -0.056 0.091 -0.0885 Q 0.073 -0.121 0.0645 -0.147 Q 0.056 -0.17300000000000001 0.051000000000000004 -0.211 Q 0.046 -0.249 0.0455 -0.269 Q 0.045 -0.289 0.045 -0.319 Q 0.045 -0.34900000000000003 0.0455 -0.369 Q 0.046 -0.389 0.051000000000000004 -0.4275 Q 0.056 -0.466 0.0645 -0.493 Q 0.073 -0.52 0.091 -0.553 Q 0.109 -0.586 0.1335 -0.6065 Q 0.158 -0.627 0.1975 -0.641 Q 0.23700000000000002 -0.655 0.28700000000000003 -0.655 Q 0.337 -0.655 0.3765 -0.6405 Q 0.41600000000000004 -0.626 0.4405 -0.606 Q 0.465 -0.586 0.483 -0.5525 Q 0.501 -0.519 0.5095000000000001 -0.4925 Q 0.518 -0.466 0.523 -0.4275 Q 0.528 -0.389 0.5285 -0.369 M 0.28700000000000003 -0.025 Q 0.307 -0.025 0.326 -0.0315 Q 0.34500000000000003 -0.038 0.3665 -0.0635 Q 0.388 -0.089 0.394 -0.132 Q 0.401 -0.184 0.401 -0.331 Q 0.401 -0.519 0.384 -0.556 Q 0.371 -0.587 0.34400000000000003 -0.603 Q 0.317 -0.619 0.28700000000000003 -0.619 Q 0.269 -0.619 0.2505 -0.614 Q 0.232 -0.609 0.209 -0.5845 Q 0.186 -0.56 0.181 -0.52 Q 0.17300000000000001 -0.468 0.17300000000000001 -0.331 Q 0.17300000000000001 -0.17200000000000001 0.182 -0.12 Q 0.191 -0.07100000000000001 0.2225 -0.048 Q 0.254 -0.025 0.28700000000000003 -0.025 Z"/></g><g transform="translate(19.859538575577513,8.358285714285714)"><path fill="rgb(0,0,0)" stroke="none" paint-order="stroke fill markers" d=" M 0.47700000000000004 -0.22 L 0.47700000000000004 0.09 Q 0.47700000000000004 0.132 0.446 0.132 Q 0.41600000000000004 0.132 0.41600000000000004 0.09 L 0.41600000000000004 -0.22 L 0.107 -0.22 Q 0.064 -0.22 0.064 -0.25 Q 0.064 -0.281 0.107 -0.281 L 0.41600000000000004 -0.281 L 0.41600000000000004 -0.591 Q 0.41600000000000004 -0.633 0.447 -0.633 Q 0.47700000000000004 -0.633 0.47700000000000004 -0.591 L 0.47700000000000004 -0.281 L 0.786 -0.281 Q 0.8290000000000001 -0.281 0.8290000000000001 -0.25 Q 0.8290000000000001 -0.22 0.786 -0.22 L 0.47700000000000004 -0.22 Z"/></g><g transform="translate(20.975760797799733,8.358285714285714)"><path fill="rgb(0,0,0)" stroke="none" paint-order="stroke fill markers" d=" M 0.517 -0.222 L 0.486 0 L 0.057 0 L 0.057 -0.018000000000000002 Q 0.057 -0.034 0.059000000000000004 -0.0385 Q 0.061 -0.043000000000000003 0.07 -0.052000000000000005 L 0.271 -0.257 Q 0.379 -0.367 0.379 -0.465 Q 0.379 -0.525 0.34400000000000003 -0.5665 Q 0.309 -0.608 0.247 -0.608 Q 0.186 -0.608 0.14400000000000002 -0.5730000000000001 Q 0.155 -0.5700000000000001 0.166 -0.5645 Q 0.177 -0.559 0.189 -0.542 Q 0.201 -0.525 0.201 -0.501 Q 0.201 -0.466 0.1785 -0.4475 Q 0.156 -0.429 0.129 -0.429 Q 0.10400000000000001 -0.429 0.0805 -0.4465 Q 0.057 -0.464 0.057 -0.503 Q 0.057 -0.5700000000000001 0.11850000000000001 -0.6125 Q 0.18 -0.655 0.272 -0.655 Q 0.379 -0.655 0.448 -0.603 Q 0.517 -0.551 0.517 -0.466 Q 0.517 -0.431 0.507 -0.404 Q 0.497 -0.377 0.46900000000000003 -0.34750000000000003 Q 0.441 -0.318 0.417 -0.299 Q 0.393 -0.28 0.339 -0.24 Q 0.292 -0.20600000000000002 0.195 -0.125 L 0.342 -0.125 Q 0.433 -0.125 0.444 -0.131 Q 0.457 -0.138 0.47000000000000003 -0.222 L 0.517 -0.222 Z"/></g><g transform="translate(22.21676079779973,8.358285714285714)"><path fill="rgb(0,0,0)" stroke="none" paint-order="stroke fill markers" d=" M 0.199 -0.47900000000000004 L 0.34900000000000003 -0.395 Q 0.419 -0.441 0.419 -0.507 Q 0.419 -0.558 0.3835 -0.587 Q 0.34800000000000003 -0.616 0.28500000000000003 -0.616 Q 0.265 -0.616 0.247 -0.6135 Q 0.229 -0.611 0.20600000000000002 -0.604 Q 0.183 -0.597 0.169 -0.5805 Q 0.155 -0.5640000000000001 0.155 -0.539 Q 0.155 -0.504 0.199 -0.47900000000000004 M 0.393 -0.37 Q 0.42 -0.354 0.436 -0.3435 Q 0.452 -0.333 0.47650000000000003 -0.31 Q 0.501 -0.28700000000000003 0.5135 -0.256 Q 0.526 -0.225 0.526 -0.187 Q 0.526 -0.1 0.463 -0.0445 Q 0.4 0.011 0.28500000000000003 0.011 Q 0.181 0.011 0.1145 -0.032 Q 0.048 -0.075 0.048 -0.161 Q 0.048 -0.273 0.176 -0.329 Q 0.08 -0.383 0.08 -0.48 Q 0.08 -0.556 0.1345 -0.6055 Q 0.189 -0.655 0.289 -0.655 Q 0.38 -0.655 0.437 -0.618 Q 0.494 -0.581 0.494 -0.508 Q 0.494 -0.422 0.393 -0.37 M 0.222 -0.302 Q 0.134 -0.252 0.134 -0.161 Q 0.134 -0.10200000000000001 0.17500000000000002 -0.067 Q 0.216 -0.032 0.289 -0.032 Q 0.324 -0.032 0.3545 -0.0385 Q 0.385 -0.045 0.41250000000000003 -0.069 Q 0.44 -0.093 0.44 -0.132 Q 0.44 -0.155 0.4275 -0.17300000000000001 Q 0.41500000000000004 -0.191 0.4015 -0.2005 Q 0.388 -0.21 0.359 -0.226 Q 0.247 -0.289 0.222 -0.302 Z"/></g><g transform="translate(22.79176079779973,8.358285714285714)"><path fill="rgb(0,0,0)" stroke="none" paint-order="stroke fill markers" d=" M 0.445 -0.156 L 0.445 -0.047 L 0.542 -0.047 L 0.542 0 Q 0.507 -0.003 0.38 -0.003 Q 0.246 -0.003 0.20800000000000002 0 L 0.20800000000000002 -0.047 L 0.32 -0.047 L 0.32 -0.156 L 0.032 -0.156 L 0.032 -0.203 L 0.381 -0.64 Q 0.39 -0.651 0.395 -0.6535 Q 0.4 -0.656 0.41500000000000004 -0.656 Q 0.435 -0.656 0.44 -0.6505 Q 0.445 -0.645 0.445 -0.624 L 0.445 -0.203 L 0.542 -0.203 L 0.542 -0.156 L 0.445 -0.156 M 0.331 -0.203 L 0.331 -0.513 L 0.084 -0.203 L 0.331 -0.203 Z"/></g><rect fill="rgb(0,0,0)" stroke="none" x="11.028427464466414" y="8.764794214285713" width="12.338333333333331" height="0.039999"/><g transform="translate(16.62259413113308,9.720744714285713)"><path fill="rgb(0,0,0)" stroke="none" paint-order="stroke fill markers" d=" M 0.354 -0.623 L 0.354 -0.047 L 0.494 -0.047 L 0.494 0 Q 0.45 -0.003 0.295 -0.003 Q 0.14 -0.003 0.096 0 L 0.096 -0.047 L 0.23500000000000001 -0.047 L 0.23500000000000001 -0.5640000000000001 Q 0.17300000000000001 -0.544 0.105 -0.544 L 0.085 -0.544 L 0.085 -0.591 L 0.105 -0.591 Q 0.229 -0.591 0.306 -0.648 Q 0.315 -0.655 0.328 -0.655 Q 0.34600000000000003 -0.655 0.35000000000000003 -0.6485 Q 0.354 -0.642 0.354 -0.623 Z"/></g><g transform="translate(17.19759413113308,9.720744714285713)"><path fill="rgb(0,0,0)" stroke="none" paint-order="stroke fill markers" d=" M 0.5285 -0.369 Q 0.5285 -0.369 0.52875 -0.359 Q 0.529 -0.34900000000000003 0.529 -0.319 Q 0.529 -0.289 0.5285 -0.2685 Q 0.528 -0.248 0.523 -0.2105 Q 0.518 -0.17300000000000001 0.5095000000000001 -0.1465 Q 0.501 -0.12 0.483 -0.088 Q 0.465 -0.056 0.44 -0.036000000000000004 Q 0.41500000000000004 -0.016 0.3755 -0.0025 Q 0.336 0.011 0.28700000000000003 0.011 Q 0.23700000000000002 0.011 0.1975 -0.003 Q 0.158 -0.017 0.1335 -0.0365 Q 0.109 -0.056 0.091 -0.0885 Q 0.073 -0.121 0.0645 -0.147 Q 0.056 -0.17300000000000001 0.051000000000000004 -0.211 Q 0.046 -0.249 0.0455 -0.269 Q 0.045 -0.289 0.045 -0.319 Q 0.045 -0.34900000000000003 0.0455 -0.369 Q 0.046 -0.389 0.051000000000000004 -0.4275 Q 0.056 -0.466 0.0645 -0.493 Q 0.073 -0.52 0.091 -0.553 Q 0.109 -0.586 0.1335 -0.6065 Q 0.158 -0.627 0.1975 -0.641 Q 0.23700000000000002 -0.655 0.28700000000000003 -0.655 Q 0.337 -0.655 0.3765 -0.6405 Q 0.41600000000000004 -0.626 0.4405 -0.606 Q 0.465 -0.586 0.483 -0.5525 Q 0.501 -0.519 0.5095000000000001 -0.4925 Q 0.518 -0.466 0.523 -0.4275 Q 0.528 -0.389 0.5285 -0.369 M 0.28700000000000003 -0.025 Q 0.307 -0.025 0.326 -0.0315 Q 0.34500000000000003 -0.038 0.3665 -0.0635 Q 0.388 -0.089 0.394 -0.132 Q 0.401 -0.184 0.401 -0.331 Q 0.401 -0.519 0.384 -0.556 Q 0.371 -0.587 0.34400000000000003 -0.603 Q 0.317 -0.619 0.28700000000000003 -0.619 Q 0.269 -0.619 0.2505 -0.614 Q 0.232 -0.609 0.209 -0.5845 Q 0.186 -0.56 0.181 -0.52 Q 0.17300000000000001 -0.468 0.17300000000000001 -0.331 Q 0.17300000000000001 -0.17200000000000001 0.182 -0.12 Q 0.191 -0.07100000000000001 0.2225 -0.048 Q 0.254 -0.025 0.28700000000000003 -0.025 Z"/></g><g transform="translate(23.678696198774094,9.034793714285714)"><path fill="rgb(0,0,0)" stroke="none" paint-order="stroke fill markers" d=" M 0.788 -0.332 L 0.105 -0.332 Q 0.064 -0.332 0.064 -0.362 Q 0.064 -0.393 0.11 -0.393 L 0.783 -0.393 Q 0.8290000000000001 -0.393 0.8290000000000001 -0.362 Q 0.8290000000000001 -0.332 0.788 -0.332 M 0.783 -0.108 L 0.11 -0.108 Q 0.064 -0.108 0.064 -0.139 Q 0.064 -0.169 0.105 -0.169 L 0.788 -0.169 Q 0.8290000000000001 -0.169 0.8290000000000001 -0.139 Q 0.8290000000000001 -0.108 0.783 -0.108 Z"/></g><g transform="translate(24.88463159974844,8.358285714285714)"><path fill="rgb(0,0,0)" stroke="none" paint-order="stroke fill markers" d=" M 0.548 -0.596 L 0.393 -0.41600000000000004 Q 0.342 -0.357 0.328 -0.249 Q 0.318 -0.182 0.318 -0.106 L 0.318 -0.06 Q 0.318 -0.03 0.3045 -0.0125 Q 0.291 0.005 0.279 0.008 Q 0.267 0.011 0.255 0.011 Q 0.249 0.011 0.242 0.0095 Q 0.23500000000000001 0.008 0.222 0.0025 Q 0.209 -0.003 0.201 -0.019 Q 0.193 -0.035 0.193 -0.059000000000000004 Q 0.193 -0.258 0.361 -0.454 L 0.41600000000000004 -0.519 L 0.247 -0.519 Q 0.149 -0.519 0.138 -0.513 Q 0.122 -0.505 0.111 -0.422 L 0.064 -0.422 L 0.099 -0.676 L 0.146 -0.676 Q 0.147 -0.669 0.1485 -0.666 Q 0.15 -0.663 0.155 -0.659 Q 0.16 -0.655 0.17 -0.653 Q 0.179 -0.65 0.2545 -0.647 Q 0.33 -0.644 0.354 -0.644 L 0.558 -0.644 Q 0.558 -0.617 0.5565 -0.6105 Q 0.555 -0.604 0.548 -0.596 Z"/></g><g transform="translate(25.45963159974844,8.358285714285714)"><path fill="rgb(0,0,0)" stroke="none" paint-order="stroke fill markers" d=" M 0.184 -0.342 Q 0.226 -0.418 0.304 -0.418 Q 0.399 -0.418 0.4625 -0.362 Q 0.526 -0.306 0.526 -0.20500000000000002 Q 0.526 -0.106 0.461 -0.0475 Q 0.396 0.011 0.291 0.011 Q 0.16 0.011 0.098 -0.089 Q 0.048 -0.17300000000000001 0.048 -0.317 Q 0.048 -0.40700000000000003 0.0755 -0.47550000000000003 Q 0.10300000000000001 -0.544 0.148 -0.5815 Q 0.193 -0.619 0.244 -0.637 Q 0.295 -0.655 0.34900000000000003 -0.655 Q 0.423 -0.655 0.46 -0.6185 Q 0.497 -0.582 0.497 -0.53 Q 0.497 -0.501 0.48 -0.4835 Q 0.463 -0.466 0.434 -0.466 Q 0.406 -0.466 0.389 -0.484 Q 0.372 -0.502 0.372 -0.528 Q 0.372 -0.552 0.386 -0.5690000000000001 Q 0.4 -0.586 0.426 -0.59 Q 0.4 -0.616 0.35100000000000003 -0.616 Q 0.306 -0.616 0.2685 -0.5925 Q 0.231 -0.5690000000000001 0.212 -0.533 Q 0.184 -0.47300000000000003 0.184 -0.361 L 0.184 -0.342 M 0.289 -0.032 Q 0.318 -0.032 0.338 -0.0415 Q 0.358 -0.051000000000000004 0.368 -0.0635 Q 0.378 -0.076 0.383 -0.10300000000000001 Q 0.388 -0.13 0.389 -0.149 Q 0.39 -0.168 0.39 -0.20700000000000002 Q 0.39 -0.246 0.3895 -0.2645 Q 0.389 -0.28300000000000003 0.384 -0.3105 Q 0.379 -0.338 0.3695 -0.35050000000000003 Q 0.36 -0.363 0.3415 -0.3725 Q 0.323 -0.382 0.295 -0.382 Q 0.249 -0.382 0.2175 -0.3395 Q 0.186 -0.297 0.186 -0.21 Q 0.186 -0.11900000000000001 0.202 -0.08700000000000001 Q 0.23 -0.032 0.289 -0.032 Z"/></g><g transform="translate(26.03463159974844,8.358285714285714)"><path fill="rgb(0,0,0)" stroke="none" paint-order="stroke fill markers" d=" M 0.5285 -0.369 Q 0.5285 -0.369 0.52875 -0.359 Q 0.529 -0.34900000000000003 0.529 -0.319 Q 0.529 -0.289 0.5285 -0.2685 Q 0.528 -0.248 0.523 -0.2105 Q 0.518 -0.17300000000000001 0.5095000000000001 -0.1465 Q 0.501 -0.12 0.483 -0.088 Q 0.465 -0.056 0.44 -0.036000000000000004 Q 0.41500000000000004 -0.016 0.3755 -0.0025 Q 0.336 0.011 0.28700000000000003 0.011 Q 0.23700000000000002 0.011 0.1975 -0.003 Q 0.158 -0.017 0.1335 -0.0365 Q 0.109 -0.056 0.091 -0.0885 Q 0.073 -0.121 0.0645 -0.147 Q 0.056 -0.17300000000000001 0.051000000000000004 -0.211 Q 0.046 -0.249 0.0455 -0.269 Q 0.045 -0.289 0.045 -0.319 Q 0.045 -0.34900000000000003 0.0455 -0.369 Q 0.046 -0.389 0.051000000000000004 -0.4275 Q 0.056 -0.466 0.0645 -0.493 Q 0.073 -0.52 0.091 -0.553 Q 0.109 -0.586 0.1335 -0.6065 Q 0.158 -0.627 0.1975 -0.641 Q 0.23700000000000002 -0.655 0.28700000000000003 -0.655 Q 0.337 -0.655 0.3765 -0.6405 Q 0.41600000000000004 -0.626 0.4405 -0.606 Q 0.465 -0.586 0.483 -0.5525 Q 0.501 -0.519 0.5095000000000001 -0.4925 Q 0.518 -0.466 0.523 -0.4275 Q 0.528 -0.389 0.5285 -0.369 M 0.28700000000000003 -0.025 Q 0.307 -0.025 0.326 -0.0315 Q 0.34500000000000003 -0.038 0.3665 -0.0635 Q 0.388 -0.089 0.394 -0.132 Q 0.401 -0.184 0.401 -0.331 Q 0.401 -0.519 0.384 -0.556 Q 0.371 -0.587 0.34400000000000003 -0.603 Q 0.317 -0.619 0.28700000000000003 -0.619 Q 0.269 -0.619 0.2505 -0.614 Q 0.232 -0.609 0.209 -0.5845 Q 0.186 -0.56 0.181 -0.52 Q 0.17300000000000001 -0.468 0.17300000000000001 -0.331 Q 0.17300000000000001 -0.17200000000000001 0.182 -0.12 Q 0.191 -0.07100000000000001 0.2225 -0.048 Q 0.254 -0.025 0.28700000000000003 -0.025 Z"/></g><rect fill="rgb(0,0,0)" stroke="none" x="24.88463159974844" y="8.764794214285713" width="1.7249999999999999" height="0.039999"/><g transform="translate(25.172131599748443,9.720744714285713)"><path fill="rgb(0,0,0)" stroke="none" paint-order="stroke fill markers" d=" M 0.354 -0.623 L 0.354 -0.047 L 0.494 -0.047 L 0.494 0 Q 0.45 -0.003 0.295 -0.003 Q 0.14 -0.003 0.096 0 L 0.096 -0.047 L 0.23500000000000001 -0.047 L 0.23500000000000001 -0.5640000000000001 Q 0.17300000000000001 -0.544 0.105 -0.544 L 0.085 -0.544 L 0.085 -0.591 L 0.105 -0.591 Q 0.229 -0.591 0.306 -0.648 Q 0.315 -0.655 0.328 -0.655 Q 0.34600000000000003 -0.655 0.35000000000000003 -0.6485 Q 0.354 -0.642 0.354 -0.623 Z"/></g><g transform="translate(25.747131599748442,9.720744714285713)"><path fill="rgb(0,0,0)" stroke="none" paint-order="stroke fill markers" d=" M 0.5285 -0.369 Q 0.5285 -0.369 0.52875 -0.359 Q 0.529 -0.34900000000000003 0.529 -0.319 Q 0.529 -0.289 0.5285 -0.2685 Q 0.528 -0.248 0.523 -0.2105 Q 0.518 -0.17300000000000001 0.5095000000000001 -0.1465 Q 0.501 -0.12 0.483 -0.088 Q 0.465 -0.056 0.44 -0.036000000000000004 Q 0.41500000000000004 -0.016 0.3755 -0.0025 Q 0.336 0.011 0.28700000000000003 0.011 Q 0.23700000000000002 0.011 0.1975 -0.003 Q 0.158 -0.017 0.1335 -0.0365 Q 0.109 -0.056 0.091 -0.0885 Q 0.073 -0.121 0.0645 -0.147 Q 0.056 -0.17300000000000001 0.051000000000000004 -0.211 Q 0.046 -0.249 0.0455 -0.269 Q 0.045 -0.289 0.045 -0.319 Q 0.045 -0.34900000000000003 0.0455 -0.369 Q 0.046 -0.389 0.051000000000000004 -0.4275 Q 0.056 -0.466 0.0645 -0.493 Q 0.073 -0.52 0.091 -0.553 Q 0.109 -0.586 0.1335 -0.6065 Q 0.158 -0.627 0.1975 -0.641 Q 0.23700000000000002 -0.655 0.28700000000000003 -0.655 Q 0.337 -0.655 0.3765 -0.6405 Q 0.41600000000000004 -0.626 0.4405 -0.606 Q 0.465 -0.586 0.483 -0.5525 Q 0.501 -0.519 0.5095000000000001 -0.4925 Q 0.518 -0.466 0.523 -0.4275 Q 0.528 -0.389 0.5285 -0.369 M 0.28700000000000003 -0.025 Q 0.307 -0.025 0.326 -0.0315 Q 0.34500000000000003 -0.038 0.3665 -0.0635 Q 0.388 -0.089 0.394 -0.132 Q 0.401 -0.184 0.401 -0.331 Q 0.401 -0.519 0.384 -0.556 Q 0.371 -0.587 0.34400000000000003 -0.603 Q 0.317 -0.619 0.28700000000000003 -0.619 Q 0.269 -0.619 0.2505 -0.614 Q 0.232 -0.609 0.209 -0.5845 Q 0.186 -0.56 0.181 -0.52 Q 0.17300000000000001 -0.468 0.17300000000000001 -0.331 Q 0.17300000000000001 -0.17200000000000001 0.182 -0.12 Q 0.191 -0.07100000000000001 0.2225 -0.048 Q 0.254 -0.025 0.28700000000000003 -0.025 Z"/></g><g transform="translate(26.921567000722792,9.034793714285714)"><path fill="rgb(0,0,0)" stroke="none" paint-order="stroke fill markers" d=" M 0.788 -0.332 L 0.105 -0.332 Q 0.064 -0.332 0.064 -0.362 Q 0.064 -0.393 0.11 -0.393 L 0.783 -0.393 Q 0.8290000000000001 -0.393 0.8290000000000001 -0.362 Q 0.8290000000000001 -0.332 0.788 -0.332 M 0.783 -0.108 L 0.11 -0.108 Q 0.064 -0.108 0.064 -0.139 Q 0.064 -0.169 0.105 -0.169 L 0.788 -0.169 Q 0.8290000000000001 -0.169 0.8290000000000001 -0.139 Q 0.8290000000000001 -0.108 0.783 -0.108 Z"/></g><g transform="translate(28.09334477850057,9.034793714285714)"><path fill="rgb(0,0,0)" stroke="none" paint-order="stroke fill markers" d=" M 0.548 -0.596 L 0.393 -0.41600000000000004 Q 0.342 -0.357 0.328 -0.249 Q 0.318 -0.182 0.318 -0.106 L 0.318 -0.06 Q 0.318 -0.03 0.3045 -0.0125 Q 0.291 0.005 0.279 0.008 Q 0.267 0.011 0.255 0.011 Q 0.249 0.011 0.242 0.0095 Q 0.23500000000000001 0.008 0.222 0.0025 Q 0.209 -0.003 0.201 -0.019 Q 0.193 -0.035 0.193 -0.059000000000000004 Q 0.193 -0.258 0.361 -0.454 L 0.41600000000000004 -0.519 L 0.247 -0.519 Q 0.149 -0.519 0.138 -0.513 Q 0.122 -0.505 0.111 -0.422 L 0.064 -0.422 L 0.099 -0.676 L 0.146 -0.676 Q 0.147 -0.669 0.1485 -0.666 Q 0.15 -0.663 0.155 -0.659 Q 0.16 -0.655 0.17 -0.653 Q 0.179 -0.65 0.2545 -0.647 Q 0.33 -0.644 0.354 -0.644 L 0.558 -0.644 Q 0.558 -0.617 0.5565 -0.6105 Q 0.555 -0.604 0.548 -0.596 Z"/></g><g transform="translate(28.66834477850057,9.034793714285714)"><path fill="rgb(0,0,0)" stroke="none" paint-order="stroke fill markers" d=" M 0.184 -0.342 Q 0.226 -0.418 0.304 -0.418 Q 0.399 -0.418 0.4625 -0.362 Q 0.526 -0.306 0.526 -0.20500000000000002 Q 0.526 -0.106 0.461 -0.0475 Q 0.396 0.011 0.291 0.011 Q 0.16 0.011 0.098 -0.089 Q 0.048 -0.17300000000000001 0.048 -0.317 Q 0.048 -0.40700000000000003 0.0755 -0.47550000000000003 Q 0.10300000000000001 -0.544 0.148 -0.5815 Q 0.193 -0.619 0.244 -0.637 Q 0.295 -0.655 0.34900000000000003 -0.655 Q 0.423 -0.655 0.46 -0.6185 Q 0.497 -0.582 0.497 -0.53 Q 0.497 -0.501 0.48 -0.4835 Q 0.463 -0.466 0.434 -0.466 Q 0.406 -0.466 0.389 -0.484 Q 0.372 -0.502 0.372 -0.528 Q 0.372 -0.552 0.386 -0.5690000000000001 Q 0.4 -0.586 0.426 -0.59 Q 0.4 -0.616 0.35100000000000003 -0.616 Q 0.306 -0.616 0.2685 -0.5925 Q 0.231 -0.5690000000000001 0.212 -0.533 Q 0.184 -0.47300000000000003 0.184 -0.361 L 0.184 -0.342 M 0.289 -0.032 Q 0.318 -0.032 0.338 -0.0415 Q 0.358 -0.051000000000000004 0.368 -0.0635 Q 0.378 -0.076 0.383 -0.10300000000000001 Q 0.388 -0.13 0.389 -0.149 Q 0.39 -0.168 0.39 -0.20700000000000002 Q 0.39 -0.246 0.3895 -0.2645 Q 0.389 -0.28300000000000003 0.384 -0.3105 Q 0.379 -0.338 0.3695 -0.35050000000000003 Q 0.36 -0.363 0.3415 -0.3725 Q 0.323 -0.382 0.295 -0.382 Q 0.249 -0.382 0.2175 -0.3395 Q 0.186 -0.297 0.186 -0.21 Q 0.186 -0.11900000000000001 0.202 -0.08700000000000001 Q 0.23 -0.032 0.289 -0.032 Z"/></g><g transform="translate(29.243344778500568,9.034793714285714)"><path fill="rgb(0,0,0)" stroke="none" paint-order="stroke fill markers" d=" M 0.09716796875 0 Q 0.091796875 0 0.08837890625 -0.00341796875 Q 0.0849609375 -0.0068359375 0.0849609375 -0.01220703125 L 0.0849609375 -0.1240234375 Q 0.0849609375 -0.12841796875 0.088623046875 -0.131591796875 Q 0.09228515625 -0.134765625 0.09716796875 -0.134765625 L 0.208984375 -0.134765625 Q 0.212890625 -0.134765625 0.216552734375 -0.131591796875 Q 0.22021484375 -0.12841796875 0.22021484375 -0.1240234375 L 0.22021484375 -0.01220703125 Q 0.22021484375 -0.0068359375 0.216796875 -0.00341796875 Q 0.21337890625 0 0.208984375 0 L 0.09716796875 0 Z"/></g><g transform="translate(29.54934477850057,9.034793714285714)"><path fill="rgb(0,0,0)" stroke="none" paint-order="stroke fill markers" d=" M 0.199 -0.47900000000000004 L 0.34900000000000003 -0.395 Q 0.419 -0.441 0.419 -0.507 Q 0.419 -0.558 0.3835 -0.587 Q 0.34800000000000003 -0.616 0.28500000000000003 -0.616 Q 0.265 -0.616 0.247 -0.6135 Q 0.229 -0.611 0.20600000000000002 -0.604 Q 0.183 -0.597 0.169 -0.5805 Q 0.155 -0.5640000000000001 0.155 -0.539 Q 0.155 -0.504 0.199 -0.47900000000000004 M 0.393 -0.37 Q 0.42 -0.354 0.436 -0.3435 Q 0.452 -0.333 0.47650000000000003 -0.31 Q 0.501 -0.28700000000000003 0.5135 -0.256 Q 0.526 -0.225 0.526 -0.187 Q 0.526 -0.1 0.463 -0.0445 Q 0.4 0.011 0.28500000000000003 0.011 Q 0.181 0.011 0.1145 -0.032 Q 0.048 -0.075 0.048 -0.161 Q 0.048 -0.273 0.176 -0.329 Q 0.08 -0.383 0.08 -0.48 Q 0.08 -0.556 0.1345 -0.6055 Q 0.189 -0.655 0.289 -0.655 Q 0.38 -0.655 0.437 -0.618 Q 0.494 -0.581 0.494 -0.508 Q 0.494 -0.422 0.393 -0.37 M 0.222 -0.302 Q 0.134 -0.252 0.134 -0.161 Q 0.134 -0.10200000000000001 0.17500000000000002 -0.067 Q 0.216 -0.032 0.289 -0.032 Q 0.324 -0.032 0.3545 -0.0385 Q 0.385 -0.045 0.41250000000000003 -0.069 Q 0.44 -0.093 0.44 -0.132 Q 0.44 -0.155 0.4275 -0.17300000000000001 Q 0.41500000000000004 -0.191 0.4015 -0.2005 Q 0.388 -0.21 0.359 -0.226 Q 0.247 -0.289 0.222 -0.302 Z"/></g></g></g></g></svg>