<svg version="1.1" xmlns="http://www.w3.org/2000/svg" xmlns:xlink="http://www.w3.org/1999/xlink" width="1358" height="662"><defs><clipPath id="aUcFbsBiTfxb"><path fill="transparent" stroke="none" d=" M 0 0 L 1358 0 L 1358 662 L 0 662 L 0 0 Z"/></clipPath></defs><g transform="scale(1,1)" clip-path="url(#aUcFbsBiTfxb)"><g><rect fill="rgb(255,255,255)" stroke="none" x="0" y="0" width="1358" height="662" fill-opacity="0"/><g transform="scale(67,67)"><g transform="translate(6.002918161371343,4.708925373134329)"><path fill="rgb(0,0,0)" stroke="none" paint-order="stroke fill markers" d=" M 0.338 -0.66 L 0.279 -0.424 Q 0.324 -0.452 0.377 -0.452 Q 0.443 -0.452 0.49 -0.41300000000000003 Q 0.537 -0.374 0.537 -0.292 Q 0.537 -0.223 0.5065000000000001 -0.1555 Q 0.47600000000000003 -0.088 0.41250000000000003 -0.04 Q 0.34900000000000003 0.008 0.268 0.008 Q 0.20400000000000001 0.008 0.158 -0.029500000000000002 Q 0.112 -0.067 0.112 -0.15 Q 0.112 -0.186 0.121 -0.222 L 0.224 -0.637 Q 0.2 -0.639 0.182 -0.639 Q 0.155 -0.639 0.155 -0.657 Q 0.155 -0.667 0.1575 -0.6735 Q 0.16 -0.68 0.1665 -0.6825 Q 0.17300000000000001 -0.685 0.176 -0.6855 Q 0.179 -0.686 0.186 -0.687 L 0.309 -0.6930000000000001 Q 0.341 -0.6950000000000001 0.341 -0.676 Q 0.341 -0.675 0.338 -0.66 M 0.27 -0.028 Q 0.28500000000000003 -0.028 0.301 -0.0335 Q 0.317 -0.039 0.3425 -0.066 Q 0.368 -0.093 0.384 -0.14 Q 0.395 -0.169 0.41250000000000003 -0.23900000000000002 Q 0.43 -0.309 0.43 -0.34500000000000003 Q 0.43 -0.383 0.41250000000000003 -0.3995 Q 0.395 -0.41600000000000004 0.373 -0.41600000000000004 Q 0.315 -0.41600000000000004 0.269 -0.359 Q 0.26 -0.34900000000000003 0.252 -0.32 Q 0.249 -0.306 0.2415 -0.2765 Q 0.234 -0.247 0.23 -0.228 Q 0.20800000000000002 -0.14400000000000002 0.20800000000000002 -0.107 Q 0.20800000000000002 -0.028 0.27 -0.028 Z"/></g><g transform="translate(6.534918161371343,4.858925373134329) scale(0.7,0.7)"><path fill="rgb(0,0,0)" stroke="none" paint-order="stroke fill markers" d=" M 0.515 -0.63 L 0.37 -0.05 Q 0.397 -0.047 0.429 -0.047 L 0.462 -0.047 Q 0.494 -0.047 0.494 -0.029 Q 0.494 0 0.464 0 Q 0.438 0 0.3835 -0.0015 Q 0.329 -0.003 0.302 -0.003 Q 0.276 -0.003 0.2235 -0.0015 Q 0.171 0 0.146 0 Q 0.124 0 0.124 -0.018000000000000002 Q 0.124 -0.032 0.1295 -0.0385 Q 0.135 -0.045 0.14100000000000001 -0.046 Q 0.147 -0.047 0.159 -0.047 L 0.19 -0.047 Q 0.22 -0.047 0.234 -0.049 Q 0.25 -0.05 0.254 -0.053 Q 0.258 -0.056 0.261 -0.067 L 0.373 -0.514 Q 0.311 -0.485 0.256 -0.485 Q 0.233 -0.485 0.233 -0.504 Q 0.233 -0.529 0.258 -0.532 Q 0.384 -0.541 0.47700000000000004 -0.65 Q 0.488 -0.661 0.497 -0.661 Q 0.509 -0.661 0.5135 -0.6545 Q 0.518 -0.648 0.518 -0.643 Q 0.518 -0.639 0.515 -0.63 Z"/></g><g transform="translate(7.2632403835935655,4.708925373134329)"><path fill="rgb(0,0,0)" stroke="none" paint-order="stroke fill markers" d=" M 0.53 -0.22 L 0.457 0.07200000000000001 Q 0.45 0.10200000000000001 0.426 0.10200000000000001 Q 0.41300000000000003 0.10200000000000001 0.404 0.093 Q 0.395 0.084 0.395 0.07100000000000001 Q 0.395 0.066 0.398 0.056 L 0.467 -0.22 L 0.196 -0.22 Q 0.153 -0.22 0.153 -0.251 Q 0.153 -0.281 0.196 -0.281 L 0.482 -0.281 L 0.555 -0.5720000000000001 Q 0.562 -0.603 0.587 -0.603 Q 0.598 -0.603 0.6075 -0.595 Q 0.617 -0.587 0.617 -0.5720000000000001 Q 0.617 -0.5660000000000001 0.613 -0.552 L 0.545 -0.281 L 0.8160000000000001 -0.281 Q 0.859 -0.281 0.859 -0.25 Q 0.859 -0.22 0.8160000000000001 -0.22 L 0.53 -0.22 Z"/></g><g transform="translate(8.404462605815787,4.708925373134329)"><path fill="rgb(0,0,0)" stroke="none" paint-order="stroke fill markers" d=" M 0.338 -0.66 L 0.279 -0.424 Q 0.324 -0.452 0.377 -0.452 Q 0.443 -0.452 0.49 -0.41300000000000003 Q 0.537 -0.374 0.537 -0.292 Q 0.537 -0.223 0.5065000000000001 -0.1555 Q 0.47600000000000003 -0.088 0.41250000000000003 -0.04 Q 0.34900000000000003 0.008 0.268 0.008 Q 0.20400000000000001 0.008 0.158 -0.029500000000000002 Q 0.112 -0.067 0.112 -0.15 Q 0.112 -0.186 0.121 -0.222 L 0.224 -0.637 Q 0.2 -0.639 0.182 -0.639 Q 0.155 -0.639 0.155 -0.657 Q 0.155 -0.667 0.1575 -0.6735 Q 0.16 -0.68 0.1665 -0.6825 Q 0.17300000000000001 -0.685 0.176 -0.6855 Q 0.179 -0.686 0.186 -0.687 L 0.309 -0.6930000000000001 Q 0.341 -0.6950000000000001 0.341 -0.676 Q 0.341 -0.675 0.338 -0.66 M 0.27 -0.028 Q 0.28500000000000003 -0.028 0.301 -0.0335 Q 0.317 -0.039 0.3425 -0.066 Q 0.368 -0.093 0.384 -0.14 Q 0.395 -0.169 0.41250000000000003 -0.23900000000000002 Q 0.43 -0.309 0.43 -0.34500000000000003 Q 0.43 -0.383 0.41250000000000003 -0.3995 Q 0.395 -0.41600000000000004 0.373 -0.41600000000000004 Q 0.315 -0.41600000000000004 0.269 -0.359 Q 0.26 -0.34900000000000003 0.252 -0.32 Q 0.249 -0.306 0.2415 -0.2765 Q 0.234 -0.247 0.23 -0.228 Q 0.20800000000000002 -0.14400000000000002 0.20800000000000002 -0.107 Q 0.20800000000000002 -0.028 0.27 -0.028 Z"/></g><g transform="translate(8.936462605815787,4.858925373134329) scale(0.7,0.7)"><path fill="rgb(0,0,0)" stroke="none" paint-order="stroke fill markers" d=" M 0.203 -0.10200000000000001 Q 0.257 -0.10200000000000001 0.319 -0.095 Q 0.396 -0.088 0.424 -0.088 Q 0.47000000000000003 -0.088 0.5015000000000001 -0.111 Q 0.533 -0.134 0.544 -0.167 Q 0.548 -0.178 0.552 -0.1805 Q 0.556 -0.183 0.5730000000000001 -0.183 Q 0.601 -0.183 0.601 -0.168 Q 0.601 -0.159 0.5935 -0.1385 Q 0.586 -0.11800000000000001 0.5700000000000001 -0.091 Q 0.554 -0.064 0.5325 -0.04 Q 0.511 -0.016 0.47900000000000004 0.0005 Q 0.447 0.017 0.41100000000000003 0.017 Q 0.367 0.017 0.3 -0.025 Q 0.23800000000000002 -0.066 0.202 -0.066 Q 0.167 -0.066 0.147 0.003 Q 0.14400000000000002 0.013000000000000001 0.1395 0.015 Q 0.135 0.017 0.11800000000000001 0.017 Q 0.091 0.017 0.091 0.003 Q 0.091 -0.006 0.1005 -0.031 Q 0.11 -0.056 0.1315 -0.0945 Q 0.153 -0.133 0.199 -0.1765 Q 0.245 -0.22 0.306 -0.252 Q 0.40900000000000003 -0.305 0.46 -0.373 Q 0.48 -0.4 0.492 -0.4425 Q 0.504 -0.485 0.5065000000000001 -0.5075000000000001 Q 0.509 -0.53 0.509 -0.539 Q 0.509 -0.585 0.484 -0.605 Q 0.459 -0.625 0.425 -0.625 Q 0.34600000000000003 -0.625 0.28500000000000003 -0.5495 Q 0.224 -0.47400000000000003 0.224 -0.41000000000000003 Q 0.224 -0.382 0.243 -0.382 Q 0.281 -0.382 0.3115 -0.426 Q 0.342 -0.47000000000000003 0.342 -0.498 Q 0.342 -0.512 0.331 -0.53 Q 0.326 -0.538 0.326 -0.541 Q 0.326 -0.549 0.334 -0.554 Q 0.339 -0.561 0.34700000000000003 -0.561 Q 0.358 -0.561 0.368 -0.5405 Q 0.378 -0.52 0.378 -0.5 Q 0.378 -0.457 0.337 -0.4015 Q 0.296 -0.34600000000000003 0.23900000000000002 -0.34600000000000003 Q 0.20800000000000002 -0.34600000000000003 0.189 -0.367 Q 0.17 -0.388 0.17 -0.421 Q 0.17 -0.452 0.189 -0.492 Q 0.20800000000000002 -0.532 0.2405 -0.5705 Q 0.273 -0.609 0.3235 -0.635 Q 0.374 -0.661 0.43 -0.661 Q 0.512 -0.661 0.5650000000000001 -0.6185 Q 0.618 -0.5760000000000001 0.618 -0.496 Q 0.618 -0.41200000000000003 0.562 -0.353 Q 0.506 -0.294 0.352 -0.216 Q 0.256 -0.168 0.203 -0.10200000000000001 Z"/></g><g transform="translate(9.664784828038009,4.708925373134329)"><path fill="rgb(0,0,0)" stroke="none" paint-order="stroke fill markers" d=" M 0.53 -0.22 L 0.457 0.07200000000000001 Q 0.45 0.10200000000000001 0.426 0.10200000000000001 Q 0.41300000000000003 0.10200000000000001 0.404 0.093 Q 0.395 0.084 0.395 0.07100000000000001 Q 0.395 0.066 0.398 0.056 L 0.467 -0.22 L 0.196 -0.22 Q 0.153 -0.22 0.153 -0.251 Q 0.153 -0.281 0.196 -0.281 L 0.482 -0.281 L 0.555 -0.5720000000000001 Q 0.562 -0.603 0.587 -0.603 Q 0.598 -0.603 0.6075 -0.595 Q 0.617 -0.587 0.617 -0.5720000000000001 Q 0.617 -0.5660000000000001 0.613 -0.552 L 0.545 -0.281 L 0.8160000000000001 -0.281 Q 0.859 -0.281 0.859 -0.25 Q 0.859 -0.22 0.8160000000000001 -0.22 L 0.53 -0.22 Z"/></g><g transform="translate(10.80600705026023,4.708925373134329)"><path fill="rgb(0,0,0)" stroke="none" paint-order="stroke fill markers" d=" M 0.272 -0.088 Q 0.272 -0.053 0.244 -0.0265 Q 0.216 0 0.182 0 Q 0.158 0 0.14 -0.015 Q 0.122 -0.03 0.122 -0.059000000000000004 Q 0.122 -0.095 0.1505 -0.121 Q 0.179 -0.147 0.211 -0.147 Q 0.23800000000000002 -0.147 0.255 -0.1305 Q 0.272 -0.114 0.272 -0.088 Z"/></g><g transform="translate(11.16200705026023,4.708925373134329)"><path fill="rgb(0,0,0)" stroke="none" paint-order="stroke fill markers" d=" M 0.272 -0.088 Q 0.272 -0.053 0.244 -0.0265 Q 0.216 0 0.182 0 Q 0.158 0 0.14 -0.015 Q 0.122 -0.03 0.122 -0.059000000000000004 Q 0.122 -0.095 0.1505 -0.121 Q 0.179 -0.147 0.211 -0.147 Q 0.23800000000000002 -0.147 0.255 -0.1305 Q 0.272 -0.114 0.272 -0.088 Z"/></g><g transform="translate(11.51800705026023,4.708925373134329)"><path fill="rgb(0,0,0)" stroke="none" paint-order="stroke fill markers" d=" M 0.272 -0.088 Q 0.272 -0.053 0.244 -0.0265 Q 0.216 0 0.182 0 Q 0.158 0 0.14 -0.015 Q 0.122 -0.03 0.122 -0.059000000000000004 Q 0.122 -0.095 0.1505 -0.121 Q 0.179 -0.147 0.211 -0.147 Q 0.23800000000000002 -0.147 0.255 -0.1305 Q 0.272 -0.114 0.272 -0.088 Z"/></g><g transform="translate(12.096229272482452,4.708925373134329)"><path fill="rgb(0,0,0)" stroke="none" paint-order="stroke fill markers" d=" M 0.53 -0.22 L 0.457 0.07200000000000001 Q 0.45 0.10200000000000001 0.426 0.10200000000000001 Q 0.41300000000000003 0.10200000000000001 0.404 0.093 Q 0.395 0.084 0.395 0.07100000000000001 Q 0.395 0.066 0.398 0.056 L 0.467 -0.22 L 0.196 -0.22 Q 0.153 -0.22 0.153 -0.251 Q 0.153 -0.281 0.196 -0.281 L 0.482 -0.281 L 0.555 -0.5720000000000001 Q 0.562 -0.603 0.587 -0.603 Q 0.598 -0.603 0.6075 -0.595 Q 0.617 -0.587 0.617 -0.5720000000000001 Q 0.617 -0.5660000000000001 0.613 -0.552 L 0.545 -0.281 L 0.8160000000000001 -0.281 Q 0.859 -0.281 0.859 -0.25 Q 0.859 -0.22 0.8160000000000001 -0.22 L 0.53 -0.22 Z"/></g><g transform="translate(13.237451494704674,4.708925373134329)"><path fill="rgb(0,0,0)" stroke="none" paint-order="stroke fill markers" d=" M 0.338 -0.66 L 0.279 -0.424 Q 0.324 -0.452 0.377 -0.452 Q 0.443 -0.452 0.49 -0.41300000000000003 Q 0.537 -0.374 0.537 -0.292 Q 0.537 -0.223 0.5065000000000001 -0.1555 Q 0.47600000000000003 -0.088 0.41250000000000003 -0.04 Q 0.34900000000000003 0.008 0.268 0.008 Q 0.20400000000000001 0.008 0.158 -0.029500000000000002 Q 0.112 -0.067 0.112 -0.15 Q 0.112 -0.186 0.121 -0.222 L 0.224 -0.637 Q 0.2 -0.639 0.182 -0.639 Q 0.155 -0.639 0.155 -0.657 Q 0.155 -0.667 0.1575 -0.6735 Q 0.16 -0.68 0.1665 -0.6825 Q 0.17300000000000001 -0.685 0.176 -0.6855 Q 0.179 -0.686 0.186 -0.687 L 0.309 -0.6930000000000001 Q 0.341 -0.6950000000000001 0.341 -0.676 Q 0.341 -0.675 0.338 -0.66 M 0.27 -0.028 Q 0.28500000000000003 -0.028 0.301 -0.0335 Q 0.317 -0.039 0.3425 -0.066 Q 0.368 -0.093 0.384 -0.14 Q 0.395 -0.169 0.41250000000000003 -0.23900000000000002 Q 0.43 -0.309 0.43 -0.34500000000000003 Q 0.43 -0.383 0.41250000000000003 -0.3995 Q 0.395 -0.41600000000000004 0.373 -0.41600000000000004 Q 0.315 -0.41600000000000004 0.269 -0.359 Q 0.26 -0.34900000000000003 0.252 -0.32 Q 0.249 -0.306 0.2415 -0.2765 Q 0.234 -0.247 0.23 -0.228 Q 0.20800000000000002 -0.14400000000000002 0.20800000000000002 -0.107 Q 0.20800000000000002 -0.028 0.27 -0.028 Z"/></g><g transform="translate(13.769451494704674,4.858925373134329) scale(0.7,0.7)"><path fill="rgb(0,0,0)" stroke="none" paint-order="stroke fill markers" d=" M 0.305 -0.294 L 0.243 -0.046 Q 0.23800000000000002 -0.028 0.229 -0.016 Q 0.22 -0.004 0.209 0.0005 Q 0.198 0.005 0.1915 0.006500000000000001 Q 0.185 0.008 0.18 0.008 Q 0.162 0.008 0.1485 -0.003 Q 0.135 -0.014 0.135 -0.035 Q 0.135 -0.042 0.139 -0.057 L 0.21 -0.342 Q 0.216 -0.366 0.216 -0.385 Q 0.216 -0.41600000000000004 0.197 -0.41600000000000004 Q 0.163 -0.41600000000000004 0.137 -0.308 Q 0.132 -0.289 0.1275 -0.28550000000000003 Q 0.123 -0.28200000000000003 0.105 -0.28200000000000003 Q 0.077 -0.28200000000000003 0.077 -0.296 Q 0.077 -0.303 0.088 -0.337 Q 0.099 -0.371 0.116 -0.398 Q 0.151 -0.452 0.201 -0.452 Q 0.221 -0.452 0.2405 -0.447 Q 0.26 -0.442 0.28200000000000003 -0.4255 Q 0.304 -0.40900000000000003 0.313 -0.383 Q 0.379 -0.452 0.466 -0.452 Q 0.604 -0.452 0.604 -0.339 Q 0.604 -0.28300000000000003 0.545 -0.127 Q 0.522 -0.067 0.522 -0.046 Q 0.522 -0.028 0.536 -0.028 Q 0.591 -0.028 0.628 -0.149 Q 0.631 -0.158 0.6355000000000001 -0.16 Q 0.64 -0.162 0.656 -0.162 Q 0.684 -0.162 0.684 -0.148 Q 0.684 -0.138 0.674 -0.1145 Q 0.664 -0.091 0.647 -0.0625 Q 0.63 -0.034 0.5985 -0.013000000000000001 Q 0.5670000000000001 0.008 0.531 0.008 Q 0.488 0.008 0.457 -0.0165 Q 0.426 -0.041 0.426 -0.081 Q 0.426 -0.098 0.438 -0.131 Q 0.502 -0.291 0.502 -0.359 Q 0.502 -0.41600000000000004 0.459 -0.41600000000000004 Q 0.418 -0.41600000000000004 0.3815 -0.3905 Q 0.34500000000000003 -0.365 0.327 -0.3385 Q 0.309 -0.312 0.305 -0.294 Z"/></g><rect fill="rgb(0,0,0)" stroke="none" x="6.002918161371343" y="5.115433873134329" width="8.287333333333335" height="0.039999"/><g transform="translate(9.77458482803801,6.071384373134329)"><path fill="rgb(0,0,0)" stroke="none" paint-order="stroke fill markers" d=" M 0.305 -0.294 L 0.243 -0.046 Q 0.23800000000000002 -0.028 0.229 -0.016 Q 0.22 -0.004 0.209 0.0005 Q 0.198 0.005 0.1915 0.006500000000000001 Q 0.185 0.008 0.18 0.008 Q 0.162 0.008 0.1485 -0.003 Q 0.135 -0.014 0.135 -0.035 Q 0.135 -0.042 0.139 -0.057 L 0.21 -0.342 Q 0.216 -0.366 0.216 -0.385 Q 0.216 -0.41600000000000004 0.197 -0.41600000000000004 Q 0.163 -0.41600000000000004 0.137 -0.308 Q 0.132 -0.289 0.1275 -0.28550000000000003 Q 0.123 -0.28200000000000003 0.105 -0.28200000000000003 Q 0.077 -0.28200000000000003 0.077 -0.296 Q 0.077 -0.303 0.088 -0.337 Q 0.099 -0.371 0.116 -0.398 Q 0.151 -0.452 0.201 -0.452 Q 0.221 -0.452 0.2405 -0.447 Q 0.26 -0.442 0.28200000000000003 -0.4255 Q 0.304 -0.40900000000000003 0.313 -0.383 Q 0.379 -0.452 0.466 -0.452 Q 0.604 -0.452 0.604 -0.339 Q 0.604 -0.28300000000000003 0.545 -0.127 Q 0.522 -0.067 0.522 -0.046 Q 0.522 -0.028 0.536 -0.028 Q 0.591 -0.028 0.628 -0.149 Q 0.631 -0.158 0.6355000000000001 -0.16 Q 0.64 -0.162 0.656 -0.162 Q 0.684 -0.162 0.684 -0.148 Q 0.684 -0.138 0.674 -0.1145 Q 0.664 -0.091 0.647 -0.0625 Q 0.63 -0.034 0.5985 -0.013000000000000001 Q 0.5670000000000001 0.008 0.531 0.008 Q 0.488 0.008 0.457 -0.0165 Q 0.426 -0.041 0.426 -0.081 Q 0.426 -0.098 0.438 -0.131 Q 0.502 -0.291 0.502 -0.359 Q 0.502 -0.41600000000000004 0.459 -0.41600000000000004 Q 0.418 -0.41600000000000004 0.3815 -0.3905 Q 0.34500000000000003 -0.365 0.327 -0.3385 Q 0.309 -0.312 0.305 -0.294 Z"/></g></g></g></g></svg>