<svg version="1.1" xmlns="http://www.w3.org/2000/svg" xmlns:xlink="http://www.w3.org/1999/xlink" width="1358" height="662"><defs><clipPath id="evCJbThBxlXa"><path fill="none" stroke="none" d=" M 0 0 L 1358 0 L 1358 662 L 0 662 L 0 0 Z"/></clipPath></defs><g transform="scale(1,1)" clip-path="url(#evCJbThBxlXa)"><g><rect fill="rgb(255,255,255)" stroke="none" x="0" y="0" width="1358" height="662" fill-opacity="0"/><path fill="none" stroke="rgb(0,0,0)" paint-order="fill stroke markers" d=" M 170 3 L 170 586" stroke-opacity="1" stroke-miterlimit="10" stroke-width="2"/><path fill="none" stroke="rgb(0,0,0)" paint-order="fill stroke markers" d=" M 170 2 L 165 7" stroke-opacity="1" stroke-miterlimit="10" stroke-width="2"/><path fill="none" stroke="rgb(0,0,0)" paint-order="fill stroke markers" d=" M 170 2 L 175 7" stroke-opacity="1" stroke-miterlimit="10" stroke-width="2"/><path fill="none" stroke="rgb(0,0,0)" paint-order="fill stroke markers" d=" M 170 587 L 1355 587" stroke-opacity="1" stroke-miterlimit="10" stroke-width="2"/><path fill="none" stroke="rgb(0,0,0)" paint-order="fill stroke markers" d=" M 1356 587 L 1351 582" stroke-opacity="1" stroke-miterlimit="10" stroke-width="2"/><path fill="none" stroke="rgb(0,0,0)" paint-order="fill stroke markers" d=" M 1356 587 L 1351 592" stroke-opacity="1" stroke-miterlimit="10" stroke-width="2"/><path fill="none" stroke="rgb(0,0,0)" paint-order="fill stroke markers" d=" M 170 587 L 170 590" stroke-opacity="1" stroke-miterlimit="10" stroke-width="2"/><path fill="none" stroke="rgb(0,0,0)" paint-order="fill stroke markers" d=" M 223 587 L 223 590" stroke-opacity="1" stroke-miterlimit="10" stroke-width="2"/><path fill="none" stroke="rgb(0,0,0)" paint-order="fill stroke markers" d=" M 276 587 L 276 590" stroke-opacity="1" stroke-miterlimit="10" stroke-width="2"/><path fill="none" stroke="rgb(0,0,0)" paint-order="fill stroke markers" d=" M 328 587 L 328 590" stroke-opacity="1" stroke-miterlimit="10" stroke-width="2"/><path fill="none" stroke="rgb(0,0,0)" paint-order="fill stroke markers" d=" M 381 587 L 381 590" stroke-opacity="1" stroke-miterlimit="10" stroke-width="2"/><path fill="none" stroke="rgb(0,0,0)" paint-order="fill stroke markers" d=" M 433 587 L 433 590" stroke-opacity="1" stroke-miterlimit="10" stroke-width="2"/><path fill="none" stroke="rgb(0,0,0)" paint-order="fill stroke markers" d=" M 486 587 L 486 590" stroke-opacity="1" stroke-miterlimit="10" stroke-width="2"/><path fill="none" stroke="rgb(0,0,0)" paint-order="fill stroke markers" d=" M 539 587 L 539 590" stroke-opacity="1" stroke-miterlimit="10" stroke-width="2"/><path fill="none" stroke="rgb(0,0,0)" paint-order="fill stroke markers" d=" M 591 587 L 591 590" stroke-opacity="1" stroke-miterlimit="10" stroke-width="2"/><path fill="none" stroke="rgb(0,0,0)" paint-order="fill stroke markers" d=" M 644 587 L 644 590" stroke-opacity="1" stroke-miterlimit="10" stroke-width="2"/><path fill="none" stroke="rgb(0,0,0)" paint-order="fill stroke markers" d=" M 696 587 L 696 590" stroke-opacity="1" stroke-miterlimit="10" stroke-width="2"/><path fill="none" stroke="rgb(0,0,0)" paint-order="fill stroke markers" d=" M 749 587 L 749 590" stroke-opacity="1" stroke-miterlimit="10" stroke-width="2"/><path fill="none" stroke="rgb(0,0,0)" paint-order="fill stroke markers" d=" M 802 587 L 802 590" stroke-opacity="1" stroke-miterlimit="10" stroke-width="2"/><path fill="none" stroke="rgb(0,0,0)" paint-order="fill stroke markers" d=" M 854 587 L 854 590" stroke-opacity="1" stroke-miterlimit="10" stroke-width="2"/><path fill="none" stroke="rgb(0,0,0)" paint-order="fill stroke markers" d=" M 907 587 L 907 590" stroke-opacity="1" stroke-miterlimit="10" stroke-width="2"/><path fill="none" stroke="rgb(0,0,0)" paint-order="fill stroke markers" d=" M 959 587 L 959 590" stroke-opacity="1" stroke-miterlimit="10" stroke-width="2"/><path fill="none" stroke="rgb(0,0,0)" paint-order="fill stroke markers" d=" M 1012 587 L 1012 590" stroke-opacity="1" stroke-miterlimit="10" stroke-width="2"/><path fill="none" stroke="rgb(0,0,0)" paint-order="fill stroke markers" d=" M 1064 587 L 1064 590" stroke-opacity="1" stroke-miterlimit="10" stroke-width="2"/><path fill="none" stroke="rgb(0,0,0)" paint-order="fill stroke markers" d=" M 1117 587 L 1117 590" stroke-opacity="1" stroke-miterlimit="10" stroke-width="2"/><path fill="none" stroke="rgb(0,0,0)" paint-order="fill stroke markers" d=" M 1170 587 L 1170 590" stroke-opacity="1" stroke-miterlimit="10" stroke-width="2"/><path fill="none" stroke="rgb(0,0,0)" paint-order="fill stroke markers" d=" M 1222 587 L 1222 590" stroke-opacity="1" stroke-miterlimit="10" stroke-width="2"/><path fill="none" stroke="rgb(0,0,0)" paint-order="fill stroke markers" d=" M 1275 587 L 1275 590" stroke-opacity="1" stroke-miterlimit="10" stroke-width="2"/><path fill="none" stroke="rgb(0,0,0)" paint-order="fill stroke markers" d=" M 1327 587 L 1327 590" stroke-opacity="1" stroke-miterlimit="10" stroke-width="2"/><path fill="none" stroke="rgb(0,0,0)" paint-order="fill stroke markers" d=" M 167 534 L 170 534" stroke-opacity="1" stroke-miterlimit="10" stroke-width="2"/><path fill="none" stroke="rgb(0,0,0)" paint-order="fill stroke markers" d=" M 167 482 L 170 482" stroke-opacity="1" stroke-miterlimit="10" stroke-width="2"/><path fill="none" stroke="rgb(0,0,0)" paint-order="fill stroke markers" d=" M 167 429 L 170 429" stroke-opacity="1" stroke-miterlimit="10" stroke-width="2"/><path fill="none" stroke="rgb(0,0,0)" paint-order="fill stroke markers" d=" M 167 376 L 170 376" stroke-opacity="1" stroke-miterlimit="10" stroke-width="2"/><path fill="none" stroke="rgb(0,0,0)" paint-order="fill stroke markers" d=" M 167 324 L 170 324" stroke-opacity="1" stroke-miterlimit="10" stroke-width="2"/><path fill="none" stroke="rgb(0,0,0)" paint-order="fill stroke markers" d=" M 167 271 L 170 271" stroke-opacity="1" stroke-miterlimit="10" stroke-width="2"/><path fill="none" stroke="rgb(0,0,0)" paint-order="fill stroke markers" d=" M 167 219 L 170 219" stroke-opacity="1" stroke-miterlimit="10" stroke-width="2"/><path fill="none" stroke="rgb(0,0,0)" paint-order="fill stroke markers" d=" M 167 166 L 170 166" stroke-opacity="1" stroke-miterlimit="10" stroke-width="2"/><path fill="none" stroke="rgb(0,0,0)" paint-order="fill stroke markers" d=" M 167 113 L 170 113" stroke-opacity="1" stroke-miterlimit="10" stroke-width="2"/><path fill="none" stroke="rgb(0,0,0)" paint-order="fill stroke markers" d=" M 167 61 L 170 61" stroke-opacity="1" stroke-miterlimit="10" stroke-width="2"/><path fill="none" stroke="rgb(244,0,153)" paint-order="fill stroke markers" d=" M 380.78788097209883 586.7174087963599 L 380.78788097209883 481.53843152363265" stroke-opacity="0.6980392156862745" stroke-linecap="round" stroke-linejoin="round" stroke-miterlimit="10" stroke-width="6.5"/><path fill="none" stroke="rgb(0,0,0)" paint-order="fill stroke markers" d=" M 1011.8617446084627 586.7174087963599 L 1011.8617446084627 376.35945425090546" stroke-opacity="0.6980392156862745" stroke-linecap="round" stroke-linejoin="round" stroke-miterlimit="10" stroke-width="6.5"/><path fill="none" stroke="rgb(153,51,255)" paint-order="fill stroke markers" d=" M 591.1458355175535 586.7174087963599 L 591.1458355175535 271.18047697817826" stroke-opacity="0.6980392156862745" stroke-linecap="round" stroke-linejoin="round" stroke-miterlimit="10" stroke-width="6.5"/><path fill="none" stroke="rgb(0,0,0)" paint-order="fill stroke markers" d=" M 591.1458355175535 271.18047697817826 L 170.42992642664416 271.18047697817826" stroke-opacity="0.6980392156862745" stroke-linejoin="round" stroke-miterlimit="10" stroke-width="2.5" stroke-dasharray="6.5,4"/><path fill="none" stroke="rgb(0,0,0)" paint-order="fill stroke markers" d=" M 1011.8617446084627 376.35945425090546 L 170.42992642664416 376.35945425090546" stroke-opacity="0.6980392156862745" stroke-linejoin="round" stroke-miterlimit="10" stroke-width="2.5" stroke-dasharray="6.5,4"/><path fill="none" stroke="rgb(0,0,0)" paint-order="fill stroke markers" d=" M 380.78788097209883 481.53843152363265 L 170.42992642664416 481.53843152363265" stroke-opacity="0.6980392156862745" stroke-linejoin="round" stroke-miterlimit="10" stroke-width="2.5" stroke-dasharray="6.5,4"/><path fill="none" stroke="rgb(153,51,0)" paint-order="fill stroke markers" d=" M 801.5037900630082 586.7174087963599 L 801.5037900630082 376.35945425090546" stroke-opacity="0.6980392156862745" stroke-linecap="round" stroke-linejoin="round" stroke-miterlimit="10" stroke-width="6.5"/><path fill="rgb(255,85,0)" stroke="none" paint-order="stroke fill markers" d=" M 596.1458355175535 586.7174087963599 C 596.1458355175535 589.4788325455139 593.9072592667075 591.7174087963599 591.1458355175535 591.7174087963599 C 588.3844117683994 591.7174087963599 586.1458355175535 589.4788325455139 586.1458355175535 586.7174087963599 C 586.1458355175535 583.9559850472059 588.3844117683994 581.7174087963599 591.1458355175535 581.7174087963599 C 593.9072592667075 581.7174087963599 596.1458355175535 583.9559850472059 596.1458355175535 586.7174087963599 Z" fill-opacity="1"/><path fill="rgb(255,85,0)" stroke="none" paint-order="stroke fill markers" d=" M 806.5037900630082 586.7174087963599 C 806.5037900630082 589.4788325455139 804.2652138121622 591.7174087963599 801.5037900630082 591.7174087963599 C 798.7423663138542 591.7174087963599 796.5037900630082 589.4788325455139 796.5037900630082 586.7174087963599 C 796.5037900630082 583.9559850472059 798.7423663138542 581.7174087963599 801.5037900630082 581.7174087963599 C 804.2652138121622 581.7174087963599 806.5037900630082 583.9559850472059 806.5037900630082 586.7174087963599 Z" fill-opacity="1"/><path fill="rgb(255,85,0)" stroke="none" paint-order="stroke fill markers" d=" M 1016.8617446084627 586.7174087963599 C 1016.8617446084627 589.4788325455139 1014.6231683576167 591.7174087963599 1011.8617446084627 591.7174087963599 C 1009.1003208593087 591.7174087963599 1006.8617446084627 589.4788325455139 1006.8617446084627 586.7174087963599 C 1006.8617446084627 583.9559850472059 1009.1003208593087 581.7174087963599 1011.8617446084627 581.7174087963599 C 1014.6231683576167 581.7174087963599 1016.8617446084627 583.9559850472059 1016.8617446084627 586.7174087963599 Z" fill-opacity="1"/><path fill="rgb(255,85,0)" stroke="none" paint-order="stroke fill markers" d=" M 175.42992642664416 481.53843152363265 C 175.42992642664416 484.2998552727866 173.19135017579814 486.53843152363265 170.42992642664416 486.53843152363265 C 167.66850267749018 486.53843152363265 165.42992642664416 484.2998552727866 165.42992642664416 481.53843152363265 C 165.42992642664416 478.7770077744787 167.66850267749018 476.53843152363265 170.42992642664416 476.53843152363265 C 173.19135017579814 476.53843152363265 175.42992642664416 478.7770077744787 175.42992642664416 481.53843152363265 Z" fill-opacity="1"/><path fill="rgb(255,85,0)" stroke="none" paint-order="stroke fill markers" d=" M 175.42992642664416 376.35945425090546 C 175.42992642664416 379.1208780000594 173.19135017579814 381.35945425090546 170.42992642664416 381.35945425090546 C 167.66850267749018 381.35945425090546 165.42992642664416 379.1208780000594 165.42992642664416 376.35945425090546 C 165.42992642664416 373.5980305017515 167.66850267749018 371.35945425090546 170.42992642664416 371.35945425090546 C 173.19135017579814 371.35945425090546 175.42992642664416 373.5980305017515 175.42992642664416 376.35945425090546 Z" fill-opacity="1"/><path fill="rgb(255,85,0)" stroke="none" paint-order="stroke fill markers" d=" M 175.42992642664416 271.18047697817826 C 175.42992642664416 273.9419007273322 173.19135017579814 276.18047697817826 170.42992642664416 276.18047697817826 C 167.66850267749018 276.18047697817826 165.42992642664416 273.9419007273322 165.42992642664416 271.18047697817826 C 165.42992642664416 268.4190532290243 167.66850267749018 266.18047697817826 170.42992642664416 266.18047697817826 C 173.19135017579814 266.18047697817826 175.42992642664416 268.4190532290243 175.42992642664416 271.18047697817826 Z" fill-opacity="1"/><path fill="rgb(255,85,0)" stroke="none" paint-order="stroke fill markers" d=" M 385.78788097209883 586.7174087963599 C 385.78788097209883 589.4788325455139 383.5493047212528 591.7174087963599 380.78788097209883 591.7174087963599 C 378.0264572229449 591.7174087963599 375.78788097209883 589.4788325455139 375.78788097209883 586.7174087963599 C 375.78788097209883 583.9559850472059 378.0264572229449 581.7174087963599 380.78788097209883 581.7174087963599 C 383.5493047212528 581.7174087963599 385.78788097209883 583.9559850472059 385.78788097209883 586.7174087963599 Z" fill-opacity="1"/><text fill="rgb(0,0,0)" stroke="none" font-family="geogebra-sans-serif, sans-serif" font-size="15px" font-style="normal" font-weight="bold" text-decoration="normal" x="121" y="489" text-anchor="start" dominant-baseline="alphabetic" fill-opacity="1">1</text><text fill="rgb(0,0,0)" stroke="none" font-family="geogebra-sans-serif, sans-serif" font-size="15px" font-style="normal" font-weight="bold" text-decoration="normal" x="120" y="386" text-anchor="start" dominant-baseline="alphabetic" fill-opacity="1">2</text><text fill="rgb(0,0,0)" stroke="none" font-family="geogebra-sans-serif, sans-serif" font-size="15px" font-style="normal" font-weight="bold" text-decoration="normal" x="126" y="281" text-anchor="start" dominant-baseline="alphabetic" fill-opacity="1">3</text><text fill="rgb(0,0,0)" stroke="none" font-family="geogebra-sans-serif, sans-serif" font-size="15px" font-style="normal" font-weight="bold" text-decoration="normal" x="990" y="630" text-anchor="start" dominant-baseline="alphabetic" fill-opacity="1">20</text><text fill="rgb(0,0,0)" stroke="none" font-family="geogebra-sans-serif, sans-serif" font-size="15px" font-style="normal" font-weight="bold" text-decoration="normal" x="783" y="632" text-anchor="start" dominant-baseline="alphabetic" fill-opacity="1">15</text><text fill="rgb(0,0,0)" stroke="none" font-family="geogebra-sans-serif, sans-serif" font-size="15px" font-style="normal" font-weight="bold" text-decoration="normal" x="573" y="634" text-anchor="start" dominant-baseline="alphabetic" fill-opacity="1">10</text><text fill="rgb(0,0,0)" stroke="none" font-family="geogebra-sans-serif, sans-serif" font-size="15px" font-style="normal" font-weight="bold" text-decoration="normal" x="365" y="630" text-anchor="start" dominant-baseline="alphabetic" fill-opacity="1">05</text><text fill="rgb(0,0,0)" stroke="none" font-family="geogebra-sans-serif, sans-serif" font-size="15px" font-style="normal" font-weight="bold" text-decoration="normal" x="24" y="119" text-anchor="start" dominant-baseline="alphabetic" fill-opacity="1">Effectifs</text><text fill="rgb(0,0,0)" stroke="none" font-family="geogebra-sans-serif, sans-serif" font-size="15px" font-style="normal" font-weight="bold" text-decoration="normal" x="1188" y="640" text-anchor="start" dominant-baseline="alphabetic" fill-opacity="1">Élèves&#160;</text></g></g></svg>