<svg version="1.1" xmlns="http://www.w3.org/2000/svg" xmlns:xlink="http://www.w3.org/1999/xlink" width="1358" height="662"><defs><clipPath id="zRGuOLCkpcte"><path fill="none" stroke="none" d=" M 0 0 L 1358 0 L 1358 662 L 0 662 L 0 0 Z"/></clipPath></defs><g transform="scale(1,1)" clip-path="url(#zRGuOLCkpcte)"><g><rect fill="rgb(255,255,255)" stroke="none" x="0" y="0" width="1358" height="662" fill-opacity="0"/><path fill="none" stroke="rgb(255,85,0)" paint-order="fill stroke markers" d=" M 714.1691241694789 169.00000000000006 C 714.1691241694789 203.33505918913986 686.3350591891405 231.16912416947827 652.0000000000007 231.16912416947827 C 617.6649408108609 231.16912416947827 589.8308758305225 203.33505918913986 589.8308758305225 169.00000000000006 C 589.8308758305225 134.66494081086026 617.6649408108609 106.83087583052185 652.0000000000007 106.83087583052185 C 686.3350591891405 106.83087583052185 714.1691241694789 134.66494081086026 714.1691241694789 169.00000000000006 Z" stroke-opacity="0.6980392156862745" stroke-linecap="round" stroke-linejoin="round" stroke-miterlimit="10" stroke-width="5"/><path fill="none" stroke="rgb(255,85,0)" paint-order="fill stroke markers" d=" M 114.00000000000111 211.99999999999997 C 113.72385762508569 332.39807546311283 211.10192453688805 430.2238576250844 331.50000000000085 430.4999999999998 C 451.89807546311374 430.77614237491514 549.7238576250853 333.39807546311283 550.0000000000007 213.00000000000003" stroke-opacity="0.6980392156862745" stroke-linecap="round" stroke-linejoin="round" stroke-miterlimit="10" stroke-width="2.5"/><path fill="none" stroke="rgb(255,85,0)" paint-order="fill stroke markers" d=" M 750.0000000000005 203.00000000000006 C 747.7908610006773 337.7574789587134 855.2425210412868 448.7908610006765 990.0000000000001 450.9999999999997 C 1124.7574789587136 453.20913899932293 1235.7908610006766 345.7574789587135 1238 211.00000000000009" stroke-opacity="0.6980392156862745" stroke-linecap="round" stroke-linejoin="round" stroke-miterlimit="10" stroke-width="2.5"/><path fill="none" stroke="rgb(255,85,0)" paint-order="fill stroke markers" d=" M 651.0000000000007 317.00000000000006 L 651.635168445481 269.9975350344588" stroke-opacity="0.6980392156862745" stroke-linecap="round" stroke-linejoin="round" stroke-miterlimit="10" stroke-width="4.5"/><path fill="rgb(255,85,0)" stroke="none" paint-order="stroke fill markers" fill-rule="evenodd" d=" M 652.0000000000007 243.00000000000006 L 658.3845522040957 270.0887429230887 L 644.8857846868663 269.90632714582887 Z" fill-opacity="0.6980392156862745"/><path fill="none" stroke="rgb(255,85,0)" paint-order="fill stroke markers" d=" M 550.0000000000007 206 L 556.0621778264917 216.5 L 543.9378221735096 216.5 L 550.0000000000007 206 Z" stroke-opacity="1" stroke-linecap="square" stroke-miterlimit="10" stroke-width="3.5"/><path fill="rgb(255,85,0)" stroke="none" paint-order="stroke fill markers" fill-rule="evenodd" d=" M 550.0000000000007 206 L 556.0621778264917 216.5 L 543.9378221735096 216.5 L 550.0000000000007 206 Z" fill-opacity="1"/><path fill="none" stroke="rgb(255,85,0)" paint-order="fill stroke markers" d=" M 114.00000000000114 205 L 120.0621778264922 215.5 L 107.93782217351007 215.5 L 114.00000000000114 205 Z" stroke-opacity="1" stroke-linecap="square" stroke-miterlimit="10" stroke-width="3.5"/><path fill="rgb(255,85,0)" stroke="none" paint-order="stroke fill markers" fill-rule="evenodd" d=" M 114.00000000000114 205 L 120.0621778264922 215.5 L 107.93782217351007 215.5 L 114.00000000000114 205 Z" fill-opacity="1"/><path fill="none" stroke="rgb(255,85,0)" paint-order="fill stroke markers" d=" M 1238 204 L 1244.062177826491 214.5 L 1231.937822173509 214.5 L 1238 204 Z" stroke-opacity="1" stroke-linecap="square" stroke-miterlimit="10" stroke-width="3.5"/><path fill="rgb(255,85,0)" stroke="none" paint-order="stroke fill markers" fill-rule="evenodd" d=" M 1238 204 L 1244.062177826491 214.5 L 1231.937822173509 214.5 L 1238 204 Z" fill-opacity="1"/><path fill="none" stroke="rgb(255,85,0)" paint-order="fill stroke markers" d=" M 750.0000000000006 196 L 756.0621778264916 206.5 L 743.9378221735095 206.5 L 750.0000000000006 196 Z" stroke-opacity="1" stroke-linecap="square" stroke-miterlimit="10" stroke-width="3.5"/><path fill="rgb(255,85,0)" stroke="none" paint-order="stroke fill markers" fill-rule="evenodd" d=" M 750.0000000000006 196 L 756.0621778264916 206.5 L 743.9378221735095 206.5 L 750.0000000000006 196 Z" fill-opacity="1"/><g transform="scale(67,67)"><g transform="translate(1.6119402985074627,2.8231044776119405)"><path fill="rgb(0,0,0)" stroke="none" paint-order="stroke fill markers" d=" M 0.199 -0.47900000000000004 L 0.34900000000000003 -0.395 Q 0.419 -0.441 0.419 -0.507 Q 0.419 -0.558 0.3835 -0.587 Q 0.34800000000000003 -0.616 0.28500000000000003 -0.616 Q 0.265 -0.616 0.247 -0.6135 Q 0.229 -0.611 0.20600000000000002 -0.604 Q 0.183 -0.597 0.169 -0.5805 Q 0.155 -0.5640000000000001 0.155 -0.539 Q 0.155 -0.504 0.199 -0.47900000000000004 M 0.393 -0.37 Q 0.42 -0.354 0.436 -0.3435 Q 0.452 -0.333 0.47650000000000003 -0.31 Q 0.501 -0.28700000000000003 0.5135 -0.256 Q 0.526 -0.225 0.526 -0.187 Q 0.526 -0.1 0.463 -0.0445 Q 0.4 0.011 0.28500000000000003 0.011 Q 0.181 0.011 0.1145 -0.032 Q 0.048 -0.075 0.048 -0.161 Q 0.048 -0.273 0.176 -0.329 Q 0.08 -0.383 0.08 -0.48 Q 0.08 -0.556 0.1345 -0.6055 Q 0.189 -0.655 0.289 -0.655 Q 0.38 -0.655 0.437 -0.618 Q 0.494 -0.581 0.494 -0.508 Q 0.494 -0.422 0.393 -0.37 M 0.222 -0.302 Q 0.134 -0.252 0.134 -0.161 Q 0.134 -0.10200000000000001 0.17500000000000002 -0.067 Q 0.216 -0.032 0.289 -0.032 Q 0.324 -0.032 0.3545 -0.0385 Q 0.385 -0.045 0.41250000000000003 -0.069 Q 0.44 -0.093 0.44 -0.132 Q 0.44 -0.155 0.4275 -0.17300000000000001 Q 0.41500000000000004 -0.191 0.4015 -0.2005 Q 0.388 -0.21 0.359 -0.226 Q 0.247 -0.289 0.222 -0.302 Z"/></g><g transform="translate(2.519940298507463,2.8231044776119405)"><path fill="rgb(0,0,0)" stroke="none" paint-order="stroke fill markers" d=" M 0.199 -0.47900000000000004 L 0.34900000000000003 -0.395 Q 0.419 -0.441 0.419 -0.507 Q 0.419 -0.558 0.3835 -0.587 Q 0.34800000000000003 -0.616 0.28500000000000003 -0.616 Q 0.265 -0.616 0.247 -0.6135 Q 0.229 -0.611 0.20600000000000002 -0.604 Q 0.183 -0.597 0.169 -0.5805 Q 0.155 -0.5640000000000001 0.155 -0.539 Q 0.155 -0.504 0.199 -0.47900000000000004 M 0.393 -0.37 Q 0.42 -0.354 0.436 -0.3435 Q 0.452 -0.333 0.47650000000000003 -0.31 Q 0.501 -0.28700000000000003 0.5135 -0.256 Q 0.526 -0.225 0.526 -0.187 Q 0.526 -0.1 0.463 -0.0445 Q 0.4 0.011 0.28500000000000003 0.011 Q 0.181 0.011 0.1145 -0.032 Q 0.048 -0.075 0.048 -0.161 Q 0.048 -0.273 0.176 -0.329 Q 0.08 -0.383 0.08 -0.48 Q 0.08 -0.556 0.1345 -0.6055 Q 0.189 -0.655 0.289 -0.655 Q 0.38 -0.655 0.437 -0.618 Q 0.494 -0.581 0.494 -0.508 Q 0.494 -0.422 0.393 -0.37 M 0.222 -0.302 Q 0.134 -0.252 0.134 -0.161 Q 0.134 -0.10200000000000001 0.17500000000000002 -0.067 Q 0.216 -0.032 0.289 -0.032 Q 0.324 -0.032 0.3545 -0.0385 Q 0.385 -0.045 0.41250000000000003 -0.069 Q 0.44 -0.093 0.44 -0.132 Q 0.44 -0.155 0.4275 -0.17300000000000001 Q 0.41500000000000004 -0.191 0.4015 -0.2005 Q 0.388 -0.21 0.359 -0.226 Q 0.247 -0.289 0.222 -0.302 Z"/></g><g transform="translate(3.4279402985074627,2.8231044776119405)"><path fill="rgb(0,0,0)" stroke="none" paint-order="stroke fill markers" d=" M 0.39 -0.304 Q 0.34800000000000003 -0.227 0.27 -0.227 Q 0.17400000000000002 -0.227 0.111 -0.28350000000000003 Q 0.048 -0.34 0.048 -0.44 Q 0.048 -0.539 0.1145 -0.597 Q 0.181 -0.655 0.289 -0.655 Q 0.338 -0.655 0.377 -0.64 Q 0.41600000000000004 -0.625 0.44 -0.603 Q 0.464 -0.581 0.4815 -0.547 Q 0.499 -0.513 0.5075000000000001 -0.486 Q 0.516 -0.459 0.5205 -0.4225 Q 0.525 -0.386 0.5255 -0.369 Q 0.526 -0.352 0.526 -0.329 Q 0.526 -0.23700000000000002 0.5 -0.1685 Q 0.47400000000000003 -0.1 0.4305 -0.0625 Q 0.387 -0.025 0.339 -0.007 Q 0.291 0.011 0.23900000000000002 0.011 Q 0.16 0.011 0.11850000000000001 -0.0245 Q 0.077 -0.06 0.077 -0.114 Q 0.077 -0.14300000000000002 0.094 -0.1605 Q 0.111 -0.178 0.14 -0.178 Q 0.168 -0.178 0.185 -0.16 Q 0.202 -0.14200000000000002 0.202 -0.116 Q 0.202 -0.096 0.1915 -0.081 Q 0.181 -0.066 0.1715 -0.061 Q 0.162 -0.056 0.153 -0.054 Q 0.186 -0.032 0.23700000000000002 -0.032 Q 0.28400000000000003 -0.032 0.3175 -0.057 Q 0.35100000000000003 -0.082 0.366 -0.116 Q 0.39 -0.17 0.39 -0.28200000000000003 L 0.39 -0.304 M 0.279 -0.263 Q 0.318 -0.263 0.34450000000000003 -0.2925 Q 0.371 -0.322 0.38 -0.357 Q 0.389 -0.392 0.389 -0.428 Q 0.389 -0.52 0.377 -0.553 Q 0.373 -0.5640000000000001 0.3665 -0.5750000000000001 Q 0.36 -0.586 0.339 -0.601 Q 0.318 -0.616 0.291 -0.616 Q 0.26 -0.616 0.23900000000000002 -0.606 Q 0.218 -0.596 0.20700000000000002 -0.583 Q 0.196 -0.5700000000000001 0.191 -0.542 Q 0.186 -0.514 0.185 -0.495 Q 0.184 -0.47600000000000003 0.184 -0.438 Q 0.184 -0.399 0.1845 -0.3805 Q 0.185 -0.362 0.19 -0.3345 Q 0.195 -0.307 0.20450000000000002 -0.2945 Q 0.214 -0.28200000000000003 0.2325 -0.2725 Q 0.251 -0.263 0.279 -0.263 Z"/></g><g transform="translate(4.335940298507463,2.8231044776119405)"><path fill="rgb(0,0,0)" stroke="none" paint-order="stroke fill markers" d=" M 0.354 -0.623 L 0.354 -0.047 L 0.494 -0.047 L 0.494 0 Q 0.45 -0.003 0.295 -0.003 Q 0.14 -0.003 0.096 0 L 0.096 -0.047 L 0.23500000000000001 -0.047 L 0.23500000000000001 -0.5640000000000001 Q 0.17300000000000001 -0.544 0.105 -0.544 L 0.085 -0.544 L 0.085 -0.591 L 0.105 -0.591 Q 0.229 -0.591 0.306 -0.648 Q 0.315 -0.655 0.328 -0.655 Q 0.34600000000000003 -0.655 0.35000000000000003 -0.6485 Q 0.354 -0.642 0.354 -0.623 Z"/></g><g transform="translate(4.910940298507463,2.8231044776119405)"><path fill="rgb(0,0,0)" stroke="none" paint-order="stroke fill markers" d=" M 0.5285 -0.369 Q 0.5285 -0.369 0.52875 -0.359 Q 0.529 -0.34900000000000003 0.529 -0.319 Q 0.529 -0.289 0.5285 -0.2685 Q 0.528 -0.248 0.523 -0.2105 Q 0.518 -0.17300000000000001 0.5095000000000001 -0.1465 Q 0.501 -0.12 0.483 -0.088 Q 0.465 -0.056 0.44 -0.036000000000000004 Q 0.41500000000000004 -0.016 0.3755 -0.0025 Q 0.336 0.011 0.28700000000000003 0.011 Q 0.23700000000000002 0.011 0.1975 -0.003 Q 0.158 -0.017 0.1335 -0.0365 Q 0.109 -0.056 0.091 -0.0885 Q 0.073 -0.121 0.0645 -0.147 Q 0.056 -0.17300000000000001 0.051000000000000004 -0.211 Q 0.046 -0.249 0.0455 -0.269 Q 0.045 -0.289 0.045 -0.319 Q 0.045 -0.34900000000000003 0.0455 -0.369 Q 0.046 -0.389 0.051000000000000004 -0.4275 Q 0.056 -0.466 0.0645 -0.493 Q 0.073 -0.52 0.091 -0.553 Q 0.109 -0.586 0.1335 -0.6065 Q 0.158 -0.627 0.1975 -0.641 Q 0.23700000000000002 -0.655 0.28700000000000003 -0.655 Q 0.337 -0.655 0.3765 -0.6405 Q 0.41600000000000004 -0.626 0.4405 -0.606 Q 0.465 -0.586 0.483 -0.5525 Q 0.501 -0.519 0.5095000000000001 -0.4925 Q 0.518 -0.466 0.523 -0.4275 Q 0.528 -0.389 0.5285 -0.369 M 0.28700000000000003 -0.025 Q 0.307 -0.025 0.326 -0.0315 Q 0.34500000000000003 -0.038 0.3665 -0.0635 Q 0.388 -0.089 0.394 -0.132 Q 0.401 -0.184 0.401 -0.331 Q 0.401 -0.519 0.384 -0.556 Q 0.371 -0.587 0.34400000000000003 -0.603 Q 0.317 -0.619 0.28700000000000003 -0.619 Q 0.269 -0.619 0.2505 -0.614 Q 0.232 -0.609 0.209 -0.5845 Q 0.186 -0.56 0.181 -0.52 Q 0.17300000000000001 -0.468 0.17300000000000001 -0.331 Q 0.17300000000000001 -0.17200000000000001 0.182 -0.12 Q 0.191 -0.07100000000000001 0.2225 -0.048 Q 0.254 -0.025 0.28700000000000003 -0.025 Z"/></g><g transform="translate(5.818940298507464,2.8231044776119405)"><path fill="rgb(0,0,0)" stroke="none" paint-order="stroke fill markers" d=" M 0.354 -0.623 L 0.354 -0.047 L 0.494 -0.047 L 0.494 0 Q 0.45 -0.003 0.295 -0.003 Q 0.14 -0.003 0.096 0 L 0.096 -0.047 L 0.23500000000000001 -0.047 L 0.23500000000000001 -0.5640000000000001 Q 0.17300000000000001 -0.544 0.105 -0.544 L 0.085 -0.544 L 0.085 -0.591 L 0.105 -0.591 Q 0.229 -0.591 0.306 -0.648 Q 0.315 -0.655 0.328 -0.655 Q 0.34600000000000003 -0.655 0.35000000000000003 -0.6485 Q 0.354 -0.642 0.354 -0.623 Z"/></g><g transform="translate(6.393940298507464,2.8231044776119405)"><path fill="rgb(0,0,0)" stroke="none" paint-order="stroke fill markers" d=" M 0.354 -0.623 L 0.354 -0.047 L 0.494 -0.047 L 0.494 0 Q 0.45 -0.003 0.295 -0.003 Q 0.14 -0.003 0.096 0 L 0.096 -0.047 L 0.23500000000000001 -0.047 L 0.23500000000000001 -0.5640000000000001 Q 0.17300000000000001 -0.544 0.105 -0.544 L 0.085 -0.544 L 0.085 -0.591 L 0.105 -0.591 Q 0.229 -0.591 0.306 -0.648 Q 0.315 -0.655 0.328 -0.655 Q 0.34600000000000003 -0.655 0.35000000000000003 -0.6485 Q 0.354 -0.642 0.354 -0.623 Z"/></g><g transform="translate(7.301940298507464,2.8231044776119405)"><path fill="rgb(0,0,0)" stroke="none" paint-order="stroke fill markers" d=" M 0.354 -0.623 L 0.354 -0.047 L 0.494 -0.047 L 0.494 0 Q 0.45 -0.003 0.295 -0.003 Q 0.14 -0.003 0.096 0 L 0.096 -0.047 L 0.23500000000000001 -0.047 L 0.23500000000000001 -0.5640000000000001 Q 0.17300000000000001 -0.544 0.105 -0.544 L 0.085 -0.544 L 0.085 -0.591 L 0.105 -0.591 Q 0.229 -0.591 0.306 -0.648 Q 0.315 -0.655 0.328 -0.655 Q 0.34600000000000003 -0.655 0.35000000000000003 -0.6485 Q 0.354 -0.642 0.354 -0.623 Z"/></g><g transform="translate(7.876940298507464,2.8231044776119405)"><path fill="rgb(0,0,0)" stroke="none" paint-order="stroke fill markers" d=" M 0.517 -0.222 L 0.486 0 L 0.057 0 L 0.057 -0.018000000000000002 Q 0.057 -0.034 0.059000000000000004 -0.0385 Q 0.061 -0.043000000000000003 0.07 -0.052000000000000005 L 0.271 -0.257 Q 0.379 -0.367 0.379 -0.465 Q 0.379 -0.525 0.34400000000000003 -0.5665 Q 0.309 -0.608 0.247 -0.608 Q 0.186 -0.608 0.14400000000000002 -0.5730000000000001 Q 0.155 -0.5700000000000001 0.166 -0.5645 Q 0.177 -0.559 0.189 -0.542 Q 0.201 -0.525 0.201 -0.501 Q 0.201 -0.466 0.1785 -0.4475 Q 0.156 -0.429 0.129 -0.429 Q 0.10400000000000001 -0.429 0.0805 -0.4465 Q 0.057 -0.464 0.057 -0.503 Q 0.057 -0.5700000000000001 0.11850000000000001 -0.6125 Q 0.18 -0.655 0.272 -0.655 Q 0.379 -0.655 0.448 -0.603 Q 0.517 -0.551 0.517 -0.466 Q 0.517 -0.431 0.507 -0.404 Q 0.497 -0.377 0.46900000000000003 -0.34750000000000003 Q 0.441 -0.318 0.417 -0.299 Q 0.393 -0.28 0.339 -0.24 Q 0.292 -0.20600000000000002 0.195 -0.125 L 0.342 -0.125 Q 0.433 -0.125 0.444 -0.131 Q 0.457 -0.138 0.47000000000000003 -0.222 L 0.517 -0.222 Z"/></g><g transform="translate(9.117940298507465,2.8231044776119405)"><path fill="rgb(0,0,0)" stroke="none" paint-order="stroke fill markers" d=" M 0.354 -0.623 L 0.354 -0.047 L 0.494 -0.047 L 0.494 0 Q 0.45 -0.003 0.295 -0.003 Q 0.14 -0.003 0.096 0 L 0.096 -0.047 L 0.23500000000000001 -0.047 L 0.23500000000000001 -0.5640000000000001 Q 0.17300000000000001 -0.544 0.105 -0.544 L 0.085 -0.544 L 0.085 -0.591 L 0.105 -0.591 Q 0.229 -0.591 0.306 -0.648 Q 0.315 -0.655 0.328 -0.655 Q 0.34600000000000003 -0.655 0.35000000000000003 -0.6485 Q 0.354 -0.642 0.354 -0.623 Z"/></g><g transform="translate(9.692940298507464,2.8231044776119405)"><path fill="rgb(0,0,0)" stroke="none" paint-order="stroke fill markers" d=" M 0.517 -0.201 Q 0.517 -0.108 0.447 -0.0485 Q 0.377 0.011 0.259 0.011 Q 0.17 0.011 0.1135 -0.0405 Q 0.057 -0.092 0.057 -0.159 Q 0.057 -0.187 0.07150000000000001 -0.20400000000000001 Q 0.08600000000000001 -0.221 0.0995 -0.225 Q 0.113 -0.229 0.124 -0.229 Q 0.148 -0.229 0.1695 -0.2125 Q 0.191 -0.196 0.191 -0.161 Q 0.191 -0.131 0.17250000000000001 -0.1135 Q 0.154 -0.096 0.126 -0.094 Q 0.17200000000000001 -0.032 0.255 -0.032 Q 0.28 -0.032 0.2995 -0.038 Q 0.319 -0.044 0.3315 -0.053 Q 0.34400000000000003 -0.062 0.3525 -0.0775 Q 0.361 -0.093 0.3655 -0.1055 Q 0.37 -0.11800000000000001 0.372 -0.139 Q 0.374 -0.16 0.3745 -0.17200000000000001 Q 0.375 -0.184 0.375 -0.20500000000000002 Q 0.375 -0.23700000000000002 0.3745 -0.254 Q 0.374 -0.271 0.3695 -0.2975 Q 0.365 -0.324 0.356 -0.3375 Q 0.34700000000000003 -0.35100000000000003 0.3295 -0.362 Q 0.312 -0.373 0.28600000000000003 -0.373 Q 0.199 -0.373 0.152 -0.317 Q 0.14200000000000002 -0.305 0.13 -0.305 Q 0.12 -0.305 0.115 -0.3095 Q 0.11 -0.314 0.109 -0.3195 Q 0.108 -0.325 0.108 -0.336 L 0.108 -0.628 Q 0.108 -0.638 0.1085 -0.6425 Q 0.109 -0.647 0.112 -0.651 Q 0.115 -0.655 0.122 -0.655 Q 0.123 -0.655 0.135 -0.651 Q 0.216 -0.623 0.29 -0.623 Q 0.37 -0.623 0.443 -0.651 Q 0.454 -0.655 0.458 -0.655 Q 0.47200000000000003 -0.655 0.47200000000000003 -0.637 Q 0.47200000000000003 -0.626 0.4545 -0.6045 Q 0.437 -0.583 0.40800000000000003 -0.559 Q 0.379 -0.535 0.332 -0.517 Q 0.28500000000000003 -0.499 0.234 -0.499 Q 0.2 -0.499 0.161 -0.506 L 0.161 -0.374 Q 0.212 -0.40900000000000003 0.29 -0.40900000000000003 Q 0.397 -0.40900000000000003 0.457 -0.35000000000000003 Q 0.517 -0.291 0.517 -0.201 Z"/></g><g transform="translate(10.600940298507464,2.8231044776119405)"><path fill="rgb(0,0,0)" stroke="none" paint-order="stroke fill markers" d=" M 0.354 -0.623 L 0.354 -0.047 L 0.494 -0.047 L 0.494 0 Q 0.45 -0.003 0.295 -0.003 Q 0.14 -0.003 0.096 0 L 0.096 -0.047 L 0.23500000000000001 -0.047 L 0.23500000000000001 -0.5640000000000001 Q 0.17300000000000001 -0.544 0.105 -0.544 L 0.085 -0.544 L 0.085 -0.591 L 0.105 -0.591 Q 0.229 -0.591 0.306 -0.648 Q 0.315 -0.655 0.328 -0.655 Q 0.34600000000000003 -0.655 0.35000000000000003 -0.6485 Q 0.354 -0.642 0.354 -0.623 Z"/></g><g transform="translate(11.175940298507463,2.8231044776119405)"><path fill="rgb(0,0,0)" stroke="none" paint-order="stroke fill markers" d=" M 0.517 -0.201 Q 0.517 -0.108 0.447 -0.0485 Q 0.377 0.011 0.259 0.011 Q 0.17 0.011 0.1135 -0.0405 Q 0.057 -0.092 0.057 -0.159 Q 0.057 -0.187 0.07150000000000001 -0.20400000000000001 Q 0.08600000000000001 -0.221 0.0995 -0.225 Q 0.113 -0.229 0.124 -0.229 Q 0.148 -0.229 0.1695 -0.2125 Q 0.191 -0.196 0.191 -0.161 Q 0.191 -0.131 0.17250000000000001 -0.1135 Q 0.154 -0.096 0.126 -0.094 Q 0.17200000000000001 -0.032 0.255 -0.032 Q 0.28 -0.032 0.2995 -0.038 Q 0.319 -0.044 0.3315 -0.053 Q 0.34400000000000003 -0.062 0.3525 -0.0775 Q 0.361 -0.093 0.3655 -0.1055 Q 0.37 -0.11800000000000001 0.372 -0.139 Q 0.374 -0.16 0.3745 -0.17200000000000001 Q 0.375 -0.184 0.375 -0.20500000000000002 Q 0.375 -0.23700000000000002 0.3745 -0.254 Q 0.374 -0.271 0.3695 -0.2975 Q 0.365 -0.324 0.356 -0.3375 Q 0.34700000000000003 -0.35100000000000003 0.3295 -0.362 Q 0.312 -0.373 0.28600000000000003 -0.373 Q 0.199 -0.373 0.152 -0.317 Q 0.14200000000000002 -0.305 0.13 -0.305 Q 0.12 -0.305 0.115 -0.3095 Q 0.11 -0.314 0.109 -0.3195 Q 0.108 -0.325 0.108 -0.336 L 0.108 -0.628 Q 0.108 -0.638 0.1085 -0.6425 Q 0.109 -0.647 0.112 -0.651 Q 0.115 -0.655 0.122 -0.655 Q 0.123 -0.655 0.135 -0.651 Q 0.216 -0.623 0.29 -0.623 Q 0.37 -0.623 0.443 -0.651 Q 0.454 -0.655 0.458 -0.655 Q 0.47200000000000003 -0.655 0.47200000000000003 -0.637 Q 0.47200000000000003 -0.626 0.4545 -0.6045 Q 0.437 -0.583 0.40800000000000003 -0.559 Q 0.379 -0.535 0.332 -0.517 Q 0.28500000000000003 -0.499 0.234 -0.499 Q 0.2 -0.499 0.161 -0.506 L 0.161 -0.374 Q 0.212 -0.40900000000000003 0.29 -0.40900000000000003 Q 0.397 -0.40900000000000003 0.457 -0.35000000000000003 Q 0.517 -0.291 0.517 -0.201 Z"/></g><g transform="translate(12.083940298507462,2.8231044776119405)"><path fill="rgb(0,0,0)" stroke="none" paint-order="stroke fill markers" d=" M 0.354 -0.623 L 0.354 -0.047 L 0.494 -0.047 L 0.494 0 Q 0.45 -0.003 0.295 -0.003 Q 0.14 -0.003 0.096 0 L 0.096 -0.047 L 0.23500000000000001 -0.047 L 0.23500000000000001 -0.5640000000000001 Q 0.17300000000000001 -0.544 0.105 -0.544 L 0.085 -0.544 L 0.085 -0.591 L 0.105 -0.591 Q 0.229 -0.591 0.306 -0.648 Q 0.315 -0.655 0.328 -0.655 Q 0.34600000000000003 -0.655 0.35000000000000003 -0.6485 Q 0.354 -0.642 0.354 -0.623 Z"/></g><g transform="translate(12.658940298507462,2.8231044776119405)"><path fill="rgb(0,0,0)" stroke="none" paint-order="stroke fill markers" d=" M 0.184 -0.342 Q 0.226 -0.418 0.304 -0.418 Q 0.399 -0.418 0.4625 -0.362 Q 0.526 -0.306 0.526 -0.20500000000000002 Q 0.526 -0.106 0.461 -0.0475 Q 0.396 0.011 0.291 0.011 Q 0.16 0.011 0.098 -0.089 Q 0.048 -0.17300000000000001 0.048 -0.317 Q 0.048 -0.40700000000000003 0.0755 -0.47550000000000003 Q 0.10300000000000001 -0.544 0.148 -0.5815 Q 0.193 -0.619 0.244 -0.637 Q 0.295 -0.655 0.34900000000000003 -0.655 Q 0.423 -0.655 0.46 -0.6185 Q 0.497 -0.582 0.497 -0.53 Q 0.497 -0.501 0.48 -0.4835 Q 0.463 -0.466 0.434 -0.466 Q 0.406 -0.466 0.389 -0.484 Q 0.372 -0.502 0.372 -0.528 Q 0.372 -0.552 0.386 -0.5690000000000001 Q 0.4 -0.586 0.426 -0.59 Q 0.4 -0.616 0.35100000000000003 -0.616 Q 0.306 -0.616 0.2685 -0.5925 Q 0.231 -0.5690000000000001 0.212 -0.533 Q 0.184 -0.47300000000000003 0.184 -0.361 L 0.184 -0.342 M 0.289 -0.032 Q 0.318 -0.032 0.338 -0.0415 Q 0.358 -0.051000000000000004 0.368 -0.0635 Q 0.378 -0.076 0.383 -0.10300000000000001 Q 0.388 -0.13 0.389 -0.149 Q 0.39 -0.168 0.39 -0.20700000000000002 Q 0.39 -0.246 0.3895 -0.2645 Q 0.389 -0.28300000000000003 0.384 -0.3105 Q 0.379 -0.338 0.3695 -0.35050000000000003 Q 0.36 -0.363 0.3415 -0.3725 Q 0.323 -0.382 0.295 -0.382 Q 0.249 -0.382 0.2175 -0.3395 Q 0.186 -0.297 0.186 -0.21 Q 0.186 -0.11900000000000001 0.202 -0.08700000000000001 Q 0.23 -0.032 0.289 -0.032 Z"/></g><g transform="translate(13.566940298507461,2.8231044776119405)"><path fill="rgb(0,0,0)" stroke="none" paint-order="stroke fill markers" d=" M 0.354 -0.623 L 0.354 -0.047 L 0.494 -0.047 L 0.494 0 Q 0.45 -0.003 0.295 -0.003 Q 0.14 -0.003 0.096 0 L 0.096 -0.047 L 0.23500000000000001 -0.047 L 0.23500000000000001 -0.5640000000000001 Q 0.17300000000000001 -0.544 0.105 -0.544 L 0.085 -0.544 L 0.085 -0.591 L 0.105 -0.591 Q 0.229 -0.591 0.306 -0.648 Q 0.315 -0.655 0.328 -0.655 Q 0.34600000000000003 -0.655 0.35000000000000003 -0.6485 Q 0.354 -0.642 0.354 -0.623 Z"/></g><g transform="translate(14.14194029850746,2.8231044776119405)"><path fill="rgb(0,0,0)" stroke="none" paint-order="stroke fill markers" d=" M 0.548 -0.596 L 0.393 -0.41600000000000004 Q 0.342 -0.357 0.328 -0.249 Q 0.318 -0.182 0.318 -0.106 L 0.318 -0.06 Q 0.318 -0.03 0.3045 -0.0125 Q 0.291 0.005 0.279 0.008 Q 0.267 0.011 0.255 0.011 Q 0.249 0.011 0.242 0.0095 Q 0.23500000000000001 0.008 0.222 0.0025 Q 0.209 -0.003 0.201 -0.019 Q 0.193 -0.035 0.193 -0.059000000000000004 Q 0.193 -0.258 0.361 -0.454 L 0.41600000000000004 -0.519 L 0.247 -0.519 Q 0.149 -0.519 0.138 -0.513 Q 0.122 -0.505 0.111 -0.422 L 0.064 -0.422 L 0.099 -0.676 L 0.146 -0.676 Q 0.147 -0.669 0.1485 -0.666 Q 0.15 -0.663 0.155 -0.659 Q 0.16 -0.655 0.17 -0.653 Q 0.179 -0.65 0.2545 -0.647 Q 0.33 -0.644 0.354 -0.644 L 0.558 -0.644 Q 0.558 -0.617 0.5565 -0.6105 Q 0.555 -0.604 0.548 -0.596 Z"/></g><g transform="translate(15.04994029850746,2.8231044776119405)"><path fill="rgb(0,0,0)" stroke="none" paint-order="stroke fill markers" d=" M 0.354 -0.623 L 0.354 -0.047 L 0.494 -0.047 L 0.494 0 Q 0.45 -0.003 0.295 -0.003 Q 0.14 -0.003 0.096 0 L 0.096 -0.047 L 0.23500000000000001 -0.047 L 0.23500000000000001 -0.5640000000000001 Q 0.17300000000000001 -0.544 0.105 -0.544 L 0.085 -0.544 L 0.085 -0.591 L 0.105 -0.591 Q 0.229 -0.591 0.306 -0.648 Q 0.315 -0.655 0.328 -0.655 Q 0.34600000000000003 -0.655 0.35000000000000003 -0.6485 Q 0.354 -0.642 0.354 -0.623 Z"/></g><g transform="translate(15.62494029850746,2.8231044776119405)"><path fill="rgb(0,0,0)" stroke="none" paint-order="stroke fill markers" d=" M 0.199 -0.47900000000000004 L 0.34900000000000003 -0.395 Q 0.419 -0.441 0.419 -0.507 Q 0.419 -0.558 0.3835 -0.587 Q 0.34800000000000003 -0.616 0.28500000000000003 -0.616 Q 0.265 -0.616 0.247 -0.6135 Q 0.229 -0.611 0.20600000000000002 -0.604 Q 0.183 -0.597 0.169 -0.5805 Q 0.155 -0.5640000000000001 0.155 -0.539 Q 0.155 -0.504 0.199 -0.47900000000000004 M 0.393 -0.37 Q 0.42 -0.354 0.436 -0.3435 Q 0.452 -0.333 0.47650000000000003 -0.31 Q 0.501 -0.28700000000000003 0.5135 -0.256 Q 0.526 -0.225 0.526 -0.187 Q 0.526 -0.1 0.463 -0.0445 Q 0.4 0.011 0.28500000000000003 0.011 Q 0.181 0.011 0.1145 -0.032 Q 0.048 -0.075 0.048 -0.161 Q 0.048 -0.273 0.176 -0.329 Q 0.08 -0.383 0.08 -0.48 Q 0.08 -0.556 0.1345 -0.6055 Q 0.189 -0.655 0.289 -0.655 Q 0.38 -0.655 0.437 -0.618 Q 0.494 -0.581 0.494 -0.508 Q 0.494 -0.422 0.393 -0.37 M 0.222 -0.302 Q 0.134 -0.252 0.134 -0.161 Q 0.134 -0.10200000000000001 0.17500000000000002 -0.067 Q 0.216 -0.032 0.289 -0.032 Q 0.324 -0.032 0.3545 -0.0385 Q 0.385 -0.045 0.41250000000000003 -0.069 Q 0.44 -0.093 0.44 -0.132 Q 0.44 -0.155 0.4275 -0.17300000000000001 Q 0.41500000000000004 -0.191 0.4015 -0.2005 Q 0.388 -0.21 0.359 -0.226 Q 0.247 -0.289 0.222 -0.302 Z"/></g><g transform="translate(16.53294029850746,2.8231044776119405)"><path fill="rgb(0,0,0)" stroke="none" paint-order="stroke fill markers" d=" M 0.354 -0.623 L 0.354 -0.047 L 0.494 -0.047 L 0.494 0 Q 0.45 -0.003 0.295 -0.003 Q 0.14 -0.003 0.096 0 L 0.096 -0.047 L 0.23500000000000001 -0.047 L 0.23500000000000001 -0.5640000000000001 Q 0.17300000000000001 -0.544 0.105 -0.544 L 0.085 -0.544 L 0.085 -0.591 L 0.105 -0.591 Q 0.229 -0.591 0.306 -0.648 Q 0.315 -0.655 0.328 -0.655 Q 0.34600000000000003 -0.655 0.35000000000000003 -0.6485 Q 0.354 -0.642 0.354 -0.623 Z"/></g><g transform="translate(17.107940298507458,2.8231044776119405)"><path fill="rgb(0,0,0)" stroke="none" paint-order="stroke fill markers" d=" M 0.39 -0.304 Q 0.34800000000000003 -0.227 0.27 -0.227 Q 0.17400000000000002 -0.227 0.111 -0.28350000000000003 Q 0.048 -0.34 0.048 -0.44 Q 0.048 -0.539 0.1145 -0.597 Q 0.181 -0.655 0.289 -0.655 Q 0.338 -0.655 0.377 -0.64 Q 0.41600000000000004 -0.625 0.44 -0.603 Q 0.464 -0.581 0.4815 -0.547 Q 0.499 -0.513 0.5075000000000001 -0.486 Q 0.516 -0.459 0.5205 -0.4225 Q 0.525 -0.386 0.5255 -0.369 Q 0.526 -0.352 0.526 -0.329 Q 0.526 -0.23700000000000002 0.5 -0.1685 Q 0.47400000000000003 -0.1 0.4305 -0.0625 Q 0.387 -0.025 0.339 -0.007 Q 0.291 0.011 0.23900000000000002 0.011 Q 0.16 0.011 0.11850000000000001 -0.0245 Q 0.077 -0.06 0.077 -0.114 Q 0.077 -0.14300000000000002 0.094 -0.1605 Q 0.111 -0.178 0.14 -0.178 Q 0.168 -0.178 0.185 -0.16 Q 0.202 -0.14200000000000002 0.202 -0.116 Q 0.202 -0.096 0.1915 -0.081 Q 0.181 -0.066 0.1715 -0.061 Q 0.162 -0.056 0.153 -0.054 Q 0.186 -0.032 0.23700000000000002 -0.032 Q 0.28400000000000003 -0.032 0.3175 -0.057 Q 0.35100000000000003 -0.082 0.366 -0.116 Q 0.39 -0.17 0.39 -0.28200000000000003 L 0.39 -0.304 M 0.279 -0.263 Q 0.318 -0.263 0.34450000000000003 -0.2925 Q 0.371 -0.322 0.38 -0.357 Q 0.389 -0.392 0.389 -0.428 Q 0.389 -0.52 0.377 -0.553 Q 0.373 -0.5640000000000001 0.3665 -0.5750000000000001 Q 0.36 -0.586 0.339 -0.601 Q 0.318 -0.616 0.291 -0.616 Q 0.26 -0.616 0.23900000000000002 -0.606 Q 0.218 -0.596 0.20700000000000002 -0.583 Q 0.196 -0.5700000000000001 0.191 -0.542 Q 0.186 -0.514 0.185 -0.495 Q 0.184 -0.47600000000000003 0.184 -0.438 Q 0.184 -0.399 0.1845 -0.3805 Q 0.185 -0.362 0.19 -0.3345 Q 0.195 -0.307 0.20450000000000002 -0.2945 Q 0.214 -0.28200000000000003 0.2325 -0.2725 Q 0.251 -0.263 0.279 -0.263 Z"/></g><g transform="translate(18.015940298507456,2.8231044776119405)"><path fill="rgb(0,0,0)" stroke="none" paint-order="stroke fill markers" d=" M 0.517 -0.222 L 0.486 0 L 0.057 0 L 0.057 -0.018000000000000002 Q 0.057 -0.034 0.059000000000000004 -0.0385 Q 0.061 -0.043000000000000003 0.07 -0.052000000000000005 L 0.271 -0.257 Q 0.379 -0.367 0.379 -0.465 Q 0.379 -0.525 0.34400000000000003 -0.5665 Q 0.309 -0.608 0.247 -0.608 Q 0.186 -0.608 0.14400000000000002 -0.5730000000000001 Q 0.155 -0.5700000000000001 0.166 -0.5645 Q 0.177 -0.559 0.189 -0.542 Q 0.201 -0.525 0.201 -0.501 Q 0.201 -0.466 0.1785 -0.4475 Q 0.156 -0.429 0.129 -0.429 Q 0.10400000000000001 -0.429 0.0805 -0.4465 Q 0.057 -0.464 0.057 -0.503 Q 0.057 -0.5700000000000001 0.11850000000000001 -0.6125 Q 0.18 -0.655 0.272 -0.655 Q 0.379 -0.655 0.448 -0.603 Q 0.517 -0.551 0.517 -0.466 Q 0.517 -0.431 0.507 -0.404 Q 0.497 -0.377 0.46900000000000003 -0.34750000000000003 Q 0.441 -0.318 0.417 -0.299 Q 0.393 -0.28 0.339 -0.24 Q 0.292 -0.20600000000000002 0.195 -0.125 L 0.342 -0.125 Q 0.433 -0.125 0.444 -0.131 Q 0.457 -0.138 0.47000000000000003 -0.222 L 0.517 -0.222 Z"/></g><g transform="translate(18.590940298507455,2.8231044776119405)"><path fill="rgb(0,0,0)" stroke="none" paint-order="stroke fill markers" d=" M 0.5285 -0.369 Q 0.5285 -0.369 0.52875 -0.359 Q 0.529 -0.34900000000000003 0.529 -0.319 Q 0.529 -0.289 0.5285 -0.2685 Q 0.528 -0.248 0.523 -0.2105 Q 0.518 -0.17300000000000001 0.5095000000000001 -0.1465 Q 0.501 -0.12 0.483 -0.088 Q 0.465 -0.056 0.44 -0.036000000000000004 Q 0.41500000000000004 -0.016 0.3755 -0.0025 Q 0.336 0.011 0.28700000000000003 0.011 Q 0.23700000000000002 0.011 0.1975 -0.003 Q 0.158 -0.017 0.1335 -0.0365 Q 0.109 -0.056 0.091 -0.0885 Q 0.073 -0.121 0.0645 -0.147 Q 0.056 -0.17300000000000001 0.051000000000000004 -0.211 Q 0.046 -0.249 0.0455 -0.269 Q 0.045 -0.289 0.045 -0.319 Q 0.045 -0.34900000000000003 0.0455 -0.369 Q 0.046 -0.389 0.051000000000000004 -0.4275 Q 0.056 -0.466 0.0645 -0.493 Q 0.073 -0.52 0.091 -0.553 Q 0.109 -0.586 0.1335 -0.6065 Q 0.158 -0.627 0.1975 -0.641 Q 0.23700000000000002 -0.655 0.28700000000000003 -0.655 Q 0.337 -0.655 0.3765 -0.6405 Q 0.41600000000000004 -0.626 0.4405 -0.606 Q 0.465 -0.586 0.483 -0.5525 Q 0.501 -0.519 0.5095000000000001 -0.4925 Q 0.518 -0.466 0.523 -0.4275 Q 0.528 -0.389 0.5285 -0.369 M 0.28700000000000003 -0.025 Q 0.307 -0.025 0.326 -0.0315 Q 0.34500000000000003 -0.038 0.3665 -0.0635 Q 0.388 -0.089 0.394 -0.132 Q 0.401 -0.184 0.401 -0.331 Q 0.401 -0.519 0.384 -0.556 Q 0.371 -0.587 0.34400000000000003 -0.603 Q 0.317 -0.619 0.28700000000000003 -0.619 Q 0.269 -0.619 0.2505 -0.614 Q 0.232 -0.609 0.209 -0.5845 Q 0.186 -0.56 0.181 -0.52 Q 0.17300000000000001 -0.468 0.17300000000000001 -0.331 Q 0.17300000000000001 -0.17200000000000001 0.182 -0.12 Q 0.191 -0.07100000000000001 0.2225 -0.048 Q 0.254 -0.025 0.28700000000000003 -0.025 Z"/></g></g><path fill="rgb(0,0,255)" stroke="none" paint-order="stroke fill markers" d=" M 583 350 L 712 350 L 712 404 L 583 404 L 583 350 Z" fill-opacity="1"/><text fill="rgb(255,255,255)" stroke="none" font-family="geogebra-sans-serif, sans-serif" font-size="32px" font-style="normal" font-weight="normal" text-decoration="normal" x="586" y="385" text-anchor="start" dominant-baseline="alphabetic" fill-opacity="1">Médiane</text><path fill="rgb(0,0,255)" stroke="none" paint-order="stroke fill markers" d=" M 962 487 L 1111 487 L 1111 541 L 962 541 L 962 487 Z" fill-opacity="1"/><g transform="scale(35,35)"><g transform="translate(27.771428571428572,15.008285714285716)"><path fill="rgb(255,255,255)" stroke="none" paint-order="stroke fill markers" d=" M 0.27490234375 0.02197265625 Q 0.20068359375 0.02197265625 0.154052734375 -0.011474609375 Q 0.107421875 -0.044921875 0.08447265625 -0.0986328125 Q 0.0615234375 -0.15234375 0.0537109375 -0.21533203125 Q 0.0458984375 -0.2783203125 0.0458984375 -0.34814453125 Q 0.0458984375 -0.4267578125 0.06005859375 -0.491943359375 Q 0.07421875 -0.55712890625 0.107421875 -0.60791015625 Q 0.140625 -0.65869140625 0.197509765625 -0.687255859375 Q 0.25439453125 -0.7158203125 0.3359375 -0.7158203125 Q 0.36083984375 -0.7158203125 0.393798828125 -0.70751953125 Q 0.4267578125 -0.69921875 0.43017578125 -0.68408203125 L 0.43017578125 -0.61181640625 Q 0.43017578125 -0.6064453125 0.426025390625 -0.603271484375 Q 0.421875 -0.60009765625 0.41796875 -0.60009765625 Q 0.4130859375 -0.60009765625 0.412109375 -0.60205078125 Q 0.37646484375 -0.623046875 0.3359375 -0.623046875 Q 0.27587890625 -0.623046875 0.243408203125 -0.58984375 Q 0.2109375 -0.556640625 0.200439453125 -0.508056640625 Q 0.18994140625 -0.45947265625 0.18994140625 -0.39794921875 Q 0.20849609375 -0.43603515625 0.239013671875 -0.458984375 Q 0.26953125 -0.48193359375 0.30908203125 -0.48193359375 Q 0.5029296875 -0.48193359375 0.5029296875 -0.23486328125 Q 0.5029296875 -0.1552734375 0.48046875 -0.09765625 Q 0.4580078125 -0.0400390625 0.406982421875 -0.009033203125 Q 0.35595703125 0.02197265625 0.27490234375 0.02197265625 M 0.27490234375 -0.076171875 Q 0.3134765625 -0.076171875 0.33203125 -0.099365234375 Q 0.3505859375 -0.12255859375 0.354736328125 -0.154296875 Q 0.35888671875 -0.18603515625 0.35888671875 -0.23486328125 Q 0.35888671875 -0.28271484375 0.354736328125 -0.31787109375 Q 0.3505859375 -0.35302734375 0.333740234375 -0.37939453125 Q 0.31689453125 -0.40576171875 0.28076171875 -0.40576171875 Q 0.23193359375 -0.40576171875 0.21142578125 -0.35791015625 Q 0.19091796875 -0.31005859375 0.19091796875 -0.2529296875 Q 0.19140625 -0.2490234375 0.191650390625 -0.245361328125 Q 0.19189453125 -0.24169921875 0.19189453125 -0.23583984375 L 0.19189453125 -0.23388671875 Q 0.19189453125 -0.076171875 0.27490234375 -0.076171875 Z"/></g><g transform="translate(28.65442857142857,15.008285714285716)"><path fill="rgb(255,255,255)" stroke="none" paint-order="stroke fill markers" d=" M 0.05810546875 -0.0341796875 L 0.05810546875 -0.43017578125 Q 0.0595703125 -0.4443359375 0.068603515625 -0.453369140625 Q 0.07763671875 -0.46240234375 0.091796875 -0.4638671875 L 0.158203125 -0.4638671875 Q 0.17236328125 -0.46240234375 0.181396484375 -0.453369140625 Q 0.1904296875 -0.4443359375 0.19189453125 -0.43017578125 L 0.19189453125 -0.3701171875 Q 0.21533203125 -0.41455078125 0.2578125 -0.44189453125 Q 0.30029296875 -0.46923828125 0.35009765625 -0.46923828125 Q 0.40380859375 -0.46923828125 0.4375 -0.455078125 Q 0.47119140625 -0.44091796875 0.486572265625 -0.408447265625 Q 0.501953125 -0.3759765625 0.501953125 -0.32080078125 L 0.501953125 -0.0341796875 Q 0.49853515625 -0.00341796875 0.4677734375 0 L 0.39599609375 0 Q 0.365234375 -0.00341796875 0.36181640625 -0.0341796875 L 0.36181640625 -0.31787109375 Q 0.36181640625 -0.3583984375 0.351318359375 -0.375732421875 Q 0.3408203125 -0.39306640625 0.30419921875 -0.39306640625 Q 0.2734375 -0.39306640625 0.24951171875 -0.376220703125 Q 0.2255859375 -0.359375 0.2119140625 -0.33154296875 Q 0.1982421875 -0.3037109375 0.1982421875 -0.27490234375 L 0.1982421875 -0.0341796875 Q 0.19677734375 -0.02001953125 0.1875 -0.0107421875 Q 0.17822265625 -0.00146484375 0.1640625 0 L 0.091796875 0 Q 0.0615234375 -0.00341796875 0.05810546875 -0.0341796875 Z"/></g><g transform="translate(29.21542857142857,15.008285714285716)"><path fill="rgb(255,255,255)" stroke="none" paint-order="stroke fill markers" d=" M 0.03076171875 -0.22314453125 Q 0.03076171875 -0.30419921875 0.0576171875 -0.360595703125 Q 0.08447265625 -0.4169921875 0.138671875 -0.446044921875 Q 0.19287109375 -0.47509765625 0.27490234375 -0.47509765625 Q 0.3564453125 -0.47509765625 0.410400390625 -0.446044921875 Q 0.46435546875 -0.4169921875 0.4912109375 -0.360595703125 Q 0.51806640625 -0.30419921875 0.51806640625 -0.22314453125 Q 0.51806640625 -0.1640625 0.501953125 -0.119873046875 Q 0.48583984375 -0.07568359375 0.45458984375 -0.046630859375 Q 0.42333984375 -0.017578125 0.378173828125 -0.003173828125 Q 0.3330078125 0.01123046875 0.27490234375 0.01123046875 Q 0.1962890625 0.01123046875 0.141845703125 -0.014404296875 Q 0.08740234375 -0.0400390625 0.05908203125 -0.09228515625 Q 0.03076171875 -0.14453125 0.03076171875 -0.22314453125 M 0.27490234375 -0.07080078125 Q 0.32275390625 -0.07080078125 0.34521484375 -0.094482421875 Q 0.36767578125 -0.1181640625 0.372802734375 -0.1513671875 Q 0.3779296875 -0.1845703125 0.3779296875 -0.23779296875 Q 0.3779296875 -0.29052734375 0.372802734375 -0.322509765625 Q 0.36767578125 -0.3544921875 0.3447265625 -0.376708984375 Q 0.32177734375 -0.39892578125 0.27490234375 -0.39892578125 Q 0.2275390625 -0.39892578125 0.204345703125 -0.376708984375 Q 0.18115234375 -0.3544921875 0.176025390625 -0.322509765625 Q 0.1708984375 -0.29052734375 0.1708984375 -0.23779296875 Q 0.1708984375 -0.1845703125 0.176025390625 -0.1513671875 Q 0.18115234375 -0.1181640625 0.203857421875 -0.094482421875 Q 0.2265625 -0.07080078125 0.27490234375 -0.07080078125 Z"/></g><g transform="translate(29.765428571428572,15.008285714285716)"><path fill="rgb(255,255,255)" stroke="none" paint-order="stroke fill markers" d=" M 0.18603515625 0.01123046875 Q 0.0859375 0.01123046875 0.0859375 -0.15087890625 L 0.0859375 -0.3818359375 L 0.05419921875 -0.3818359375 Q 0.0234375 -0.38525390625 0.02001953125 -0.416015625 L 0.02001953125 -0.423828125 Q 0.0234375 -0.45458984375 0.05419921875 -0.4580078125 L 0.0888671875 -0.4580078125 L 0.0888671875 -0.55517578125 Q 0.091796875 -0.58544921875 0.123046875 -0.5888671875 L 0.18603515625 -0.5888671875 Q 0.20068359375 -0.58740234375 0.209716796875 -0.578369140625 Q 0.21875 -0.5693359375 0.22021484375 -0.55517578125 L 0.22021484375 -0.4580078125 L 0.32080078125 -0.4580078125 Q 0.3515625 -0.45458984375 0.35498046875 -0.423828125 L 0.35498046875 -0.416015625 Q 0.3515625 -0.38525390625 0.32080078125 -0.3818359375 L 0.22021484375 -0.3818359375 L 0.22021484375 -0.166015625 Q 0.22021484375 -0.07080078125 0.2548828125 -0.07080078125 Q 0.27685546875 -0.07080078125 0.2958984375 -0.078369140625 Q 0.31494140625 -0.0859375 0.330810546875 -0.096435546875 Q 0.3466796875 -0.10693359375 0.34814453125 -0.10693359375 Q 0.3515625 -0.10693359375 0.354736328125 -0.104736328125 Q 0.35791015625 -0.1025390625 0.35986328125 -0.09814453125 L 0.373046875 -0.048828125 L 0.373046875 -0.044921875 Q 0.373046875 -0.037109375 0.3671875 -0.0341796875 Q 0.27880859375 0.01123046875 0.18603515625 0.01123046875 Z"/></g><g transform="translate(30.169428571428572,15.008285714285716)"><path fill="rgb(255,255,255)" stroke="none" paint-order="stroke fill markers" d=" M 0.03076171875 -0.23193359375 Q 0.03076171875 -0.28955078125 0.04638671875 -0.33544921875 Q 0.06201171875 -0.38134765625 0.09228515625 -0.412109375 Q 0.12255859375 -0.44287109375 0.1669921875 -0.458984375 Q 0.21142578125 -0.47509765625 0.27001953125 -0.47509765625 Q 0.47900390625 -0.47509765625 0.47900390625 -0.251953125 Q 0.47900390625 -0.23681640625 0.469482421875 -0.226318359375 Q 0.4599609375 -0.2158203125 0.44482421875 -0.2138671875 L 0.1630859375 -0.2138671875 Q 0.1630859375 -0.14697265625 0.1923828125 -0.10595703125 Q 0.2216796875 -0.06494140625 0.2861328125 -0.06494140625 Q 0.37841796875 -0.06494140625 0.44677734375 -0.12890625 Q 0.45166015625 -0.130859375 0.455078125 -0.130859375 Q 0.45947265625 -0.130859375 0.463134765625 -0.127685546875 Q 0.466796875 -0.12451171875 0.466796875 -0.1201171875 L 0.47314453125 -0.0498046875 Q 0.47314453125 -0.041015625 0.466796875 -0.0380859375 Q 0.42578125 -0.01416015625 0.37939453125 -0.00146484375 Q 0.3330078125 0.01123046875 0.2861328125 0.01123046875 Q 0.2060546875 0.01123046875 0.1484375 -0.015869140625 Q 0.0908203125 -0.04296875 0.060791015625 -0.09716796875 Q 0.03076171875 -0.1513671875 0.03076171875 -0.23193359375 M 0.1640625 -0.27099609375 L 0.36376953125 -0.27099609375 Q 0.36376953125 -0.39892578125 0.27001953125 -0.39892578125 Q 0.21875 -0.39892578125 0.19140625 -0.361572265625 Q 0.1640625 -0.32421875 0.1640625 -0.27099609375 Z"/></g><g transform="translate(30.68042857142857,15.008285714285716)"><path fill="rgb(255,255,255)" stroke="none" paint-order="stroke fill markers" d=" M 0.0380859375 -0.037109375 Q 0.03076171875 -0.04052734375 0.03076171875 -0.048828125 L 0.046875 -0.13720703125 Q 0.048828125 -0.14892578125 0.05908203125 -0.14892578125 Q 0.0654296875 -0.14892578125 0.06884765625 -0.14404296875 Q 0.0947265625 -0.10986328125 0.134033203125 -0.09033203125 Q 0.17333984375 -0.07080078125 0.216796875 -0.07080078125 Q 0.251953125 -0.07080078125 0.27294921875 -0.081298828125 Q 0.2939453125 -0.091796875 0.2939453125 -0.123046875 Q 0.2939453125 -0.1435546875 0.2763671875 -0.156494140625 Q 0.2587890625 -0.16943359375 0.23681640625 -0.173828125 L 0.17822265625 -0.18505859375 Q 0.11865234375 -0.197265625 0.077880859375 -0.234619140625 Q 0.037109375 -0.27197265625 0.037109375 -0.328125 Q 0.037109375 -0.38232421875 0.06005859375 -0.41552734375 Q 0.0830078125 -0.44873046875 0.122314453125 -0.4619140625 Q 0.16162109375 -0.47509765625 0.216796875 -0.47509765625 Q 0.25146484375 -0.47509765625 0.314697265625 -0.462158203125 Q 0.3779296875 -0.44921875 0.3779296875 -0.42919921875 L 0.365234375 -0.35400390625 Q 0.36279296875 -0.341796875 0.35205078125 -0.341796875 Q 0.34814453125 -0.341796875 0.34521484375 -0.34521484375 Q 0.28564453125 -0.39990234375 0.2080078125 -0.39990234375 Q 0.17578125 -0.39990234375 0.157470703125 -0.390625 Q 0.13916015625 -0.38134765625 0.13916015625 -0.35302734375 Q 0.13916015625 -0.3359375 0.154541015625 -0.32373046875 Q 0.169921875 -0.3115234375 0.18896484375 -0.30810546875 L 0.2529296875 -0.2958984375 Q 0.29052734375 -0.28857421875 0.32373046875 -0.267578125 Q 0.35693359375 -0.24658203125 0.37646484375 -0.215087890625 Q 0.39599609375 -0.18359375 0.39599609375 -0.14404296875 Q 0.39599609375 -0.060546875 0.34912109375 -0.024658203125 Q 0.30224609375 0.01123046875 0.216796875 0.01123046875 Q 0.16845703125 0.01123046875 0.123779296875 -0.000732421875 Q 0.0791015625 -0.0126953125 0.0380859375 -0.037109375 Z"/></g></g><path fill="rgb(0,0,255)" stroke="none" paint-order="stroke fill markers" d=" M 258 471 L 407 471 L 407 525 L 258 525 L 258 471 Z" fill-opacity="1"/><g transform="scale(35,35)"><g transform="translate(7.6571428571428575,14.551142857142857)"><path fill="rgb(255,255,255)" stroke="none" paint-order="stroke fill markers" d=" M 0.27490234375 0.02197265625 Q 0.20068359375 0.02197265625 0.154052734375 -0.011474609375 Q 0.107421875 -0.044921875 0.08447265625 -0.0986328125 Q 0.0615234375 -0.15234375 0.0537109375 -0.21533203125 Q 0.0458984375 -0.2783203125 0.0458984375 -0.34814453125 Q 0.0458984375 -0.4267578125 0.06005859375 -0.491943359375 Q 0.07421875 -0.55712890625 0.107421875 -0.60791015625 Q 0.140625 -0.65869140625 0.197509765625 -0.687255859375 Q 0.25439453125 -0.7158203125 0.3359375 -0.7158203125 Q 0.36083984375 -0.7158203125 0.393798828125 -0.70751953125 Q 0.4267578125 -0.69921875 0.43017578125 -0.68408203125 L 0.43017578125 -0.61181640625 Q 0.43017578125 -0.6064453125 0.426025390625 -0.603271484375 Q 0.421875 -0.60009765625 0.41796875 -0.60009765625 Q 0.4130859375 -0.60009765625 0.412109375 -0.60205078125 Q 0.37646484375 -0.623046875 0.3359375 -0.623046875 Q 0.27587890625 -0.623046875 0.243408203125 -0.58984375 Q 0.2109375 -0.556640625 0.200439453125 -0.508056640625 Q 0.18994140625 -0.45947265625 0.18994140625 -0.39794921875 Q 0.20849609375 -0.43603515625 0.239013671875 -0.458984375 Q 0.26953125 -0.48193359375 0.30908203125 -0.48193359375 Q 0.5029296875 -0.48193359375 0.5029296875 -0.23486328125 Q 0.5029296875 -0.1552734375 0.48046875 -0.09765625 Q 0.4580078125 -0.0400390625 0.406982421875 -0.009033203125 Q 0.35595703125 0.02197265625 0.27490234375 0.02197265625 M 0.27490234375 -0.076171875 Q 0.3134765625 -0.076171875 0.33203125 -0.099365234375 Q 0.3505859375 -0.12255859375 0.354736328125 -0.154296875 Q 0.35888671875 -0.18603515625 0.35888671875 -0.23486328125 Q 0.35888671875 -0.28271484375 0.354736328125 -0.31787109375 Q 0.3505859375 -0.35302734375 0.333740234375 -0.37939453125 Q 0.31689453125 -0.40576171875 0.28076171875 -0.40576171875 Q 0.23193359375 -0.40576171875 0.21142578125 -0.35791015625 Q 0.19091796875 -0.31005859375 0.19091796875 -0.2529296875 Q 0.19140625 -0.2490234375 0.191650390625 -0.245361328125 Q 0.19189453125 -0.24169921875 0.19189453125 -0.23583984375 L 0.19189453125 -0.23388671875 Q 0.19189453125 -0.076171875 0.27490234375 -0.076171875 Z"/></g><g transform="translate(8.540142857142857,14.551142857142857)"><path fill="rgb(255,255,255)" stroke="none" paint-order="stroke fill markers" d=" M 0.05810546875 -0.0341796875 L 0.05810546875 -0.43017578125 Q 0.0595703125 -0.4443359375 0.068603515625 -0.453369140625 Q 0.07763671875 -0.46240234375 0.091796875 -0.4638671875 L 0.158203125 -0.4638671875 Q 0.17236328125 -0.46240234375 0.181396484375 -0.453369140625 Q 0.1904296875 -0.4443359375 0.19189453125 -0.43017578125 L 0.19189453125 -0.3701171875 Q 0.21533203125 -0.41455078125 0.2578125 -0.44189453125 Q 0.30029296875 -0.46923828125 0.35009765625 -0.46923828125 Q 0.40380859375 -0.46923828125 0.4375 -0.455078125 Q 0.47119140625 -0.44091796875 0.486572265625 -0.408447265625 Q 0.501953125 -0.3759765625 0.501953125 -0.32080078125 L 0.501953125 -0.0341796875 Q 0.49853515625 -0.00341796875 0.4677734375 0 L 0.39599609375 0 Q 0.365234375 -0.00341796875 0.36181640625 -0.0341796875 L 0.36181640625 -0.31787109375 Q 0.36181640625 -0.3583984375 0.351318359375 -0.375732421875 Q 0.3408203125 -0.39306640625 0.30419921875 -0.39306640625 Q 0.2734375 -0.39306640625 0.24951171875 -0.376220703125 Q 0.2255859375 -0.359375 0.2119140625 -0.33154296875 Q 0.1982421875 -0.3037109375 0.1982421875 -0.27490234375 L 0.1982421875 -0.0341796875 Q 0.19677734375 -0.02001953125 0.1875 -0.0107421875 Q 0.17822265625 -0.00146484375 0.1640625 0 L 0.091796875 0 Q 0.0615234375 -0.00341796875 0.05810546875 -0.0341796875 Z"/></g><g transform="translate(9.101142857142857,14.551142857142857)"><path fill="rgb(255,255,255)" stroke="none" paint-order="stroke fill markers" d=" M 0.03076171875 -0.22314453125 Q 0.03076171875 -0.30419921875 0.0576171875 -0.360595703125 Q 0.08447265625 -0.4169921875 0.138671875 -0.446044921875 Q 0.19287109375 -0.47509765625 0.27490234375 -0.47509765625 Q 0.3564453125 -0.47509765625 0.410400390625 -0.446044921875 Q 0.46435546875 -0.4169921875 0.4912109375 -0.360595703125 Q 0.51806640625 -0.30419921875 0.51806640625 -0.22314453125 Q 0.51806640625 -0.1640625 0.501953125 -0.119873046875 Q 0.48583984375 -0.07568359375 0.45458984375 -0.046630859375 Q 0.42333984375 -0.017578125 0.378173828125 -0.003173828125 Q 0.3330078125 0.01123046875 0.27490234375 0.01123046875 Q 0.1962890625 0.01123046875 0.141845703125 -0.014404296875 Q 0.08740234375 -0.0400390625 0.05908203125 -0.09228515625 Q 0.03076171875 -0.14453125 0.03076171875 -0.22314453125 M 0.27490234375 -0.07080078125 Q 0.32275390625 -0.07080078125 0.34521484375 -0.094482421875 Q 0.36767578125 -0.1181640625 0.372802734375 -0.1513671875 Q 0.3779296875 -0.1845703125 0.3779296875 -0.23779296875 Q 0.3779296875 -0.29052734375 0.372802734375 -0.322509765625 Q 0.36767578125 -0.3544921875 0.3447265625 -0.376708984375 Q 0.32177734375 -0.39892578125 0.27490234375 -0.39892578125 Q 0.2275390625 -0.39892578125 0.204345703125 -0.376708984375 Q 0.18115234375 -0.3544921875 0.176025390625 -0.322509765625 Q 0.1708984375 -0.29052734375 0.1708984375 -0.23779296875 Q 0.1708984375 -0.1845703125 0.176025390625 -0.1513671875 Q 0.18115234375 -0.1181640625 0.203857421875 -0.094482421875 Q 0.2265625 -0.07080078125 0.27490234375 -0.07080078125 Z"/></g><g transform="translate(9.651142857142858,14.551142857142857)"><path fill="rgb(255,255,255)" stroke="none" paint-order="stroke fill markers" d=" M 0.18603515625 0.01123046875 Q 0.0859375 0.01123046875 0.0859375 -0.15087890625 L 0.0859375 -0.3818359375 L 0.05419921875 -0.3818359375 Q 0.0234375 -0.38525390625 0.02001953125 -0.416015625 L 0.02001953125 -0.423828125 Q 0.0234375 -0.45458984375 0.05419921875 -0.4580078125 L 0.0888671875 -0.4580078125 L 0.0888671875 -0.55517578125 Q 0.091796875 -0.58544921875 0.123046875 -0.5888671875 L 0.18603515625 -0.5888671875 Q 0.20068359375 -0.58740234375 0.209716796875 -0.578369140625 Q 0.21875 -0.5693359375 0.22021484375 -0.55517578125 L 0.22021484375 -0.4580078125 L 0.32080078125 -0.4580078125 Q 0.3515625 -0.45458984375 0.35498046875 -0.423828125 L 0.35498046875 -0.416015625 Q 0.3515625 -0.38525390625 0.32080078125 -0.3818359375 L 0.22021484375 -0.3818359375 L 0.22021484375 -0.166015625 Q 0.22021484375 -0.07080078125 0.2548828125 -0.07080078125 Q 0.27685546875 -0.07080078125 0.2958984375 -0.078369140625 Q 0.31494140625 -0.0859375 0.330810546875 -0.096435546875 Q 0.3466796875 -0.10693359375 0.34814453125 -0.10693359375 Q 0.3515625 -0.10693359375 0.354736328125 -0.104736328125 Q 0.35791015625 -0.1025390625 0.35986328125 -0.09814453125 L 0.373046875 -0.048828125 L 0.373046875 -0.044921875 Q 0.373046875 -0.037109375 0.3671875 -0.0341796875 Q 0.27880859375 0.01123046875 0.18603515625 0.01123046875 Z"/></g><g transform="translate(10.055142857142858,14.551142857142857)"><path fill="rgb(255,255,255)" stroke="none" paint-order="stroke fill markers" d=" M 0.03076171875 -0.23193359375 Q 0.03076171875 -0.28955078125 0.04638671875 -0.33544921875 Q 0.06201171875 -0.38134765625 0.09228515625 -0.412109375 Q 0.12255859375 -0.44287109375 0.1669921875 -0.458984375 Q 0.21142578125 -0.47509765625 0.27001953125 -0.47509765625 Q 0.47900390625 -0.47509765625 0.47900390625 -0.251953125 Q 0.47900390625 -0.23681640625 0.469482421875 -0.226318359375 Q 0.4599609375 -0.2158203125 0.44482421875 -0.2138671875 L 0.1630859375 -0.2138671875 Q 0.1630859375 -0.14697265625 0.1923828125 -0.10595703125 Q 0.2216796875 -0.06494140625 0.2861328125 -0.06494140625 Q 0.37841796875 -0.06494140625 0.44677734375 -0.12890625 Q 0.45166015625 -0.130859375 0.455078125 -0.130859375 Q 0.45947265625 -0.130859375 0.463134765625 -0.127685546875 Q 0.466796875 -0.12451171875 0.466796875 -0.1201171875 L 0.47314453125 -0.0498046875 Q 0.47314453125 -0.041015625 0.466796875 -0.0380859375 Q 0.42578125 -0.01416015625 0.37939453125 -0.00146484375 Q 0.3330078125 0.01123046875 0.2861328125 0.01123046875 Q 0.2060546875 0.01123046875 0.1484375 -0.015869140625 Q 0.0908203125 -0.04296875 0.060791015625 -0.09716796875 Q 0.03076171875 -0.1513671875 0.03076171875 -0.23193359375 M 0.1640625 -0.27099609375 L 0.36376953125 -0.27099609375 Q 0.36376953125 -0.39892578125 0.27001953125 -0.39892578125 Q 0.21875 -0.39892578125 0.19140625 -0.361572265625 Q 0.1640625 -0.32421875 0.1640625 -0.27099609375 Z"/></g><g transform="translate(10.566142857142857,14.551142857142857)"><path fill="rgb(255,255,255)" stroke="none" paint-order="stroke fill markers" d=" M 0.0380859375 -0.037109375 Q 0.03076171875 -0.04052734375 0.03076171875 -0.048828125 L 0.046875 -0.13720703125 Q 0.048828125 -0.14892578125 0.05908203125 -0.14892578125 Q 0.0654296875 -0.14892578125 0.06884765625 -0.14404296875 Q 0.0947265625 -0.10986328125 0.134033203125 -0.09033203125 Q 0.17333984375 -0.07080078125 0.216796875 -0.07080078125 Q 0.251953125 -0.07080078125 0.27294921875 -0.081298828125 Q 0.2939453125 -0.091796875 0.2939453125 -0.123046875 Q 0.2939453125 -0.1435546875 0.2763671875 -0.156494140625 Q 0.2587890625 -0.16943359375 0.23681640625 -0.173828125 L 0.17822265625 -0.18505859375 Q 0.11865234375 -0.197265625 0.077880859375 -0.234619140625 Q 0.037109375 -0.27197265625 0.037109375 -0.328125 Q 0.037109375 -0.38232421875 0.06005859375 -0.41552734375 Q 0.0830078125 -0.44873046875 0.122314453125 -0.4619140625 Q 0.16162109375 -0.47509765625 0.216796875 -0.47509765625 Q 0.25146484375 -0.47509765625 0.314697265625 -0.462158203125 Q 0.3779296875 -0.44921875 0.3779296875 -0.42919921875 L 0.365234375 -0.35400390625 Q 0.36279296875 -0.341796875 0.35205078125 -0.341796875 Q 0.34814453125 -0.341796875 0.34521484375 -0.34521484375 Q 0.28564453125 -0.39990234375 0.2080078125 -0.39990234375 Q 0.17578125 -0.39990234375 0.157470703125 -0.390625 Q 0.13916015625 -0.38134765625 0.13916015625 -0.35302734375 Q 0.13916015625 -0.3359375 0.154541015625 -0.32373046875 Q 0.169921875 -0.3115234375 0.18896484375 -0.30810546875 L 0.2529296875 -0.2958984375 Q 0.29052734375 -0.28857421875 0.32373046875 -0.267578125 Q 0.35693359375 -0.24658203125 0.37646484375 -0.215087890625 Q 0.39599609375 -0.18359375 0.39599609375 -0.14404296875 Q 0.39599609375 -0.060546875 0.34912109375 -0.024658203125 Q 0.30224609375 0.01123046875 0.216796875 0.01123046875 Q 0.16845703125 0.01123046875 0.123779296875 -0.000732421875 Q 0.0791015625 -0.0126953125 0.0380859375 -0.037109375 Z"/></g></g></g></g></svg>