<svg version="1.1" xmlns="http://www.w3.org/2000/svg" xmlns:xlink="http://www.w3.org/1999/xlink" width="1358" height="662"><defs><clipPath id="BOApTqHnXVKQ"><path fill="none" stroke="none" d=" M 0 0 L 1358 0 L 1358 662 L 0 662 L 0 0 Z"/></clipPath></defs><g transform="scale(1,1)" clip-path="url(#BOApTqHnXVKQ)"><g><rect fill="rgb(255,255,255)" stroke="none" x="0" y="0" width="1358" height="662" fill-opacity="0"/><path fill="none" stroke="rgb(0,0,0)" paint-order="fill stroke markers" d=" M 542 392 L 786 433.99999999999994" stroke-opacity="0.6980392156862745" stroke-linecap="round" stroke-linejoin="round" stroke-miterlimit="10" stroke-width="2.5"/><path fill="none" stroke="rgb(0,0,0)" paint-order="fill stroke markers" d=" M 488.0000000000001 562.9999999999999 L 786 433.99999999999994" stroke-opacity="0.6980392156862745" stroke-linecap="round" stroke-linejoin="round" stroke-miterlimit="10" stroke-width="2.5"/><path fill="none" stroke="rgb(0,0,0)" paint-order="fill stroke markers" d=" M 542 392 L 488.0000000000001 562.9999999999999" stroke-opacity="0.6980392156862745" stroke-linecap="round" stroke-linejoin="round" stroke-miterlimit="10" stroke-width="2.5"/><path fill="none" stroke="rgb(0,0,255)" paint-order="fill stroke markers" d=" M 636 200.00000000000006 L 636.6454691951851 271.0016114703641" stroke-opacity="0.6980392156862745" stroke-linecap="round" stroke-linejoin="round" stroke-miterlimit="10" stroke-width="6.5"/><path fill="rgb(0,0,255)" stroke="none" paint-order="stroke fill markers" fill-rule="evenodd" d=" M 637 310 L 626.8958720627761 271.0902441715678 L 646.3950663275941 270.91297876916036 Z" fill-opacity="0.6980392156862745"/><path fill="rgb(0,0,0)" stroke="none" paint-order="stroke fill markers" d=" M 551 392 C 551 396.97056274847716 546.9705627484772 401 542 401 C 537.0294372515228 401 533 396.97056274847716 533 392 C 533 387.02943725152284 537.0294372515228 383 542 383 C 546.9705627484772 383 551 387.02943725152284 551 392 Z" fill-opacity="1"/><path fill="rgb(0,0,0)" stroke="none" paint-order="stroke fill markers" d=" M 497.0000000000001 562.9999999999999 C 497.0000000000001 567.970562748477 492.9705627484773 571.9999999999999 488.0000000000001 571.9999999999999 C 483.02943725152295 571.9999999999999 479.0000000000001 567.970562748477 479.0000000000001 562.9999999999999 C 479.0000000000001 558.0294372515227 483.02943725152295 553.9999999999999 488.0000000000001 553.9999999999999 C 492.9705627484773 553.9999999999999 497.0000000000001 558.0294372515227 497.0000000000001 562.9999999999999 Z" fill-opacity="1"/><path fill="rgb(0,0,0)" stroke="none" paint-order="stroke fill markers" d=" M 795 433.99999999999994 C 795 438.9705627484771 790.9705627484772 442.99999999999994 786 442.99999999999994 C 781.0294372515228 442.99999999999994 777 438.9705627484771 777 433.99999999999994 C 777 429.0294372515228 781.0294372515228 424.99999999999994 786 424.99999999999994 C 790.9705627484772 424.99999999999994 795 429.0294372515228 795 433.99999999999994 Z" fill-opacity="1"/><path fill="rgb(0,0,0)" stroke="none" paint-order="stroke fill markers" d=" M 551 392 C 551 396.97056274847716 546.9705627484772 401 542 401 C 537.0294372515228 401 533 396.97056274847716 533 392 C 533 387.02943725152284 537.0294372515228 383 542 383 C 546.9705627484772 383 551 387.02943725152284 551 392 Z" fill-opacity="1"/><g transform="scale(35,35)"><g transform="translate(9.028571428571428,3.694)"><path fill="rgb(0,0,0)" stroke="none" paint-order="stroke fill markers" d=" M 0.645 -0.682 L 0.739 -0.067 Q 0.741 -0.054 0.7435 -0.051500000000000004 Q 0.746 -0.049 0.755 -0.048 Q 0.769 -0.047 0.794 -0.047 Q 0.81 -0.047 0.8165 -0.0465 Q 0.8230000000000001 -0.046 0.8285 -0.042 Q 0.834 -0.038 0.834 -0.029 Q 0.834 -0.016 0.8280000000000001 -0.009000000000000001 Q 0.8220000000000001 -0.002 0.8175 -0.001 Q 0.8130000000000001 0 0.806 0 Q 0.794 0 0.771 -0.001 Q 0.748 -0.002 0.736 -0.002 Q 0.724 -0.002 0.7010000000000001 -0.0025 Q 0.678 -0.003 0.667 -0.003 Q 0.65 -0.003 0.592 -0.0015 Q 0.534 0 0.518 0 Q 0.496 0 0.496 -0.018000000000000002 Q 0.496 -0.032 0.502 -0.0385 Q 0.508 -0.045 0.514 -0.046 Q 0.52 -0.047 0.533 -0.047 Q 0.5740000000000001 -0.047 0.598 -0.052000000000000005 L 0.5750000000000001 -0.198 L 0.305 -0.198 L 0.213 -0.058 Q 0.23500000000000001 -0.047 0.271 -0.047 Q 0.297 -0.047 0.297 -0.029 Q 0.297 0 0.27 0 Q 0.252 0 0.215 -0.0015 Q 0.178 -0.003 0.159 -0.003 Q 0.14300000000000002 -0.003 0.111 -0.0015 Q 0.079 0 0.064 0 Q 0.056 0 0.0505 -0.0055 Q 0.045 -0.011 0.045 -0.018000000000000002 Q 0.045 -0.031 0.051000000000000004 -0.038 Q 0.057 -0.045 0.062 -0.046 Q 0.067 -0.047 0.077 -0.047 Q 0.111 -0.047 0.132 -0.0535 Q 0.153 -0.06 0.1595 -0.0665 Q 0.166 -0.073 0.17400000000000002 -0.085 L 0.5670000000000001 -0.686 Q 0.577 -0.7020000000000001 0.5855 -0.7065 Q 0.594 -0.711 0.611 -0.711 Q 0.63 -0.711 0.636 -0.706 Q 0.642 -0.7010000000000001 0.645 -0.682 M 0.524 -0.533 L 0.336 -0.245 L 0.5680000000000001 -0.245 L 0.524 -0.533 Z"/></g><g transform="translate(10.230571428571428,3.694)"><path fill="rgb(0,0,0)" stroke="none" paint-order="stroke fill markers" d=" M 0.214 -0.021 Q 0.191 0 0.159 0 Q 0.123 0 0.10200000000000001 -0.023 Q 0.081 -0.046 0.081 -0.078 Q 0.081 -0.111 0.10250000000000001 -0.1335 Q 0.124 -0.156 0.158 -0.156 Q 0.199 -0.156 0.2245 -0.1205 Q 0.25 -0.085 0.25 -0.031 Q 0.25 0.031 0.222 0.08650000000000001 Q 0.194 0.14200000000000002 0.167 0.168 Q 0.14 0.194 0.13 0.194 Q 0.124 0.194 0.11750000000000001 0.187 Q 0.111 0.18 0.111 0.17500000000000002 Q 0.111 0.169 0.126 0.156 Q 0.166 0.122 0.189 0.075 Q 0.212 0.028 0.214 -0.021 Z"/></g><g transform="translate(11.049238095238096,3.694)"><path fill="rgb(0,0,0)" stroke="none" paint-order="stroke fill markers" d=" M 0.163 -0.067 L 0.306 -0.637 Q 0.264 -0.639 0.245 -0.639 Q 0.227 -0.639 0.22 -0.6395000000000001 Q 0.213 -0.64 0.20800000000000002 -0.644 Q 0.203 -0.648 0.203 -0.657 Q 0.203 -0.671 0.209 -0.6775 Q 0.215 -0.684 0.221 -0.685 Q 0.227 -0.686 0.24 -0.686 L 0.641 -0.686 Q 0.744 -0.686 0.799 -0.648 Q 0.854 -0.61 0.854 -0.547 Q 0.854 -0.488 0.8005 -0.433 Q 0.747 -0.378 0.637 -0.358 Q 0.711 -0.352 0.7575000000000001 -0.317 Q 0.804 -0.28200000000000003 0.804 -0.221 Q 0.804 -0.186 0.7855 -0.1485 Q 0.767 -0.111 0.7315 -0.077 Q 0.6960000000000001 -0.043000000000000003 0.6355000000000001 -0.021500000000000002 Q 0.5750000000000001 0 0.501 0 L 0.077 0 Q 0.043000000000000003 0 0.043000000000000003 -0.018000000000000002 Q 0.043000000000000003 -0.038 0.055 -0.045 Q 0.059000000000000004 -0.047 0.08700000000000001 -0.047 Q 0.123 -0.047 0.14 -0.048 Q 0.153 -0.049 0.1565 -0.052000000000000005 Q 0.16 -0.055 0.163 -0.067 M 0.431 -0.621 L 0.369 -0.375 L 0.527 -0.375 Q 0.5750000000000001 -0.375 0.614 -0.3925 Q 0.653 -0.41000000000000003 0.6745 -0.4375 Q 0.6960000000000001 -0.465 0.7075 -0.4945 Q 0.719 -0.524 0.719 -0.552 Q 0.719 -0.639 0.618 -0.639 L 0.46900000000000003 -0.639 Q 0.451 -0.639 0.442 -0.638 Q 0.435 -0.637 0.431 -0.621 M 0.312 -0.047 L 0.47200000000000003 -0.047 Q 0.522 -0.047 0.5615 -0.0655 Q 0.601 -0.084 0.6225 -0.1135 Q 0.644 -0.14300000000000002 0.6545 -0.17450000000000002 Q 0.665 -0.20600000000000002 0.665 -0.23700000000000002 Q 0.665 -0.339 0.555 -0.339 L 0.36 -0.339 L 0.28800000000000003 -0.048 Q 0.295 -0.047 0.312 -0.047 Z"/></g><g transform="translate(12.296238095238095,3.694)"><path fill="rgb(0,0,0)" stroke="none" paint-order="stroke fill markers" d=" M 0.222 -0.218 L 0.178 -0.218 Q 0.163 -0.162 0.163 -0.125 Q 0.163 -0.028 0.261 -0.028 Q 0.396 -0.028 0.47100000000000003 -0.107 Q 0.481 -0.11800000000000001 0.486 -0.11800000000000001 Q 0.493 -0.11800000000000001 0.502 -0.108 Q 0.511 -0.098 0.511 -0.092 Q 0.511 -0.081 0.482 -0.0565 Q 0.453 -0.032 0.41300000000000003 -0.016 Q 0.35000000000000003 0.008 0.258 0.008 Q 0.159 0.008 0.10400000000000001 -0.039 Q 0.049 -0.08600000000000001 0.049 -0.17200000000000001 Q 0.049 -0.29 0.1365 -0.371 Q 0.224 -0.452 0.358 -0.452 Q 0.42 -0.452 0.4575 -0.4255 Q 0.495 -0.399 0.495 -0.356 Q 0.495 -0.272 0.396 -0.23800000000000002 Q 0.336 -0.218 0.222 -0.218 M 0.187 -0.254 Q 0.216 -0.254 0.232 -0.254 Q 0.248 -0.254 0.278 -0.256 Q 0.308 -0.258 0.326 -0.2615 Q 0.34400000000000003 -0.265 0.367 -0.2725 Q 0.39 -0.28 0.403 -0.2905 Q 0.41600000000000004 -0.301 0.4255 -0.3175 Q 0.435 -0.334 0.435 -0.355 Q 0.435 -0.386 0.41200000000000003 -0.401 Q 0.389 -0.41600000000000004 0.358 -0.41600000000000004 Q 0.292 -0.41600000000000004 0.246 -0.37 Q 0.20600000000000002 -0.333 0.187 -0.254 Z"/></g><g transform="translate(12.850238095238096,3.694)"><path fill="rgb(0,0,0)" stroke="none" paint-order="stroke fill markers" d=" M 0.252 -0.397 L 0.179 -0.108 Q 0.17300000000000001 -0.082 0.17300000000000001 -0.065 Q 0.17300000000000001 -0.052000000000000005 0.17500000000000002 -0.044 Q 0.177 -0.036000000000000004 0.1815 -0.0325 Q 0.186 -0.029 0.189 -0.0285 Q 0.192 -0.028 0.197 -0.028 Q 0.23 -0.028 0.267 -0.057 Q 0.304 -0.08600000000000001 0.33 -0.146 Q 0.335 -0.157 0.3385 -0.1595 Q 0.342 -0.162 0.355 -0.162 Q 0.379 -0.162 0.379 -0.148 Q 0.379 -0.14 0.366 -0.116 Q 0.353 -0.092 0.3305 -0.0635 Q 0.308 -0.035 0.2705 -0.0135 Q 0.233 0.008 0.192 0.008 Q 0.14100000000000001 0.008 0.10350000000000001 -0.018000000000000002 Q 0.066 -0.044 0.066 -0.09 Q 0.066 -0.106 0.083 -0.169 L 0.14 -0.397 L 0.059000000000000004 -0.397 Q 0.047 -0.397 0.0415 -0.3975 Q 0.036000000000000004 -0.398 0.0305 -0.4025 Q 0.025 -0.40700000000000003 0.025 -0.41500000000000004 Q 0.025 -0.429 0.031 -0.4355 Q 0.037 -0.442 0.043000000000000003 -0.443 Q 0.049 -0.444 0.062 -0.444 L 0.152 -0.444 L 0.17200000000000001 -0.526 Q 0.19 -0.598 0.195 -0.608 Q 0.215 -0.643 0.253 -0.643 Q 0.271 -0.643 0.28550000000000003 -0.632 Q 0.3 -0.621 0.3 -0.599 Q 0.3 -0.589 0.296 -0.5730000000000001 L 0.264 -0.444 L 0.34400000000000003 -0.444 Q 0.377 -0.444 0.377 -0.426 Q 0.377 -0.40800000000000003 0.368 -0.402 Q 0.363 -0.397 0.341 -0.397 L 0.252 -0.397 Z"/></g><g transform="translate(13.931238095238095,3.694)"><path fill="rgb(0,0,0)" stroke="none" paint-order="stroke fill markers" d=" M 0.852 -0.673 L 0.795 -0.448 Q 0.791 -0.432 0.787 -0.429 Q 0.783 -0.426 0.767 -0.426 Q 0.74 -0.426 0.74 -0.441 Q 0.74 -0.446 0.7415 -0.458 Q 0.743 -0.47000000000000003 0.743 -0.47600000000000003 Q 0.743 -0.55 0.6990000000000001 -0.603 Q 0.655 -0.656 0.5700000000000001 -0.656 Q 0.49 -0.656 0.4205 -0.625 Q 0.35100000000000003 -0.594 0.309 -0.544 Q 0.264 -0.492 0.23600000000000002 -0.41250000000000003 Q 0.20800000000000002 -0.333 0.201 -0.28550000000000003 Q 0.194 -0.23800000000000002 0.194 -0.212 Q 0.194 -0.12 0.252 -0.076 Q 0.311 -0.03 0.40800000000000003 -0.03 Q 0.498 -0.03 0.581 -0.084 Q 0.664 -0.138 0.6930000000000001 -0.229 Q 0.6970000000000001 -0.242 0.7005 -0.245 Q 0.704 -0.248 0.718 -0.248 Q 0.741 -0.248 0.741 -0.234 Q 0.741 -0.226 0.734 -0.20400000000000001 Q 0.727 -0.182 0.6980000000000001 -0.1395 Q 0.669 -0.097 0.626 -0.065 Q 0.515 0.017 0.381 0.017 Q 0.24 0.017 0.1475 -0.051000000000000004 Q 0.055 -0.11900000000000001 0.055 -0.253 Q 0.055 -0.315 0.0755 -0.3785 Q 0.096 -0.442 0.1385 -0.5 Q 0.181 -0.558 0.23900000000000002 -0.6035 Q 0.297 -0.649 0.379 -0.676 Q 0.461 -0.7030000000000001 0.554 -0.7030000000000001 Q 0.672 -0.7030000000000001 0.737 -0.631 L 0.8300000000000001 -0.7030000000000001 Q 0.855 -0.7030000000000001 0.855 -0.6890000000000001 Q 0.855 -0.6880000000000001 0.852 -0.673 Z"/></g><g transform="translate(15.151238095238096,3.694)"><path fill="rgb(0,0,0)" stroke="none" paint-order="stroke fill markers" d=" M 0.252 -0.397 L 0.179 -0.108 Q 0.17300000000000001 -0.082 0.17300000000000001 -0.065 Q 0.17300000000000001 -0.052000000000000005 0.17500000000000002 -0.044 Q 0.177 -0.036000000000000004 0.1815 -0.0325 Q 0.186 -0.029 0.189 -0.0285 Q 0.192 -0.028 0.197 -0.028 Q 0.23 -0.028 0.267 -0.057 Q 0.304 -0.08600000000000001 0.33 -0.146 Q 0.335 -0.157 0.3385 -0.1595 Q 0.342 -0.162 0.355 -0.162 Q 0.379 -0.162 0.379 -0.148 Q 0.379 -0.14 0.366 -0.116 Q 0.353 -0.092 0.3305 -0.0635 Q 0.308 -0.035 0.2705 -0.0135 Q 0.233 0.008 0.192 0.008 Q 0.14100000000000001 0.008 0.10350000000000001 -0.018000000000000002 Q 0.066 -0.044 0.066 -0.09 Q 0.066 -0.106 0.083 -0.169 L 0.14 -0.397 L 0.059000000000000004 -0.397 Q 0.047 -0.397 0.0415 -0.3975 Q 0.036000000000000004 -0.398 0.0305 -0.4025 Q 0.025 -0.40700000000000003 0.025 -0.41500000000000004 Q 0.025 -0.429 0.031 -0.4355 Q 0.037 -0.442 0.043000000000000003 -0.443 Q 0.049 -0.444 0.062 -0.444 L 0.152 -0.444 L 0.17200000000000001 -0.526 Q 0.19 -0.598 0.195 -0.608 Q 0.215 -0.643 0.253 -0.643 Q 0.271 -0.643 0.28550000000000003 -0.632 Q 0.3 -0.621 0.3 -0.599 Q 0.3 -0.589 0.296 -0.5730000000000001 L 0.264 -0.444 L 0.34400000000000003 -0.444 Q 0.377 -0.444 0.377 -0.426 Q 0.377 -0.40800000000000003 0.368 -0.402 Q 0.363 -0.397 0.341 -0.397 L 0.252 -0.397 Z"/></g><g transform="translate(15.566238095238095,3.694)"><path fill="rgb(0,0,0)" stroke="none" paint-order="stroke fill markers" d=" M 0.444 -0.402 Q 0.43 -0.41600000000000004 0.405 -0.41600000000000004 Q 0.341 -0.41600000000000004 0.295 -0.358 Q 0.28300000000000003 -0.34400000000000003 0.278 -0.326 Q 0.277 -0.322 0.243 -0.185 Q 0.209 -0.048 0.20800000000000002 -0.045 Q 0.201 -0.017 0.181 -0.0045000000000000005 Q 0.161 0.008 0.14200000000000002 0.008 Q 0.12 0.008 0.1075 -0.0055 Q 0.095 -0.019 0.095 -0.036000000000000004 L 0.113 -0.114 Q 0.124 -0.155 0.133 -0.196 Q 0.136 -0.20800000000000002 0.147 -0.2515 Q 0.158 -0.295 0.161 -0.304 Q 0.17500000000000002 -0.364 0.17500000000000002 -0.38 Q 0.17500000000000002 -0.41600000000000004 0.152 -0.41600000000000004 Q 0.109 -0.41600000000000004 0.084 -0.316 Q 0.077 -0.28800000000000003 0.076 -0.28700000000000003 Q 0.07100000000000001 -0.28200000000000003 0.056 -0.28200000000000003 Q 0.032 -0.28200000000000003 0.032 -0.296 Q 0.032 -0.304 0.043000000000000003 -0.337 Q 0.054 -0.37 0.07 -0.395 Q 0.105 -0.452 0.157 -0.452 Q 0.19 -0.452 0.224 -0.4375 Q 0.258 -0.423 0.274 -0.392 Q 0.33 -0.452 0.40700000000000003 -0.452 Q 0.452 -0.452 0.47850000000000004 -0.4265 Q 0.505 -0.401 0.505 -0.365 Q 0.505 -0.329 0.483 -0.3075 Q 0.461 -0.28600000000000003 0.433 -0.28600000000000003 Q 0.41000000000000003 -0.28600000000000003 0.3965 -0.3 Q 0.383 -0.314 0.383 -0.332 Q 0.383 -0.341 0.386 -0.3525 Q 0.389 -0.364 0.404 -0.3805 Q 0.419 -0.397 0.444 -0.402 Z"/></g><g transform="translate(16.127238095238095,3.694)"><path fill="rgb(0,0,0)" stroke="none" paint-order="stroke fill markers" d=" M 0.5690000000000001 -0.279 Q 0.5690000000000001 -0.23 0.5485 -0.1805 Q 0.528 -0.131 0.49 -0.0885 Q 0.452 -0.046 0.3905 -0.019 Q 0.329 0.008 0.254 0.008 Q 0.156 0.008 0.101 -0.038 Q 0.046 -0.084 0.046 -0.165 Q 0.046 -0.214 0.0665 -0.2635 Q 0.08700000000000001 -0.313 0.125 -0.3555 Q 0.163 -0.398 0.2245 -0.425 Q 0.28600000000000003 -0.452 0.361 -0.452 Q 0.459 -0.452 0.514 -0.406 Q 0.5690000000000001 -0.36 0.5690000000000001 -0.279 M 0.189 -0.049 Q 0.189 -0.049 0.203 -0.0385 Q 0.217 -0.028 0.256 -0.028 Q 0.295 -0.028 0.3335 -0.049 Q 0.372 -0.07 0.398 -0.115 Q 0.419 -0.152 0.4365 -0.2225 Q 0.454 -0.293 0.454 -0.323 Q 0.454 -0.374 0.426 -0.395 Q 0.398 -0.41600000000000004 0.359 -0.41600000000000004 Q 0.32 -0.41600000000000004 0.28150000000000003 -0.395 Q 0.243 -0.374 0.217 -0.329 Q 0.196 -0.292 0.1785 -0.2215 Q 0.161 -0.151 0.161 -0.121 Q 0.161 -0.07 0.189 -0.049 Z"/></g><g transform="translate(16.712238095238096,3.694)"><path fill="rgb(0,0,0)" stroke="none" paint-order="stroke fill markers" d=" M 0.334 -0.646 Q 0.334 -0.62 0.312 -0.5985 Q 0.29 -0.577 0.263 -0.577 Q 0.242 -0.577 0.228 -0.5905 Q 0.214 -0.604 0.214 -0.625 Q 0.214 -0.651 0.23550000000000001 -0.6725 Q 0.257 -0.6940000000000001 0.28500000000000003 -0.6940000000000001 Q 0.306 -0.6940000000000001 0.32 -0.68 Q 0.334 -0.666 0.334 -0.646 M 0.359 -0.148 Q 0.359 -0.132 0.343 -0.0975 Q 0.327 -0.063 0.289 -0.0275 Q 0.251 0.008 0.20400000000000001 0.008 Q 0.157 0.008 0.1235 -0.0175 Q 0.09 -0.043000000000000003 0.09 -0.082 Q 0.09 -0.095 0.098 -0.116 L 0.165 -0.289 Q 0.198 -0.372 0.198 -0.394 Q 0.198 -0.41600000000000004 0.182 -0.41600000000000004 Q 0.168 -0.41600000000000004 0.1525 -0.40850000000000003 Q 0.137 -0.401 0.115 -0.372 Q 0.093 -0.343 0.079 -0.295 Q 0.075 -0.28200000000000003 0.056 -0.28200000000000003 Q 0.032 -0.28200000000000003 0.032 -0.296 Q 0.032 -0.312 0.048 -0.34650000000000003 Q 0.064 -0.381 0.10200000000000001 -0.4165 Q 0.14 -0.452 0.187 -0.452 Q 0.234 -0.452 0.2675 -0.4265 Q 0.301 -0.401 0.301 -0.362 Q 0.301 -0.34900000000000003 0.293 -0.328 L 0.226 -0.155 Q 0.193 -0.07200000000000001 0.193 -0.05 Q 0.193 -0.028 0.209 -0.028 Q 0.223 -0.028 0.23850000000000002 -0.035500000000000004 Q 0.254 -0.043000000000000003 0.276 -0.07200000000000001 Q 0.298 -0.101 0.312 -0.149 Q 0.316 -0.162 0.335 -0.162 Q 0.359 -0.162 0.359 -0.148 Z"/></g><g transform="translate(17.117238095238097,3.694)"><path fill="rgb(0,0,0)" stroke="none" paint-order="stroke fill markers" d=" M 0.41400000000000003 -0.394 Q 0.384 -0.41600000000000004 0.331 -0.41600000000000004 Q 0.292 -0.41600000000000004 0.2665 -0.405 Q 0.241 -0.394 0.2325 -0.3775 Q 0.224 -0.361 0.2215 -0.353 Q 0.219 -0.34500000000000003 0.219 -0.339 Q 0.219 -0.321 0.233 -0.3105 Q 0.247 -0.3 0.2625 -0.2955 Q 0.278 -0.291 0.313 -0.28500000000000003 Q 0.385 -0.273 0.417 -0.245 Q 0.457 -0.21 0.457 -0.164 Q 0.457 -0.159 0.4555 -0.1505 Q 0.454 -0.14200000000000002 0.4485 -0.11950000000000001 Q 0.443 -0.097 0.428 -0.077 Q 0.41300000000000003 -0.057 0.39 -0.0365 Q 0.367 -0.016 0.325 -0.004 Q 0.28300000000000003 0.008 0.229 0.008 Q 0.15 0.008 0.10350000000000001 -0.0175 Q 0.057 -0.043000000000000003 0.057 -0.091 Q 0.057 -0.126 0.079 -0.1475 Q 0.101 -0.169 0.129 -0.169 Q 0.148 -0.169 0.163 -0.158 Q 0.178 -0.147 0.178 -0.123 Q 0.178 -0.1 0.163 -0.0805 Q 0.148 -0.061 0.123 -0.054 Q 0.159 -0.028 0.231 -0.028 Q 0.28200000000000003 -0.028 0.316 -0.0415 Q 0.35000000000000003 -0.055 0.362 -0.075 Q 0.374 -0.095 0.377 -0.1055 Q 0.38 -0.116 0.38 -0.123 Q 0.38 -0.169 0.29 -0.184 Q 0.234 -0.195 0.2155 -0.2005 Q 0.197 -0.20600000000000002 0.177 -0.222 Q 0.14100000000000001 -0.251 0.14100000000000001 -0.298 Q 0.14100000000000001 -0.322 0.1565 -0.357 Q 0.17200000000000001 -0.392 0.202 -0.41500000000000004 Q 0.251 -0.452 0.333 -0.452 Q 0.4 -0.452 0.438 -0.428 Q 0.47600000000000003 -0.404 0.47600000000000003 -0.364 Q 0.47600000000000003 -0.331 0.4565 -0.3135 Q 0.437 -0.296 0.41500000000000004 -0.296 Q 0.398 -0.296 0.385 -0.307 Q 0.372 -0.318 0.372 -0.337 Q 0.372 -0.35100000000000003 0.382 -0.368 Q 0.392 -0.385 0.41400000000000003 -0.394 Z"/></g><g transform="translate(17.981238095238094,3.694)"><path fill="rgb(0,0,0)" stroke="none" paint-order="stroke fill markers" d=" M 0.052000000000000005 0.129 L 0.169 -0.336 Q 0.17500000000000002 -0.357 0.17500000000000002 -0.379 Q 0.17500000000000002 -0.41600000000000004 0.152 -0.41600000000000004 Q 0.109 -0.41600000000000004 0.084 -0.316 Q 0.077 -0.28800000000000003 0.076 -0.28700000000000003 Q 0.07100000000000001 -0.28200000000000003 0.056 -0.28200000000000003 Q 0.032 -0.28200000000000003 0.032 -0.296 Q 0.032 -0.304 0.043000000000000003 -0.3365 Q 0.054 -0.369 0.07 -0.395 Q 0.10300000000000001 -0.452 0.157 -0.452 Q 0.234 -0.452 0.272 -0.398 Q 0.33 -0.452 0.41100000000000003 -0.452 Q 0.483 -0.452 0.5345 -0.41200000000000003 Q 0.586 -0.372 0.586 -0.28700000000000003 Q 0.586 -0.176 0.5065000000000001 -0.084 Q 0.427 0.008 0.304 0.008 Q 0.242 0.008 0.203 -0.028 L 0.16 0.146 Q 0.17300000000000001 0.147 0.203 0.147 Q 0.229 0.147 0.229 0.165 Q 0.229 0.194 0.203 0.194 Q 0.186 0.194 0.15 0.1925 Q 0.114 0.191 0.096 0.191 Q 0.081 0.191 0.0495 0.1925 Q 0.018000000000000002 0.194 0.004 0.194 Q -0.015 0.194 -0.015 0.17500000000000002 Q -0.015 0.162 -0.009000000000000001 0.1555 Q -0.003 0.149 0.003 0.148 Q 0.009000000000000001 0.147 0.02 0.147 Q 0.04 0.147 0.046 0.145 Q 0.048 0.14300000000000002 0.052000000000000005 0.129 M 0.28200000000000003 -0.35100000000000003 L 0.221 -0.1 L 0.219 -0.08600000000000001 Q 0.219 -0.07200000000000001 0.2415 -0.05 Q 0.264 -0.028 0.302 -0.028 Q 0.381 -0.028 0.423 -0.126 Q 0.437 -0.16 0.455 -0.232 Q 0.47300000000000003 -0.304 0.47300000000000003 -0.34 Q 0.47300000000000003 -0.41600000000000004 0.406 -0.41600000000000004 Q 0.372 -0.41600000000000004 0.339 -0.3975 Q 0.306 -0.379 0.28200000000000003 -0.35100000000000003 Z"/></g><g transform="translate(18.582238095238093,3.694)"><path fill="rgb(0,0,0)" stroke="none" paint-order="stroke fill markers" d=" M 0.5690000000000001 -0.279 Q 0.5690000000000001 -0.23 0.5485 -0.1805 Q 0.528 -0.131 0.49 -0.0885 Q 0.452 -0.046 0.3905 -0.019 Q 0.329 0.008 0.254 0.008 Q 0.156 0.008 0.101 -0.038 Q 0.046 -0.084 0.046 -0.165 Q 0.046 -0.214 0.0665 -0.2635 Q 0.08700000000000001 -0.313 0.125 -0.3555 Q 0.163 -0.398 0.2245 -0.425 Q 0.28600000000000003 -0.452 0.361 -0.452 Q 0.459 -0.452 0.514 -0.406 Q 0.5690000000000001 -0.36 0.5690000000000001 -0.279 M 0.189 -0.049 Q 0.189 -0.049 0.203 -0.0385 Q 0.217 -0.028 0.256 -0.028 Q 0.295 -0.028 0.3335 -0.049 Q 0.372 -0.07 0.398 -0.115 Q 0.419 -0.152 0.4365 -0.2225 Q 0.454 -0.293 0.454 -0.323 Q 0.454 -0.374 0.426 -0.395 Q 0.398 -0.41600000000000004 0.359 -0.41600000000000004 Q 0.32 -0.41600000000000004 0.28150000000000003 -0.395 Q 0.243 -0.374 0.217 -0.329 Q 0.196 -0.292 0.1785 -0.2215 Q 0.161 -0.151 0.161 -0.121 Q 0.161 -0.07 0.189 -0.049 Z"/></g><g transform="translate(19.167238095238094,3.694)"><path fill="rgb(0,0,0)" stroke="none" paint-order="stroke fill markers" d=" M 0.334 -0.646 Q 0.334 -0.62 0.312 -0.5985 Q 0.29 -0.577 0.263 -0.577 Q 0.242 -0.577 0.228 -0.5905 Q 0.214 -0.604 0.214 -0.625 Q 0.214 -0.651 0.23550000000000001 -0.6725 Q 0.257 -0.6940000000000001 0.28500000000000003 -0.6940000000000001 Q 0.306 -0.6940000000000001 0.32 -0.68 Q 0.334 -0.666 0.334 -0.646 M 0.359 -0.148 Q 0.359 -0.132 0.343 -0.0975 Q 0.327 -0.063 0.289 -0.0275 Q 0.251 0.008 0.20400000000000001 0.008 Q 0.157 0.008 0.1235 -0.0175 Q 0.09 -0.043000000000000003 0.09 -0.082 Q 0.09 -0.095 0.098 -0.116 L 0.165 -0.289 Q 0.198 -0.372 0.198 -0.394 Q 0.198 -0.41600000000000004 0.182 -0.41600000000000004 Q 0.168 -0.41600000000000004 0.1525 -0.40850000000000003 Q 0.137 -0.401 0.115 -0.372 Q 0.093 -0.343 0.079 -0.295 Q 0.075 -0.28200000000000003 0.056 -0.28200000000000003 Q 0.032 -0.28200000000000003 0.032 -0.296 Q 0.032 -0.312 0.048 -0.34650000000000003 Q 0.064 -0.381 0.10200000000000001 -0.4165 Q 0.14 -0.452 0.187 -0.452 Q 0.234 -0.452 0.2675 -0.4265 Q 0.301 -0.401 0.301 -0.362 Q 0.301 -0.34900000000000003 0.293 -0.328 L 0.226 -0.155 Q 0.193 -0.07200000000000001 0.193 -0.05 Q 0.193 -0.028 0.209 -0.028 Q 0.223 -0.028 0.23850000000000002 -0.035500000000000004 Q 0.254 -0.043000000000000003 0.276 -0.07200000000000001 Q 0.298 -0.101 0.312 -0.149 Q 0.316 -0.162 0.335 -0.162 Q 0.359 -0.162 0.359 -0.148 Z"/></g><g transform="translate(19.572238095238095,3.694)"><path fill="rgb(0,0,0)" stroke="none" paint-order="stroke fill markers" d=" M 0.28 -0.376 Q 0.35100000000000003 -0.452 0.445 -0.452 Q 0.509 -0.452 0.5515 -0.4255 Q 0.594 -0.399 0.594 -0.336 Q 0.594 -0.281 0.532 -0.122 Q 0.512 -0.07200000000000001 0.512 -0.049 Q 0.512 -0.039 0.515 -0.034 Q 0.518 -0.029 0.521 -0.0285 Q 0.524 -0.028 0.529 -0.028 Q 0.538 -0.028 0.548 -0.032 Q 0.558 -0.036000000000000004 0.5735 -0.0465 Q 0.589 -0.057 0.6045 -0.0835 Q 0.62 -0.11 0.632 -0.149 Q 0.636 -0.162 0.655 -0.162 Q 0.679 -0.162 0.679 -0.148 Q 0.679 -0.138 0.669 -0.1145 Q 0.659 -0.091 0.641 -0.0625 Q 0.623 -0.034 0.5915 -0.013000000000000001 Q 0.56 0.008 0.523 0.008 Q 0.47800000000000004 0.008 0.444 -0.0165 Q 0.41000000000000003 -0.041 0.41000000000000003 -0.082 Q 0.41000000000000003 -0.099 0.424 -0.133 Q 0.487 -0.299 0.487 -0.357 Q 0.487 -0.41600000000000004 0.437 -0.41600000000000004 Q 0.384 -0.41600000000000004 0.334 -0.377 Q 0.312 -0.359 0.2925 -0.3325 Q 0.273 -0.306 0.272 -0.299 Q 0.271 -0.297 0.257 -0.241 Q 0.243 -0.185 0.241 -0.18 Q 0.227 -0.12 0.213 -0.068 Q 0.209 -0.053 0.20550000000000002 -0.043000000000000003 Q 0.202 -0.033 0.1945 -0.0195 Q 0.187 -0.006 0.17350000000000002 0.001 Q 0.16 0.008 0.14200000000000002 0.008 Q 0.12 0.008 0.1075 -0.0055 Q 0.095 -0.019 0.095 -0.036000000000000004 Q 0.095 -0.039 0.10300000000000001 -0.076 L 0.139 -0.216 Q 0.14400000000000002 -0.23800000000000002 0.161 -0.306 Q 0.17500000000000002 -0.362 0.17500000000000002 -0.379 Q 0.17500000000000002 -0.41600000000000004 0.152 -0.41600000000000004 Q 0.11 -0.41600000000000004 0.084 -0.316 Q 0.077 -0.28800000000000003 0.076 -0.28700000000000003 Q 0.07100000000000001 -0.28200000000000003 0.056 -0.28200000000000003 Q 0.032 -0.28200000000000003 0.032 -0.296 Q 0.032 -0.304 0.043000000000000003 -0.3365 Q 0.054 -0.369 0.07 -0.395 Q 0.105 -0.452 0.157 -0.452 Q 0.2 -0.452 0.23500000000000001 -0.432 Q 0.27 -0.41200000000000003 0.28 -0.376 Z"/></g><g transform="translate(20.285238095238096,3.694)"><path fill="rgb(0,0,0)" stroke="none" paint-order="stroke fill markers" d=" M 0.252 -0.397 L 0.179 -0.108 Q 0.17300000000000001 -0.082 0.17300000000000001 -0.065 Q 0.17300000000000001 -0.052000000000000005 0.17500000000000002 -0.044 Q 0.177 -0.036000000000000004 0.1815 -0.0325 Q 0.186 -0.029 0.189 -0.0285 Q 0.192 -0.028 0.197 -0.028 Q 0.23 -0.028 0.267 -0.057 Q 0.304 -0.08600000000000001 0.33 -0.146 Q 0.335 -0.157 0.3385 -0.1595 Q 0.342 -0.162 0.355 -0.162 Q 0.379 -0.162 0.379 -0.148 Q 0.379 -0.14 0.366 -0.116 Q 0.353 -0.092 0.3305 -0.0635 Q 0.308 -0.035 0.2705 -0.0135 Q 0.233 0.008 0.192 0.008 Q 0.14100000000000001 0.008 0.10350000000000001 -0.018000000000000002 Q 0.066 -0.044 0.066 -0.09 Q 0.066 -0.106 0.083 -0.169 L 0.14 -0.397 L 0.059000000000000004 -0.397 Q 0.047 -0.397 0.0415 -0.3975 Q 0.036000000000000004 -0.398 0.0305 -0.4025 Q 0.025 -0.40700000000000003 0.025 -0.41500000000000004 Q 0.025 -0.429 0.031 -0.4355 Q 0.037 -0.442 0.043000000000000003 -0.443 Q 0.049 -0.444 0.062 -0.444 L 0.152 -0.444 L 0.17200000000000001 -0.526 Q 0.19 -0.598 0.195 -0.608 Q 0.215 -0.643 0.253 -0.643 Q 0.271 -0.643 0.28550000000000003 -0.632 Q 0.3 -0.621 0.3 -0.599 Q 0.3 -0.589 0.296 -0.5730000000000001 L 0.264 -0.444 L 0.34400000000000003 -0.444 Q 0.377 -0.444 0.377 -0.426 Q 0.377 -0.40800000000000003 0.368 -0.402 Q 0.363 -0.397 0.341 -0.397 L 0.252 -0.397 Z"/></g><g transform="translate(20.700238095238095,3.694)"><path fill="rgb(0,0,0)" stroke="none" paint-order="stroke fill markers" d=" M 0.41400000000000003 -0.394 Q 0.384 -0.41600000000000004 0.331 -0.41600000000000004 Q 0.292 -0.41600000000000004 0.2665 -0.405 Q 0.241 -0.394 0.2325 -0.3775 Q 0.224 -0.361 0.2215 -0.353 Q 0.219 -0.34500000000000003 0.219 -0.339 Q 0.219 -0.321 0.233 -0.3105 Q 0.247 -0.3 0.2625 -0.2955 Q 0.278 -0.291 0.313 -0.28500000000000003 Q 0.385 -0.273 0.417 -0.245 Q 0.457 -0.21 0.457 -0.164 Q 0.457 -0.159 0.4555 -0.1505 Q 0.454 -0.14200000000000002 0.4485 -0.11950000000000001 Q 0.443 -0.097 0.428 -0.077 Q 0.41300000000000003 -0.057 0.39 -0.0365 Q 0.367 -0.016 0.325 -0.004 Q 0.28300000000000003 0.008 0.229 0.008 Q 0.15 0.008 0.10350000000000001 -0.0175 Q 0.057 -0.043000000000000003 0.057 -0.091 Q 0.057 -0.126 0.079 -0.1475 Q 0.101 -0.169 0.129 -0.169 Q 0.148 -0.169 0.163 -0.158 Q 0.178 -0.147 0.178 -0.123 Q 0.178 -0.1 0.163 -0.0805 Q 0.148 -0.061 0.123 -0.054 Q 0.159 -0.028 0.231 -0.028 Q 0.28200000000000003 -0.028 0.316 -0.0415 Q 0.35000000000000003 -0.055 0.362 -0.075 Q 0.374 -0.095 0.377 -0.1055 Q 0.38 -0.116 0.38 -0.123 Q 0.38 -0.169 0.29 -0.184 Q 0.234 -0.195 0.2155 -0.2005 Q 0.197 -0.20600000000000002 0.177 -0.222 Q 0.14100000000000001 -0.251 0.14100000000000001 -0.298 Q 0.14100000000000001 -0.322 0.1565 -0.357 Q 0.17200000000000001 -0.392 0.202 -0.41500000000000004 Q 0.251 -0.452 0.333 -0.452 Q 0.4 -0.452 0.438 -0.428 Q 0.47600000000000003 -0.404 0.47600000000000003 -0.364 Q 0.47600000000000003 -0.331 0.4565 -0.3135 Q 0.437 -0.296 0.41500000000000004 -0.296 Q 0.398 -0.296 0.385 -0.307 Q 0.372 -0.318 0.372 -0.337 Q 0.372 -0.35100000000000003 0.382 -0.368 Q 0.392 -0.385 0.41400000000000003 -0.394 Z"/></g><g transform="translate(21.564238095238093,3.694)"><path fill="rgb(0,0,0)" stroke="none" paint-order="stroke fill markers" d=" M 0.28 -0.376 Q 0.35100000000000003 -0.452 0.445 -0.452 Q 0.509 -0.452 0.5515 -0.4255 Q 0.594 -0.399 0.594 -0.336 Q 0.594 -0.281 0.532 -0.122 Q 0.512 -0.07200000000000001 0.512 -0.049 Q 0.512 -0.039 0.515 -0.034 Q 0.518 -0.029 0.521 -0.0285 Q 0.524 -0.028 0.529 -0.028 Q 0.538 -0.028 0.548 -0.032 Q 0.558 -0.036000000000000004 0.5735 -0.0465 Q 0.589 -0.057 0.6045 -0.0835 Q 0.62 -0.11 0.632 -0.149 Q 0.636 -0.162 0.655 -0.162 Q 0.679 -0.162 0.679 -0.148 Q 0.679 -0.138 0.669 -0.1145 Q 0.659 -0.091 0.641 -0.0625 Q 0.623 -0.034 0.5915 -0.013000000000000001 Q 0.56 0.008 0.523 0.008 Q 0.47800000000000004 0.008 0.444 -0.0165 Q 0.41000000000000003 -0.041 0.41000000000000003 -0.082 Q 0.41000000000000003 -0.099 0.424 -0.133 Q 0.487 -0.299 0.487 -0.357 Q 0.487 -0.41600000000000004 0.437 -0.41600000000000004 Q 0.384 -0.41600000000000004 0.334 -0.377 Q 0.312 -0.359 0.2925 -0.3325 Q 0.273 -0.306 0.272 -0.299 Q 0.271 -0.297 0.257 -0.241 Q 0.243 -0.185 0.241 -0.18 Q 0.227 -0.12 0.213 -0.068 Q 0.209 -0.053 0.20550000000000002 -0.043000000000000003 Q 0.202 -0.033 0.1945 -0.0195 Q 0.187 -0.006 0.17350000000000002 0.001 Q 0.16 0.008 0.14200000000000002 0.008 Q 0.12 0.008 0.1075 -0.0055 Q 0.095 -0.019 0.095 -0.036000000000000004 Q 0.095 -0.039 0.10300000000000001 -0.076 L 0.139 -0.216 Q 0.14400000000000002 -0.23800000000000002 0.161 -0.306 Q 0.17500000000000002 -0.362 0.17500000000000002 -0.379 Q 0.17500000000000002 -0.41600000000000004 0.152 -0.41600000000000004 Q 0.11 -0.41600000000000004 0.084 -0.316 Q 0.077 -0.28800000000000003 0.076 -0.28700000000000003 Q 0.07100000000000001 -0.28200000000000003 0.056 -0.28200000000000003 Q 0.032 -0.28200000000000003 0.032 -0.296 Q 0.032 -0.304 0.043000000000000003 -0.3365 Q 0.054 -0.369 0.07 -0.395 Q 0.105 -0.452 0.157 -0.452 Q 0.2 -0.452 0.23500000000000001 -0.432 Q 0.27 -0.41200000000000003 0.28 -0.376 Z"/></g><g transform="translate(22.277238095238094,3.694)"><path fill="rgb(0,0,0)" stroke="none" paint-order="stroke fill markers" d=" M 0.5690000000000001 -0.279 Q 0.5690000000000001 -0.23 0.5485 -0.1805 Q 0.528 -0.131 0.49 -0.0885 Q 0.452 -0.046 0.3905 -0.019 Q 0.329 0.008 0.254 0.008 Q 0.156 0.008 0.101 -0.038 Q 0.046 -0.084 0.046 -0.165 Q 0.046 -0.214 0.0665 -0.2635 Q 0.08700000000000001 -0.313 0.125 -0.3555 Q 0.163 -0.398 0.2245 -0.425 Q 0.28600000000000003 -0.452 0.361 -0.452 Q 0.459 -0.452 0.514 -0.406 Q 0.5690000000000001 -0.36 0.5690000000000001 -0.279 M 0.189 -0.049 Q 0.189 -0.049 0.203 -0.0385 Q 0.217 -0.028 0.256 -0.028 Q 0.295 -0.028 0.3335 -0.049 Q 0.372 -0.07 0.398 -0.115 Q 0.419 -0.152 0.4365 -0.2225 Q 0.454 -0.293 0.454 -0.323 Q 0.454 -0.374 0.426 -0.395 Q 0.398 -0.41600000000000004 0.359 -0.41600000000000004 Q 0.32 -0.41600000000000004 0.28150000000000003 -0.395 Q 0.243 -0.374 0.217 -0.329 Q 0.196 -0.292 0.1785 -0.2215 Q 0.161 -0.151 0.161 -0.121 Q 0.161 -0.07 0.189 -0.049 Z"/></g><g transform="translate(22.862238095238094,3.694)"><path fill="rgb(0,0,0)" stroke="none" paint-order="stroke fill markers" d=" M 0.28 -0.376 Q 0.35100000000000003 -0.452 0.445 -0.452 Q 0.509 -0.452 0.5515 -0.4255 Q 0.594 -0.399 0.594 -0.336 Q 0.594 -0.281 0.532 -0.122 Q 0.512 -0.07200000000000001 0.512 -0.049 Q 0.512 -0.039 0.515 -0.034 Q 0.518 -0.029 0.521 -0.0285 Q 0.524 -0.028 0.529 -0.028 Q 0.538 -0.028 0.548 -0.032 Q 0.558 -0.036000000000000004 0.5735 -0.0465 Q 0.589 -0.057 0.6045 -0.0835 Q 0.62 -0.11 0.632 -0.149 Q 0.636 -0.162 0.655 -0.162 Q 0.679 -0.162 0.679 -0.148 Q 0.679 -0.138 0.669 -0.1145 Q 0.659 -0.091 0.641 -0.0625 Q 0.623 -0.034 0.5915 -0.013000000000000001 Q 0.56 0.008 0.523 0.008 Q 0.47800000000000004 0.008 0.444 -0.0165 Q 0.41000000000000003 -0.041 0.41000000000000003 -0.082 Q 0.41000000000000003 -0.099 0.424 -0.133 Q 0.487 -0.299 0.487 -0.357 Q 0.487 -0.41600000000000004 0.437 -0.41600000000000004 Q 0.384 -0.41600000000000004 0.334 -0.377 Q 0.312 -0.359 0.2925 -0.3325 Q 0.273 -0.306 0.272 -0.299 Q 0.271 -0.297 0.257 -0.241 Q 0.243 -0.185 0.241 -0.18 Q 0.227 -0.12 0.213 -0.068 Q 0.209 -0.053 0.20550000000000002 -0.043000000000000003 Q 0.202 -0.033 0.1945 -0.0195 Q 0.187 -0.006 0.17350000000000002 0.001 Q 0.16 0.008 0.14200000000000002 0.008 Q 0.12 0.008 0.1075 -0.0055 Q 0.095 -0.019 0.095 -0.036000000000000004 Q 0.095 -0.039 0.10300000000000001 -0.076 L 0.139 -0.216 Q 0.14400000000000002 -0.23800000000000002 0.161 -0.306 Q 0.17500000000000002 -0.362 0.17500000000000002 -0.379 Q 0.17500000000000002 -0.41600000000000004 0.152 -0.41600000000000004 Q 0.11 -0.41600000000000004 0.084 -0.316 Q 0.077 -0.28800000000000003 0.076 -0.28700000000000003 Q 0.07100000000000001 -0.28200000000000003 0.056 -0.28200000000000003 Q 0.032 -0.28200000000000003 0.032 -0.296 Q 0.032 -0.304 0.043000000000000003 -0.3365 Q 0.054 -0.369 0.07 -0.395 Q 0.105 -0.452 0.157 -0.452 Q 0.2 -0.452 0.23500000000000001 -0.432 Q 0.27 -0.41200000000000003 0.28 -0.376 Z"/></g><g transform="translate(23.908238095238094,3.694)"><path fill="rgb(0,0,0)" stroke="none" paint-order="stroke fill markers" d=" M 0.515 -0.317 L 0.492 -0.228 Q 0.487 -0.20600000000000002 0.47000000000000003 -0.138 Q 0.456 -0.082 0.456 -0.065 Q 0.456 -0.028 0.47900000000000004 -0.028 Q 0.522 -0.028 0.547 -0.128 Q 0.554 -0.156 0.555 -0.157 Q 0.56 -0.162 0.5750000000000001 -0.162 Q 0.599 -0.162 0.599 -0.148 Q 0.599 -0.14 0.588 -0.1075 Q 0.577 -0.075 0.561 -0.049 Q 0.528 0.008 0.47400000000000003 0.008 Q 0.397 0.008 0.359 -0.046 Q 0.301 0.008 0.22 0.008 Q 0.148 0.008 0.0965 -0.032 Q 0.045 -0.07200000000000001 0.045 -0.157 Q 0.045 -0.268 0.1245 -0.36 Q 0.20400000000000001 -0.452 0.327 -0.452 Q 0.394 -0.452 0.433 -0.41000000000000003 Q 0.453 -0.435 0.484 -0.435 Q 0.502 -0.435 0.5165 -0.424 Q 0.531 -0.41300000000000003 0.531 -0.391 Q 0.531 -0.384 0.515 -0.317 M 0.34900000000000003 -0.093 L 0.41000000000000003 -0.34400000000000003 L 0.41200000000000003 -0.358 Q 0.41200000000000003 -0.372 0.3895 -0.394 Q 0.367 -0.41600000000000004 0.329 -0.41600000000000004 Q 0.25 -0.41600000000000004 0.20800000000000002 -0.318 Q 0.194 -0.28400000000000003 0.176 -0.212 Q 0.158 -0.14 0.158 -0.10400000000000001 Q 0.158 -0.028 0.225 -0.028 Q 0.259 -0.028 0.292 -0.0465 Q 0.325 -0.065 0.34900000000000003 -0.093 Z"/></g><g transform="translate(24.541238095238093,3.694)"><path fill="rgb(0,0,0)" stroke="none" paint-order="stroke fill markers" d=" M 0.28400000000000003 -0.659 L 0.146 -0.108 Q 0.14 -0.08 0.14 -0.064 Q 0.14 -0.028 0.163 -0.028 Q 0.20600000000000002 -0.028 0.231 -0.128 Q 0.23800000000000002 -0.156 0.23900000000000002 -0.157 Q 0.244 -0.162 0.259 -0.162 Q 0.28300000000000003 -0.162 0.28300000000000003 -0.148 Q 0.28300000000000003 -0.14 0.272 -0.107 Q 0.261 -0.074 0.245 -0.049 Q 0.21 0.008 0.158 0.008 Q 0.109 0.008 0.07100000000000001 -0.018000000000000002 Q 0.033 -0.044 0.033 -0.09 Q 0.033 -0.106 0.038 -0.124 L 0.166 -0.637 Q 0.153 -0.639 0.124 -0.639 Q 0.098 -0.639 0.098 -0.657 Q 0.098 -0.67 0.10400000000000001 -0.677 Q 0.11 -0.684 0.115 -0.685 Q 0.12 -0.686 0.13 -0.687 L 0.259 -0.6930000000000001 Q 0.261 -0.6940000000000001 0.266 -0.6940000000000001 Q 0.28800000000000003 -0.6940000000000001 0.28800000000000003 -0.676 Q 0.28800000000000003 -0.673 0.28400000000000003 -0.659 Z"/></g><g transform="translate(24.898238095238092,3.694)"><path fill="rgb(0,0,0)" stroke="none" paint-order="stroke fill markers" d=" M 0.334 -0.646 Q 0.334 -0.62 0.312 -0.5985 Q 0.29 -0.577 0.263 -0.577 Q 0.242 -0.577 0.228 -0.5905 Q 0.214 -0.604 0.214 -0.625 Q 0.214 -0.651 0.23550000000000001 -0.6725 Q 0.257 -0.6940000000000001 0.28500000000000003 -0.6940000000000001 Q 0.306 -0.6940000000000001 0.32 -0.68 Q 0.334 -0.666 0.334 -0.646 M 0.359 -0.148 Q 0.359 -0.132 0.343 -0.0975 Q 0.327 -0.063 0.289 -0.0275 Q 0.251 0.008 0.20400000000000001 0.008 Q 0.157 0.008 0.1235 -0.0175 Q 0.09 -0.043000000000000003 0.09 -0.082 Q 0.09 -0.095 0.098 -0.116 L 0.165 -0.289 Q 0.198 -0.372 0.198 -0.394 Q 0.198 -0.41600000000000004 0.182 -0.41600000000000004 Q 0.168 -0.41600000000000004 0.1525 -0.40850000000000003 Q 0.137 -0.401 0.115 -0.372 Q 0.093 -0.343 0.079 -0.295 Q 0.075 -0.28200000000000003 0.056 -0.28200000000000003 Q 0.032 -0.28200000000000003 0.032 -0.296 Q 0.032 -0.312 0.048 -0.34650000000000003 Q 0.064 -0.381 0.10200000000000001 -0.4165 Q 0.14 -0.452 0.187 -0.452 Q 0.234 -0.452 0.2675 -0.4265 Q 0.301 -0.401 0.301 -0.362 Q 0.301 -0.34900000000000003 0.293 -0.328 L 0.226 -0.155 Q 0.193 -0.07200000000000001 0.193 -0.05 Q 0.193 -0.028 0.209 -0.028 Q 0.223 -0.028 0.23850000000000002 -0.035500000000000004 Q 0.254 -0.043000000000000003 0.276 -0.07200000000000001 Q 0.298 -0.101 0.312 -0.149 Q 0.316 -0.162 0.335 -0.162 Q 0.359 -0.162 0.359 -0.148 Z"/></g><g transform="translate(25.303238095238093,3.694)"><path fill="rgb(0,0,0)" stroke="none" paint-order="stroke fill markers" d=" M 0.53 -0.365 L 0.423 0.061 Q 0.41200000000000003 0.10400000000000001 0.3835 0.1335 Q 0.355 0.163 0.3155 0.177 Q 0.276 0.191 0.24 0.1965 Q 0.20400000000000001 0.202 0.165 0.202 Q 0.132 0.202 0.109 0.2 Q 0.08600000000000001 0.198 0.059500000000000004 0.192 Q 0.033 0.186 0.0195 0.1705 Q 0.006 0.155 0.006 0.132 Q 0.006 0.099 0.028 0.0785 Q 0.05 0.058 0.077 0.058 Q 0.1 0.058 0.1135 0.07200000000000001 Q 0.127 0.08600000000000001 0.127 0.10400000000000001 Q 0.127 0.14 0.096 0.162 Q 0.122 0.166 0.164 0.166 Q 0.224 0.166 0.266 0.131 Q 0.301 0.10300000000000001 0.315 0.044 Q 0.322 0.019 0.334 -0.031 Q 0.28300000000000003 0 0.224 0 Q 0.152 0 0.1005 -0.0405 Q 0.049 -0.081 0.049 -0.163 Q 0.049 -0.231 0.0815 -0.296 Q 0.114 -0.361 0.18 -0.40650000000000003 Q 0.246 -0.452 0.33 -0.452 Q 0.398 -0.452 0.436 -0.41100000000000003 Q 0.457 -0.435 0.487 -0.435 Q 0.505 -0.435 0.5195 -0.424 Q 0.534 -0.41300000000000003 0.534 -0.391 Q 0.534 -0.381 0.53 -0.365 M 0.355 -0.113 L 0.41300000000000003 -0.34500000000000003 Q 0.41600000000000004 -0.356 0.41600000000000004 -0.36 Q 0.41600000000000004 -0.372 0.394 -0.394 Q 0.372 -0.41600000000000004 0.332 -0.41600000000000004 Q 0.251 -0.41600000000000004 0.21 -0.316 Q 0.197 -0.28300000000000003 0.1795 -0.2135 Q 0.162 -0.14400000000000002 0.162 -0.111 Q 0.162 -0.073 0.1805 -0.0545 Q 0.199 -0.036000000000000004 0.23 -0.036000000000000004 Q 0.28600000000000003 -0.036000000000000004 0.339 -0.084 Q 0.34900000000000003 -0.094 0.355 -0.113 Z"/></g><g transform="translate(25.885238095238094,3.694)"><path fill="rgb(0,0,0)" stroke="none" paint-order="stroke fill markers" d=" M 0.28 -0.376 Q 0.35100000000000003 -0.452 0.445 -0.452 Q 0.509 -0.452 0.5515 -0.4255 Q 0.594 -0.399 0.594 -0.336 Q 0.594 -0.281 0.532 -0.122 Q 0.512 -0.07200000000000001 0.512 -0.049 Q 0.512 -0.039 0.515 -0.034 Q 0.518 -0.029 0.521 -0.0285 Q 0.524 -0.028 0.529 -0.028 Q 0.538 -0.028 0.548 -0.032 Q 0.558 -0.036000000000000004 0.5735 -0.0465 Q 0.589 -0.057 0.6045 -0.0835 Q 0.62 -0.11 0.632 -0.149 Q 0.636 -0.162 0.655 -0.162 Q 0.679 -0.162 0.679 -0.148 Q 0.679 -0.138 0.669 -0.1145 Q 0.659 -0.091 0.641 -0.0625 Q 0.623 -0.034 0.5915 -0.013000000000000001 Q 0.56 0.008 0.523 0.008 Q 0.47800000000000004 0.008 0.444 -0.0165 Q 0.41000000000000003 -0.041 0.41000000000000003 -0.082 Q 0.41000000000000003 -0.099 0.424 -0.133 Q 0.487 -0.299 0.487 -0.357 Q 0.487 -0.41600000000000004 0.437 -0.41600000000000004 Q 0.384 -0.41600000000000004 0.334 -0.377 Q 0.312 -0.359 0.2925 -0.3325 Q 0.273 -0.306 0.272 -0.299 Q 0.271 -0.297 0.257 -0.241 Q 0.243 -0.185 0.241 -0.18 Q 0.227 -0.12 0.213 -0.068 Q 0.209 -0.053 0.20550000000000002 -0.043000000000000003 Q 0.202 -0.033 0.1945 -0.0195 Q 0.187 -0.006 0.17350000000000002 0.001 Q 0.16 0.008 0.14200000000000002 0.008 Q 0.12 0.008 0.1075 -0.0055 Q 0.095 -0.019 0.095 -0.036000000000000004 Q 0.095 -0.039 0.10300000000000001 -0.076 L 0.139 -0.216 Q 0.14400000000000002 -0.23800000000000002 0.161 -0.306 Q 0.17500000000000002 -0.362 0.17500000000000002 -0.379 Q 0.17500000000000002 -0.41600000000000004 0.152 -0.41600000000000004 Q 0.11 -0.41600000000000004 0.084 -0.316 Q 0.077 -0.28800000000000003 0.076 -0.28700000000000003 Q 0.07100000000000001 -0.28200000000000003 0.056 -0.28200000000000003 Q 0.032 -0.28200000000000003 0.032 -0.296 Q 0.032 -0.304 0.043000000000000003 -0.3365 Q 0.054 -0.369 0.07 -0.395 Q 0.105 -0.452 0.157 -0.452 Q 0.2 -0.452 0.23500000000000001 -0.432 Q 0.27 -0.41200000000000003 0.28 -0.376 Z"/></g><g transform="translate(26.598238095238095,3.694)"><path fill="rgb(0,0,0)" stroke="none" paint-order="stroke fill markers" d=" M 0.419 -0.59 L 0.268 -0.509 L 0.23800000000000002 -0.546 Q 0.246 -0.555 0.2905 -0.608 Q 0.335 -0.661 0.35000000000000003 -0.678 Q 0.374 -0.704 0.397 -0.704 Q 0.421 -0.704 0.439 -0.685 Q 0.457 -0.666 0.457 -0.642 Q 0.457 -0.627 0.45 -0.616 Q 0.443 -0.605 0.437 -0.601 Q 0.431 -0.597 0.419 -0.59 Z"/></g><g transform="translate(26.608738095238095,3.694)"><path fill="rgb(0,0,0)" stroke="none" paint-order="stroke fill markers" d=" M 0.222 -0.218 L 0.178 -0.218 Q 0.163 -0.162 0.163 -0.125 Q 0.163 -0.028 0.261 -0.028 Q 0.396 -0.028 0.47100000000000003 -0.107 Q 0.481 -0.11800000000000001 0.486 -0.11800000000000001 Q 0.493 -0.11800000000000001 0.502 -0.108 Q 0.511 -0.098 0.511 -0.092 Q 0.511 -0.081 0.482 -0.0565 Q 0.453 -0.032 0.41300000000000003 -0.016 Q 0.35000000000000003 0.008 0.258 0.008 Q 0.159 0.008 0.10400000000000001 -0.039 Q 0.049 -0.08600000000000001 0.049 -0.17200000000000001 Q 0.049 -0.29 0.1365 -0.371 Q 0.224 -0.452 0.358 -0.452 Q 0.42 -0.452 0.4575 -0.4255 Q 0.495 -0.399 0.495 -0.356 Q 0.495 -0.272 0.396 -0.23800000000000002 Q 0.336 -0.218 0.222 -0.218 M 0.187 -0.254 Q 0.216 -0.254 0.232 -0.254 Q 0.248 -0.254 0.278 -0.256 Q 0.308 -0.258 0.326 -0.2615 Q 0.34400000000000003 -0.265 0.367 -0.2725 Q 0.39 -0.28 0.403 -0.2905 Q 0.41600000000000004 -0.301 0.4255 -0.3175 Q 0.435 -0.334 0.435 -0.355 Q 0.435 -0.386 0.41200000000000003 -0.401 Q 0.389 -0.41600000000000004 0.358 -0.41600000000000004 Q 0.292 -0.41600000000000004 0.246 -0.37 Q 0.20600000000000002 -0.333 0.187 -0.254 Z"/></g><g transform="translate(27.162738095238094,3.694)"><path fill="rgb(0,0,0)" stroke="none" paint-order="stroke fill markers" d=" M 0.41400000000000003 -0.394 Q 0.384 -0.41600000000000004 0.331 -0.41600000000000004 Q 0.292 -0.41600000000000004 0.2665 -0.405 Q 0.241 -0.394 0.2325 -0.3775 Q 0.224 -0.361 0.2215 -0.353 Q 0.219 -0.34500000000000003 0.219 -0.339 Q 0.219 -0.321 0.233 -0.3105 Q 0.247 -0.3 0.2625 -0.2955 Q 0.278 -0.291 0.313 -0.28500000000000003 Q 0.385 -0.273 0.417 -0.245 Q 0.457 -0.21 0.457 -0.164 Q 0.457 -0.159 0.4555 -0.1505 Q 0.454 -0.14200000000000002 0.4485 -0.11950000000000001 Q 0.443 -0.097 0.428 -0.077 Q 0.41300000000000003 -0.057 0.39 -0.0365 Q 0.367 -0.016 0.325 -0.004 Q 0.28300000000000003 0.008 0.229 0.008 Q 0.15 0.008 0.10350000000000001 -0.0175 Q 0.057 -0.043000000000000003 0.057 -0.091 Q 0.057 -0.126 0.079 -0.1475 Q 0.101 -0.169 0.129 -0.169 Q 0.148 -0.169 0.163 -0.158 Q 0.178 -0.147 0.178 -0.123 Q 0.178 -0.1 0.163 -0.0805 Q 0.148 -0.061 0.123 -0.054 Q 0.159 -0.028 0.231 -0.028 Q 0.28200000000000003 -0.028 0.316 -0.0415 Q 0.35000000000000003 -0.055 0.362 -0.075 Q 0.374 -0.095 0.377 -0.1055 Q 0.38 -0.116 0.38 -0.123 Q 0.38 -0.169 0.29 -0.184 Q 0.234 -0.195 0.2155 -0.2005 Q 0.197 -0.20600000000000002 0.177 -0.222 Q 0.14100000000000001 -0.251 0.14100000000000001 -0.298 Q 0.14100000000000001 -0.322 0.1565 -0.357 Q 0.17200000000000001 -0.392 0.202 -0.41500000000000004 Q 0.251 -0.452 0.333 -0.452 Q 0.4 -0.452 0.438 -0.428 Q 0.47600000000000003 -0.404 0.47600000000000003 -0.364 Q 0.47600000000000003 -0.331 0.4565 -0.3135 Q 0.437 -0.296 0.41500000000000004 -0.296 Q 0.398 -0.296 0.385 -0.307 Q 0.372 -0.318 0.372 -0.337 Q 0.372 -0.35100000000000003 0.382 -0.368 Q 0.392 -0.385 0.41400000000000003 -0.394 Z"/></g></g><text fill="rgb(0,0,0)" stroke="none" font-family="geogebra-sans-serif, sans-serif" font-size="32px" font-style="normal" font-weight="bold" text-decoration="normal" x="530" y="364" text-anchor="start" dominant-baseline="alphabetic" fill-opacity="1">A</text><text fill="rgb(0,0,0)" stroke="none" font-family="geogebra-sans-serif, sans-serif" font-size="32px" font-style="normal" font-weight="bold" text-decoration="normal" x="809" y="448" text-anchor="start" dominant-baseline="alphabetic" fill-opacity="1">B</text><text fill="rgb(0,0,0)" stroke="none" font-family="geogebra-sans-serif, sans-serif" font-size="32px" font-style="normal" font-weight="bold" text-decoration="normal" x="441" y="614" text-anchor="start" dominant-baseline="alphabetic" fill-opacity="1">C</text></g></g></svg>