<svg version="1.1" xmlns="http://www.w3.org/2000/svg" xmlns:xlink="http://www.w3.org/1999/xlink" width="1358" height="662"><defs><clipPath id="iAHDtbKitSrT"><path fill="none" stroke="none" d=" M 0 0 L 1358 0 L 1358 662 L 0 662 L 0 0 Z"/></clipPath></defs><g transform="scale(1,1)" clip-path="url(#iAHDtbKitSrT)"><g><rect fill="rgb(255,255,255)" stroke="none" x="0" y="0" width="1358" height="662" fill-opacity="0"/><path fill="rgb(153,51,255)" stroke="none" paint-order="stroke fill markers" fill-rule="evenodd" d=" M 823.7634112620617 312.9688770190275 L 977.3996123842902 222.43325850057087 L 1280.0995086429666 369.66795124270743 L 1109.0877847747718 476.6645913099743 Z" fill-opacity="0.09803921568627451"/><path fill="rgb(153,51,0)" stroke="none" paint-order="stroke fill markers" fill-rule="evenodd" d=" M 1034.401830591928 311.4693271110615 L 1050.9197748310676 315.076909889836 L 1051.3550688233593 332.0533755892044 L 1034.6381920082597 327.45727277083097 Z" fill-opacity="0.09803921568627451"/><path fill="none" stroke="rgb(153,51,255)" paint-order="fill stroke markers" d=" M 1034.6381920082597 327.45727277083097 L 1030.9801872196354 58.59392080692953" stroke-opacity="0.6980392156862745" stroke-linecap="round" stroke-linejoin="round" stroke-miterlimit="10" stroke-width="3.5"/><path fill="none" stroke="rgb(153,51,255)" paint-order="fill stroke markers" d=" M 1035.048050497121 430.4900605125174 L 1037.7915540885892 563.0927341001559" stroke-opacity="0.6980392156862745" stroke-linejoin="round" stroke-miterlimit="10" stroke-width="2.5" stroke-dasharray="10.5,8"/><path fill="none" stroke="rgb(153,51,0)" paint-order="fill stroke markers" d=" M 1034.401830591928 311.4693271110615 L 1050.9197748310676 315.076909889836" stroke-opacity="0.6980392156862745" stroke-linecap="round" stroke-linejoin="round" stroke-miterlimit="10" stroke-width="2.5"/><path fill="none" stroke="rgb(153,51,0)" paint-order="fill stroke markers" d=" M 1050.9197748310676 315.076909889836 L 1051.3550688233593 332.0533755892044" stroke-opacity="0.6980392156862745" stroke-linecap="round" stroke-linejoin="round" stroke-miterlimit="10" stroke-width="2.5"/><path fill="none" stroke="rgb(153,51,0)" paint-order="fill stroke markers" d=" M 1034.6381920082597 327.45727277083097 L 1034.401830591928 311.4693271110615" stroke-opacity="0.6980392156862745" stroke-linecap="round" stroke-linejoin="round" stroke-miterlimit="10" stroke-width="2.5"/><path fill="none" stroke="rgb(0,0,0)" paint-order="fill stroke markers" d=" M 1032.1965600755036 140.99732571325842 L 1032.1965600755036 154.99732571325842" stroke-opacity="1" stroke-linecap="square" stroke-miterlimit="10" stroke-width="3.5"/><path fill="none" stroke="rgb(0,0,0)" paint-order="fill stroke markers" d=" M 1025.1965600755036 147.99732571325842 L 1039.1965600755036 147.99732571325842" stroke-opacity="1" stroke-linecap="square" stroke-miterlimit="10" stroke-width="3.5"/><g transform="scale(35,35)"><g transform="translate(30.714285714285715,12.75)"><path fill="rgb(0,0,0)" stroke="none" paint-order="stroke fill markers" d=" M 0.379 0.225 L 0.38 0.228 Q 0.382 0.232 0.382 0.23500000000000001 Q 0.382 0.249 0.364 0.249 Q 0.34500000000000003 0.249 0.2885 0.1965 Q 0.232 0.14400000000000002 0.188 0.067 Q 0.108 -0.074 0.108 -0.251 Q 0.108 -0.518 0.28700000000000003 -0.6960000000000001 Q 0.34400000000000003 -0.75 0.364 -0.75 Q 0.382 -0.75 0.382 -0.736 Q 0.382 -0.731 0.366 -0.715 Q 0.20500000000000002 -0.553 0.20500000000000002 -0.25 Q 0.20500000000000002 -0.106 0.243 0.009000000000000001 Q 0.28500000000000003 0.138 0.379 0.225 Z"/></g><g transform="translate(31.161285714285714,12.75)"><path fill="rgb(0,0,0)" stroke="none" paint-order="stroke fill markers" d=" M 0.052000000000000005 0.129 L 0.169 -0.336 Q 0.17500000000000002 -0.357 0.17500000000000002 -0.379 Q 0.17500000000000002 -0.41600000000000004 0.152 -0.41600000000000004 Q 0.109 -0.41600000000000004 0.084 -0.316 Q 0.077 -0.28800000000000003 0.076 -0.28700000000000003 Q 0.07100000000000001 -0.28200000000000003 0.056 -0.28200000000000003 Q 0.032 -0.28200000000000003 0.032 -0.296 Q 0.032 -0.304 0.043000000000000003 -0.3365 Q 0.054 -0.369 0.07 -0.395 Q 0.10300000000000001 -0.452 0.157 -0.452 Q 0.234 -0.452 0.272 -0.398 Q 0.33 -0.452 0.41100000000000003 -0.452 Q 0.483 -0.452 0.5345 -0.41200000000000003 Q 0.586 -0.372 0.586 -0.28700000000000003 Q 0.586 -0.176 0.5065000000000001 -0.084 Q 0.427 0.008 0.304 0.008 Q 0.242 0.008 0.203 -0.028 L 0.16 0.146 Q 0.17300000000000001 0.147 0.203 0.147 Q 0.229 0.147 0.229 0.165 Q 0.229 0.194 0.203 0.194 Q 0.186 0.194 0.15 0.1925 Q 0.114 0.191 0.096 0.191 Q 0.081 0.191 0.0495 0.1925 Q 0.018000000000000002 0.194 0.004 0.194 Q -0.015 0.194 -0.015 0.17500000000000002 Q -0.015 0.162 -0.009000000000000001 0.1555 Q -0.003 0.149 0.003 0.148 Q 0.009000000000000001 0.147 0.02 0.147 Q 0.04 0.147 0.046 0.145 Q 0.048 0.14300000000000002 0.052000000000000005 0.129 M 0.28200000000000003 -0.35100000000000003 L 0.221 -0.1 L 0.219 -0.08600000000000001 Q 0.219 -0.07200000000000001 0.2415 -0.05 Q 0.264 -0.028 0.302 -0.028 Q 0.381 -0.028 0.423 -0.126 Q 0.437 -0.16 0.455 -0.232 Q 0.47300000000000003 -0.304 0.47300000000000003 -0.34 Q 0.47300000000000003 -0.41600000000000004 0.406 -0.41600000000000004 Q 0.372 -0.41600000000000004 0.339 -0.3975 Q 0.306 -0.379 0.28200000000000003 -0.35100000000000003 Z"/></g><g transform="translate(31.762285714285714,12.75)"><path fill="rgb(0,0,0)" stroke="none" paint-order="stroke fill markers" d=" M 0.338 -0.25 Q 0.338 0.017 0.159 0.195 Q 0.10200000000000001 0.249 0.082 0.249 Q 0.064 0.249 0.064 0.23500000000000001 Q 0.064 0.23 0.08 0.214 Q 0.241 0.052000000000000005 0.241 -0.251 Q 0.241 -0.55 0.081 -0.713 Q 0.064 -0.729 0.064 -0.736 Q 0.064 -0.75 0.082 -0.75 Q 0.101 -0.75 0.1575 -0.6975 Q 0.214 -0.645 0.258 -0.5680000000000001 Q 0.338 -0.427 0.338 -0.25 Z"/></g></g><g transform="scale(35,35)"><g transform="translate(30.114285714285714,4.514571428571429)"><path fill="rgb(0,0,255)" stroke="none" paint-order="stroke fill markers" d=" M 1.1 -0.635 L 0.9540000000000001 -0.049 Q 0.996 -0.047 1.0150000000000001 -0.047 Q 1.032 -0.047 1.039 -0.0465 Q 1.046 -0.046 1.051 -0.042 Q 1.056 -0.038 1.056 -0.029 Q 1.056 -0.014 1.049 -0.007 Q 1.044 0 1.028 0 Q 1.0170000000000001 0 0.993 -0.001 Q 0.969 -0.002 0.9570000000000001 -0.002 Q 0.9440000000000001 -0.002 0.9185 -0.0025 Q 0.893 -0.003 0.88 -0.003 Q 0.869 -0.003 0.8455 -0.0025 Q 0.8220000000000001 -0.002 0.81 -0.002 Q 0.798 -0.002 0.7735 -0.001 Q 0.749 0 0.737 0 Q 0.715 0 0.715 -0.018000000000000002 Q 0.715 -0.038 0.727 -0.045 Q 0.731 -0.047 0.759 -0.047 Q 0.795 -0.047 0.812 -0.048 Q 0.8250000000000001 -0.049 0.8285 -0.052000000000000005 Q 0.8320000000000001 -0.055 0.835 -0.067 L 0.977 -0.637 L 0.976 -0.638 L 0.544 -0.023 Q 0.527 0 0.508 0 Q 0.498 0 0.492 -0.005 Q 0.486 -0.01 0.4845 -0.015 Q 0.483 -0.02 0.481 -0.03 L 0.36 -0.624 L 0.359 -0.624 L 0.218 -0.057 Q 0.242 -0.047 0.28800000000000003 -0.047 Q 0.318 -0.047 0.318 -0.029 Q 0.318 0 0.291 0 Q 0.278 0 0.234 -0.0015 Q 0.19 -0.003 0.177 -0.003 Q 0.158 -0.003 0.121 -0.0015 Q 0.084 0 0.066 0 Q 0.056 0 0.051000000000000004 -0.006 Q 0.046 -0.012 0.046 -0.018000000000000002 Q 0.046 -0.032 0.052000000000000005 -0.0385 Q 0.058 -0.045 0.064 -0.046 Q 0.07 -0.047 0.082 -0.047 Q 0.115 -0.047 0.139 -0.053 Q 0.157 -0.057 0.161 -0.0605 Q 0.165 -0.064 0.169 -0.079 L 0.309 -0.637 Q 0.267 -0.639 0.248 -0.639 Q 0.23 -0.639 0.223 -0.6395000000000001 Q 0.216 -0.64 0.211 -0.644 Q 0.20600000000000002 -0.648 0.20600000000000002 -0.657 Q 0.20600000000000002 -0.671 0.212 -0.6775 Q 0.218 -0.684 0.224 -0.685 Q 0.23 -0.686 0.243 -0.686 L 0.431 -0.686 Q 0.452 -0.686 0.4595 -0.682 Q 0.467 -0.678 0.47100000000000003 -0.658 L 0.578 -0.129 L 0.9530000000000001 -0.661 Q 0.964 -0.678 0.9725 -0.682 Q 0.981 -0.686 1.004 -0.686 L 1.182 -0.686 Q 1.194 -0.686 1.1995 -0.6855 Q 1.205 -0.685 1.2105000000000001 -0.6805 Q 1.216 -0.676 1.216 -0.668 Q 1.216 -0.648 1.207 -0.6435 Q 1.198 -0.639 1.168 -0.639 Q 1.122 -0.639 1.1 -0.635 Z"/></g></g><g transform="scale(35,35)"><g transform="translate(3.3142857142857145,8.92142857142857)"><path fill="rgb(0,0,0)" stroke="none" paint-order="stroke fill markers" d=" M 0.163 -0.067 L 0.306 -0.637 Q 0.264 -0.639 0.245 -0.639 Q 0.227 -0.639 0.22 -0.6395000000000001 Q 0.213 -0.64 0.20800000000000002 -0.644 Q 0.203 -0.648 0.203 -0.657 Q 0.203 -0.671 0.209 -0.6775 Q 0.215 -0.684 0.221 -0.685 Q 0.227 -0.686 0.24 -0.686 L 0.639 -0.686 Q 0.759 -0.686 0.837 -0.624 Q 0.915 -0.562 0.915 -0.439 Q 0.915 -0.361 0.885 -0.28450000000000003 Q 0.855 -0.20800000000000002 0.8 -0.14400000000000002 Q 0.745 -0.08 0.658 -0.04 Q 0.5710000000000001 0 0.468 0 L 0.077 0 Q 0.043000000000000003 0 0.043000000000000003 -0.018000000000000002 Q 0.043000000000000003 -0.038 0.055 -0.045 Q 0.059000000000000004 -0.047 0.08700000000000001 -0.047 Q 0.123 -0.047 0.14 -0.048 Q 0.153 -0.049 0.1565 -0.052000000000000005 Q 0.16 -0.055 0.163 -0.067 M 0.436 -0.621 L 0.293 -0.048 Q 0.3 -0.047 0.317 -0.047 L 0.441 -0.047 Q 0.637 -0.047 0.718 -0.21 Q 0.739 -0.255 0.7605000000000001 -0.3395 Q 0.782 -0.424 0.782 -0.47400000000000003 Q 0.782 -0.556 0.732 -0.598 Q 0.68 -0.639 0.588 -0.639 L 0.47400000000000003 -0.639 Q 0.456 -0.639 0.447 -0.638 Q 0.44 -0.637 0.436 -0.621 Z"/></g><g transform="translate(4.284285714285715,8.92142857142857)"><path fill="rgb(0,0,0)" stroke="none" paint-order="stroke fill markers" d=" M 0.444 -0.402 Q 0.43 -0.41600000000000004 0.405 -0.41600000000000004 Q 0.341 -0.41600000000000004 0.295 -0.358 Q 0.28300000000000003 -0.34400000000000003 0.278 -0.326 Q 0.277 -0.322 0.243 -0.185 Q 0.209 -0.048 0.20800000000000002 -0.045 Q 0.201 -0.017 0.181 -0.0045000000000000005 Q 0.161 0.008 0.14200000000000002 0.008 Q 0.12 0.008 0.1075 -0.0055 Q 0.095 -0.019 0.095 -0.036000000000000004 L 0.113 -0.114 Q 0.124 -0.155 0.133 -0.196 Q 0.136 -0.20800000000000002 0.147 -0.2515 Q 0.158 -0.295 0.161 -0.304 Q 0.17500000000000002 -0.364 0.17500000000000002 -0.38 Q 0.17500000000000002 -0.41600000000000004 0.152 -0.41600000000000004 Q 0.109 -0.41600000000000004 0.084 -0.316 Q 0.077 -0.28800000000000003 0.076 -0.28700000000000003 Q 0.07100000000000001 -0.28200000000000003 0.056 -0.28200000000000003 Q 0.032 -0.28200000000000003 0.032 -0.296 Q 0.032 -0.304 0.043000000000000003 -0.337 Q 0.054 -0.37 0.07 -0.395 Q 0.105 -0.452 0.157 -0.452 Q 0.19 -0.452 0.224 -0.4375 Q 0.258 -0.423 0.274 -0.392 Q 0.33 -0.452 0.40700000000000003 -0.452 Q 0.452 -0.452 0.47850000000000004 -0.4265 Q 0.505 -0.401 0.505 -0.365 Q 0.505 -0.329 0.483 -0.3075 Q 0.461 -0.28600000000000003 0.433 -0.28600000000000003 Q 0.41000000000000003 -0.28600000000000003 0.3965 -0.3 Q 0.383 -0.314 0.383 -0.332 Q 0.383 -0.341 0.386 -0.3525 Q 0.389 -0.364 0.404 -0.3805 Q 0.419 -0.397 0.444 -0.402 Z"/></g><g transform="translate(4.845285714285715,8.92142857142857)"><path fill="rgb(0,0,0)" stroke="none" paint-order="stroke fill markers" d=" M 0.5690000000000001 -0.279 Q 0.5690000000000001 -0.23 0.5485 -0.1805 Q 0.528 -0.131 0.49 -0.0885 Q 0.452 -0.046 0.3905 -0.019 Q 0.329 0.008 0.254 0.008 Q 0.156 0.008 0.101 -0.038 Q 0.046 -0.084 0.046 -0.165 Q 0.046 -0.214 0.0665 -0.2635 Q 0.08700000000000001 -0.313 0.125 -0.3555 Q 0.163 -0.398 0.2245 -0.425 Q 0.28600000000000003 -0.452 0.361 -0.452 Q 0.459 -0.452 0.514 -0.406 Q 0.5690000000000001 -0.36 0.5690000000000001 -0.279 M 0.189 -0.049 Q 0.189 -0.049 0.203 -0.0385 Q 0.217 -0.028 0.256 -0.028 Q 0.295 -0.028 0.3335 -0.049 Q 0.372 -0.07 0.398 -0.115 Q 0.419 -0.152 0.4365 -0.2225 Q 0.454 -0.293 0.454 -0.323 Q 0.454 -0.374 0.426 -0.395 Q 0.398 -0.41600000000000004 0.359 -0.41600000000000004 Q 0.32 -0.41600000000000004 0.28150000000000003 -0.395 Q 0.243 -0.374 0.217 -0.329 Q 0.196 -0.292 0.1785 -0.2215 Q 0.161 -0.151 0.161 -0.121 Q 0.161 -0.07 0.189 -0.049 Z"/></g><g transform="translate(5.430285714285715,8.92142857142857)"><path fill="rgb(0,0,0)" stroke="none" paint-order="stroke fill markers" d=" M 0.334 -0.646 Q 0.334 -0.62 0.312 -0.5985 Q 0.29 -0.577 0.263 -0.577 Q 0.242 -0.577 0.228 -0.5905 Q 0.214 -0.604 0.214 -0.625 Q 0.214 -0.651 0.23550000000000001 -0.6725 Q 0.257 -0.6940000000000001 0.28500000000000003 -0.6940000000000001 Q 0.306 -0.6940000000000001 0.32 -0.68 Q 0.334 -0.666 0.334 -0.646 M 0.359 -0.148 Q 0.359 -0.132 0.343 -0.0975 Q 0.327 -0.063 0.289 -0.0275 Q 0.251 0.008 0.20400000000000001 0.008 Q 0.157 0.008 0.1235 -0.0175 Q 0.09 -0.043000000000000003 0.09 -0.082 Q 0.09 -0.095 0.098 -0.116 L 0.165 -0.289 Q 0.198 -0.372 0.198 -0.394 Q 0.198 -0.41600000000000004 0.182 -0.41600000000000004 Q 0.168 -0.41600000000000004 0.1525 -0.40850000000000003 Q 0.137 -0.401 0.115 -0.372 Q 0.093 -0.343 0.079 -0.295 Q 0.075 -0.28200000000000003 0.056 -0.28200000000000003 Q 0.032 -0.28200000000000003 0.032 -0.296 Q 0.032 -0.312 0.048 -0.34650000000000003 Q 0.064 -0.381 0.10200000000000001 -0.4165 Q 0.14 -0.452 0.187 -0.452 Q 0.234 -0.452 0.2675 -0.4265 Q 0.301 -0.401 0.301 -0.362 Q 0.301 -0.34900000000000003 0.293 -0.328 L 0.226 -0.155 Q 0.193 -0.07200000000000001 0.193 -0.05 Q 0.193 -0.028 0.209 -0.028 Q 0.223 -0.028 0.23850000000000002 -0.035500000000000004 Q 0.254 -0.043000000000000003 0.276 -0.07200000000000001 Q 0.298 -0.101 0.312 -0.149 Q 0.316 -0.162 0.335 -0.162 Q 0.359 -0.162 0.359 -0.148 Z"/></g><g transform="translate(5.835285714285715,8.92142857142857)"><path fill="rgb(0,0,0)" stroke="none" paint-order="stroke fill markers" d=" M 0.252 -0.397 L 0.179 -0.108 Q 0.17300000000000001 -0.082 0.17300000000000001 -0.065 Q 0.17300000000000001 -0.052000000000000005 0.17500000000000002 -0.044 Q 0.177 -0.036000000000000004 0.1815 -0.0325 Q 0.186 -0.029 0.189 -0.0285 Q 0.192 -0.028 0.197 -0.028 Q 0.23 -0.028 0.267 -0.057 Q 0.304 -0.08600000000000001 0.33 -0.146 Q 0.335 -0.157 0.3385 -0.1595 Q 0.342 -0.162 0.355 -0.162 Q 0.379 -0.162 0.379 -0.148 Q 0.379 -0.14 0.366 -0.116 Q 0.353 -0.092 0.3305 -0.0635 Q 0.308 -0.035 0.2705 -0.0135 Q 0.233 0.008 0.192 0.008 Q 0.14100000000000001 0.008 0.10350000000000001 -0.018000000000000002 Q 0.066 -0.044 0.066 -0.09 Q 0.066 -0.106 0.083 -0.169 L 0.14 -0.397 L 0.059000000000000004 -0.397 Q 0.047 -0.397 0.0415 -0.3975 Q 0.036000000000000004 -0.398 0.0305 -0.4025 Q 0.025 -0.40700000000000003 0.025 -0.41500000000000004 Q 0.025 -0.429 0.031 -0.4355 Q 0.037 -0.442 0.043000000000000003 -0.443 Q 0.049 -0.444 0.062 -0.444 L 0.152 -0.444 L 0.17200000000000001 -0.526 Q 0.19 -0.598 0.195 -0.608 Q 0.215 -0.643 0.253 -0.643 Q 0.271 -0.643 0.28550000000000003 -0.632 Q 0.3 -0.621 0.3 -0.599 Q 0.3 -0.589 0.296 -0.5730000000000001 L 0.264 -0.444 L 0.34400000000000003 -0.444 Q 0.377 -0.444 0.377 -0.426 Q 0.377 -0.40800000000000003 0.368 -0.402 Q 0.363 -0.397 0.341 -0.397 L 0.252 -0.397 Z"/></g><g transform="translate(6.250285714285715,8.92142857142857)"><path fill="rgb(0,0,0)" stroke="none" paint-order="stroke fill markers" d=" M 0.222 -0.218 L 0.178 -0.218 Q 0.163 -0.162 0.163 -0.125 Q 0.163 -0.028 0.261 -0.028 Q 0.396 -0.028 0.47100000000000003 -0.107 Q 0.481 -0.11800000000000001 0.486 -0.11800000000000001 Q 0.493 -0.11800000000000001 0.502 -0.108 Q 0.511 -0.098 0.511 -0.092 Q 0.511 -0.081 0.482 -0.0565 Q 0.453 -0.032 0.41300000000000003 -0.016 Q 0.35000000000000003 0.008 0.258 0.008 Q 0.159 0.008 0.10400000000000001 -0.039 Q 0.049 -0.08600000000000001 0.049 -0.17200000000000001 Q 0.049 -0.29 0.1365 -0.371 Q 0.224 -0.452 0.358 -0.452 Q 0.42 -0.452 0.4575 -0.4255 Q 0.495 -0.399 0.495 -0.356 Q 0.495 -0.272 0.396 -0.23800000000000002 Q 0.336 -0.218 0.222 -0.218 M 0.187 -0.254 Q 0.216 -0.254 0.232 -0.254 Q 0.248 -0.254 0.278 -0.256 Q 0.308 -0.258 0.326 -0.2615 Q 0.34400000000000003 -0.265 0.367 -0.2725 Q 0.39 -0.28 0.403 -0.2905 Q 0.41600000000000004 -0.301 0.4255 -0.3175 Q 0.435 -0.334 0.435 -0.355 Q 0.435 -0.386 0.41200000000000003 -0.401 Q 0.389 -0.41600000000000004 0.358 -0.41600000000000004 Q 0.292 -0.41600000000000004 0.246 -0.37 Q 0.20600000000000002 -0.333 0.187 -0.254 Z"/></g><g transform="translate(7.137285714285715,8.92142857142857)"><path fill="rgb(0,0,0)" stroke="none" paint-order="stroke fill markers" d=" M 0.052000000000000005 0.129 L 0.169 -0.336 Q 0.17500000000000002 -0.357 0.17500000000000002 -0.379 Q 0.17500000000000002 -0.41600000000000004 0.152 -0.41600000000000004 Q 0.109 -0.41600000000000004 0.084 -0.316 Q 0.077 -0.28800000000000003 0.076 -0.28700000000000003 Q 0.07100000000000001 -0.28200000000000003 0.056 -0.28200000000000003 Q 0.032 -0.28200000000000003 0.032 -0.296 Q 0.032 -0.304 0.043000000000000003 -0.3365 Q 0.054 -0.369 0.07 -0.395 Q 0.10300000000000001 -0.452 0.157 -0.452 Q 0.234 -0.452 0.272 -0.398 Q 0.33 -0.452 0.41100000000000003 -0.452 Q 0.483 -0.452 0.5345 -0.41200000000000003 Q 0.586 -0.372 0.586 -0.28700000000000003 Q 0.586 -0.176 0.5065000000000001 -0.084 Q 0.427 0.008 0.304 0.008 Q 0.242 0.008 0.203 -0.028 L 0.16 0.146 Q 0.17300000000000001 0.147 0.203 0.147 Q 0.229 0.147 0.229 0.165 Q 0.229 0.194 0.203 0.194 Q 0.186 0.194 0.15 0.1925 Q 0.114 0.191 0.096 0.191 Q 0.081 0.191 0.0495 0.1925 Q 0.018000000000000002 0.194 0.004 0.194 Q -0.015 0.194 -0.015 0.17500000000000002 Q -0.015 0.162 -0.009000000000000001 0.1555 Q -0.003 0.149 0.003 0.148 Q 0.009000000000000001 0.147 0.02 0.147 Q 0.04 0.147 0.046 0.145 Q 0.048 0.14300000000000002 0.052000000000000005 0.129 M 0.28200000000000003 -0.35100000000000003 L 0.221 -0.1 L 0.219 -0.08600000000000001 Q 0.219 -0.07200000000000001 0.2415 -0.05 Q 0.264 -0.028 0.302 -0.028 Q 0.381 -0.028 0.423 -0.126 Q 0.437 -0.16 0.455 -0.232 Q 0.47300000000000003 -0.304 0.47300000000000003 -0.34 Q 0.47300000000000003 -0.41600000000000004 0.406 -0.41600000000000004 Q 0.372 -0.41600000000000004 0.339 -0.3975 Q 0.306 -0.379 0.28200000000000003 -0.35100000000000003 Z"/></g><g transform="translate(7.738285714285715,8.92142857142857)"><path fill="rgb(0,0,0)" stroke="none" paint-order="stroke fill markers" d=" M 0.222 -0.218 L 0.178 -0.218 Q 0.163 -0.162 0.163 -0.125 Q 0.163 -0.028 0.261 -0.028 Q 0.396 -0.028 0.47100000000000003 -0.107 Q 0.481 -0.11800000000000001 0.486 -0.11800000000000001 Q 0.493 -0.11800000000000001 0.502 -0.108 Q 0.511 -0.098 0.511 -0.092 Q 0.511 -0.081 0.482 -0.0565 Q 0.453 -0.032 0.41300000000000003 -0.016 Q 0.35000000000000003 0.008 0.258 0.008 Q 0.159 0.008 0.10400000000000001 -0.039 Q 0.049 -0.08600000000000001 0.049 -0.17200000000000001 Q 0.049 -0.29 0.1365 -0.371 Q 0.224 -0.452 0.358 -0.452 Q 0.42 -0.452 0.4575 -0.4255 Q 0.495 -0.399 0.495 -0.356 Q 0.495 -0.272 0.396 -0.23800000000000002 Q 0.336 -0.218 0.222 -0.218 M 0.187 -0.254 Q 0.216 -0.254 0.232 -0.254 Q 0.248 -0.254 0.278 -0.256 Q 0.308 -0.258 0.326 -0.2615 Q 0.34400000000000003 -0.265 0.367 -0.2725 Q 0.39 -0.28 0.403 -0.2905 Q 0.41600000000000004 -0.301 0.4255 -0.3175 Q 0.435 -0.334 0.435 -0.355 Q 0.435 -0.386 0.41200000000000003 -0.401 Q 0.389 -0.41600000000000004 0.358 -0.41600000000000004 Q 0.292 -0.41600000000000004 0.246 -0.37 Q 0.20600000000000002 -0.333 0.187 -0.254 Z"/></g><g transform="translate(8.292285714285715,8.92142857142857)"><path fill="rgb(0,0,0)" stroke="none" paint-order="stroke fill markers" d=" M 0.444 -0.402 Q 0.43 -0.41600000000000004 0.405 -0.41600000000000004 Q 0.341 -0.41600000000000004 0.295 -0.358 Q 0.28300000000000003 -0.34400000000000003 0.278 -0.326 Q 0.277 -0.322 0.243 -0.185 Q 0.209 -0.048 0.20800000000000002 -0.045 Q 0.201 -0.017 0.181 -0.0045000000000000005 Q 0.161 0.008 0.14200000000000002 0.008 Q 0.12 0.008 0.1075 -0.0055 Q 0.095 -0.019 0.095 -0.036000000000000004 L 0.113 -0.114 Q 0.124 -0.155 0.133 -0.196 Q 0.136 -0.20800000000000002 0.147 -0.2515 Q 0.158 -0.295 0.161 -0.304 Q 0.17500000000000002 -0.364 0.17500000000000002 -0.38 Q 0.17500000000000002 -0.41600000000000004 0.152 -0.41600000000000004 Q 0.109 -0.41600000000000004 0.084 -0.316 Q 0.077 -0.28800000000000003 0.076 -0.28700000000000003 Q 0.07100000000000001 -0.28200000000000003 0.056 -0.28200000000000003 Q 0.032 -0.28200000000000003 0.032 -0.296 Q 0.032 -0.304 0.043000000000000003 -0.337 Q 0.054 -0.37 0.07 -0.395 Q 0.105 -0.452 0.157 -0.452 Q 0.19 -0.452 0.224 -0.4375 Q 0.258 -0.423 0.274 -0.392 Q 0.33 -0.452 0.40700000000000003 -0.452 Q 0.452 -0.452 0.47850000000000004 -0.4265 Q 0.505 -0.401 0.505 -0.365 Q 0.505 -0.329 0.483 -0.3075 Q 0.461 -0.28600000000000003 0.433 -0.28600000000000003 Q 0.41000000000000003 -0.28600000000000003 0.3965 -0.3 Q 0.383 -0.314 0.383 -0.332 Q 0.383 -0.341 0.386 -0.3525 Q 0.389 -0.364 0.404 -0.3805 Q 0.419 -0.397 0.444 -0.402 Z"/></g><g transform="translate(8.853285714285715,8.92142857142857)"><path fill="rgb(0,0,0)" stroke="none" paint-order="stroke fill markers" d=" M 0.052000000000000005 0.129 L 0.169 -0.336 Q 0.17500000000000002 -0.357 0.17500000000000002 -0.379 Q 0.17500000000000002 -0.41600000000000004 0.152 -0.41600000000000004 Q 0.109 -0.41600000000000004 0.084 -0.316 Q 0.077 -0.28800000000000003 0.076 -0.28700000000000003 Q 0.07100000000000001 -0.28200000000000003 0.056 -0.28200000000000003 Q 0.032 -0.28200000000000003 0.032 -0.296 Q 0.032 -0.304 0.043000000000000003 -0.3365 Q 0.054 -0.369 0.07 -0.395 Q 0.10300000000000001 -0.452 0.157 -0.452 Q 0.234 -0.452 0.272 -0.398 Q 0.33 -0.452 0.41100000000000003 -0.452 Q 0.483 -0.452 0.5345 -0.41200000000000003 Q 0.586 -0.372 0.586 -0.28700000000000003 Q 0.586 -0.176 0.5065000000000001 -0.084 Q 0.427 0.008 0.304 0.008 Q 0.242 0.008 0.203 -0.028 L 0.16 0.146 Q 0.17300000000000001 0.147 0.203 0.147 Q 0.229 0.147 0.229 0.165 Q 0.229 0.194 0.203 0.194 Q 0.186 0.194 0.15 0.1925 Q 0.114 0.191 0.096 0.191 Q 0.081 0.191 0.0495 0.1925 Q 0.018000000000000002 0.194 0.004 0.194 Q -0.015 0.194 -0.015 0.17500000000000002 Q -0.015 0.162 -0.009000000000000001 0.1555 Q -0.003 0.149 0.003 0.148 Q 0.009000000000000001 0.147 0.02 0.147 Q 0.04 0.147 0.046 0.145 Q 0.048 0.14300000000000002 0.052000000000000005 0.129 M 0.28200000000000003 -0.35100000000000003 L 0.221 -0.1 L 0.219 -0.08600000000000001 Q 0.219 -0.07200000000000001 0.2415 -0.05 Q 0.264 -0.028 0.302 -0.028 Q 0.381 -0.028 0.423 -0.126 Q 0.437 -0.16 0.455 -0.232 Q 0.47300000000000003 -0.304 0.47300000000000003 -0.34 Q 0.47300000000000003 -0.41600000000000004 0.406 -0.41600000000000004 Q 0.372 -0.41600000000000004 0.339 -0.3975 Q 0.306 -0.379 0.28200000000000003 -0.35100000000000003 Z"/></g><g transform="translate(9.454285714285714,8.92142857142857)"><path fill="rgb(0,0,0)" stroke="none" paint-order="stroke fill markers" d=" M 0.222 -0.218 L 0.178 -0.218 Q 0.163 -0.162 0.163 -0.125 Q 0.163 -0.028 0.261 -0.028 Q 0.396 -0.028 0.47100000000000003 -0.107 Q 0.481 -0.11800000000000001 0.486 -0.11800000000000001 Q 0.493 -0.11800000000000001 0.502 -0.108 Q 0.511 -0.098 0.511 -0.092 Q 0.511 -0.081 0.482 -0.0565 Q 0.453 -0.032 0.41300000000000003 -0.016 Q 0.35000000000000003 0.008 0.258 0.008 Q 0.159 0.008 0.10400000000000001 -0.039 Q 0.049 -0.08600000000000001 0.049 -0.17200000000000001 Q 0.049 -0.29 0.1365 -0.371 Q 0.224 -0.452 0.358 -0.452 Q 0.42 -0.452 0.4575 -0.4255 Q 0.495 -0.399 0.495 -0.356 Q 0.495 -0.272 0.396 -0.23800000000000002 Q 0.336 -0.218 0.222 -0.218 M 0.187 -0.254 Q 0.216 -0.254 0.232 -0.254 Q 0.248 -0.254 0.278 -0.256 Q 0.308 -0.258 0.326 -0.2615 Q 0.34400000000000003 -0.265 0.367 -0.2725 Q 0.39 -0.28 0.403 -0.2905 Q 0.41600000000000004 -0.301 0.4255 -0.3175 Q 0.435 -0.334 0.435 -0.355 Q 0.435 -0.386 0.41200000000000003 -0.401 Q 0.389 -0.41600000000000004 0.358 -0.41600000000000004 Q 0.292 -0.41600000000000004 0.246 -0.37 Q 0.20600000000000002 -0.333 0.187 -0.254 Z"/></g><g transform="translate(10.008285714285714,8.92142857142857)"><path fill="rgb(0,0,0)" stroke="none" paint-order="stroke fill markers" d=" M 0.28 -0.376 Q 0.35100000000000003 -0.452 0.445 -0.452 Q 0.509 -0.452 0.5515 -0.4255 Q 0.594 -0.399 0.594 -0.336 Q 0.594 -0.281 0.532 -0.122 Q 0.512 -0.07200000000000001 0.512 -0.049 Q 0.512 -0.039 0.515 -0.034 Q 0.518 -0.029 0.521 -0.0285 Q 0.524 -0.028 0.529 -0.028 Q 0.538 -0.028 0.548 -0.032 Q 0.558 -0.036000000000000004 0.5735 -0.0465 Q 0.589 -0.057 0.6045 -0.0835 Q 0.62 -0.11 0.632 -0.149 Q 0.636 -0.162 0.655 -0.162 Q 0.679 -0.162 0.679 -0.148 Q 0.679 -0.138 0.669 -0.1145 Q 0.659 -0.091 0.641 -0.0625 Q 0.623 -0.034 0.5915 -0.013000000000000001 Q 0.56 0.008 0.523 0.008 Q 0.47800000000000004 0.008 0.444 -0.0165 Q 0.41000000000000003 -0.041 0.41000000000000003 -0.082 Q 0.41000000000000003 -0.099 0.424 -0.133 Q 0.487 -0.299 0.487 -0.357 Q 0.487 -0.41600000000000004 0.437 -0.41600000000000004 Q 0.384 -0.41600000000000004 0.334 -0.377 Q 0.312 -0.359 0.2925 -0.3325 Q 0.273 -0.306 0.272 -0.299 Q 0.271 -0.297 0.257 -0.241 Q 0.243 -0.185 0.241 -0.18 Q 0.227 -0.12 0.213 -0.068 Q 0.209 -0.053 0.20550000000000002 -0.043000000000000003 Q 0.202 -0.033 0.1945 -0.0195 Q 0.187 -0.006 0.17350000000000002 0.001 Q 0.16 0.008 0.14200000000000002 0.008 Q 0.12 0.008 0.1075 -0.0055 Q 0.095 -0.019 0.095 -0.036000000000000004 Q 0.095 -0.039 0.10300000000000001 -0.076 L 0.139 -0.216 Q 0.14400000000000002 -0.23800000000000002 0.161 -0.306 Q 0.17500000000000002 -0.362 0.17500000000000002 -0.379 Q 0.17500000000000002 -0.41600000000000004 0.152 -0.41600000000000004 Q 0.11 -0.41600000000000004 0.084 -0.316 Q 0.077 -0.28800000000000003 0.076 -0.28700000000000003 Q 0.07100000000000001 -0.28200000000000003 0.056 -0.28200000000000003 Q 0.032 -0.28200000000000003 0.032 -0.296 Q 0.032 -0.304 0.043000000000000003 -0.3365 Q 0.054 -0.369 0.07 -0.395 Q 0.105 -0.452 0.157 -0.452 Q 0.2 -0.452 0.23500000000000001 -0.432 Q 0.27 -0.41200000000000003 0.28 -0.376 Z"/></g><g transform="translate(10.721285714285713,8.92142857142857)"><path fill="rgb(0,0,0)" stroke="none" paint-order="stroke fill markers" d=" M 0.6 -0.659 L 0.462 -0.108 Q 0.456 -0.08700000000000001 0.456 -0.065 Q 0.456 -0.028 0.47900000000000004 -0.028 Q 0.522 -0.028 0.547 -0.128 Q 0.554 -0.156 0.555 -0.157 Q 0.56 -0.162 0.5750000000000001 -0.162 Q 0.599 -0.162 0.599 -0.148 Q 0.599 -0.14 0.588 -0.1075 Q 0.577 -0.075 0.561 -0.049 Q 0.528 0.008 0.47400000000000003 0.008 Q 0.397 0.008 0.359 -0.046 Q 0.301 0.008 0.22 0.008 Q 0.148 0.008 0.0965 -0.032 Q 0.045 -0.07200000000000001 0.045 -0.157 Q 0.045 -0.268 0.1245 -0.36 Q 0.20400000000000001 -0.452 0.327 -0.452 Q 0.389 -0.452 0.428 -0.41600000000000004 L 0.482 -0.637 Q 0.46900000000000003 -0.639 0.44 -0.639 Q 0.41400000000000003 -0.639 0.41400000000000003 -0.657 Q 0.41400000000000003 -0.67 0.42 -0.677 Q 0.426 -0.684 0.431 -0.685 Q 0.436 -0.686 0.446 -0.687 L 0.5750000000000001 -0.6930000000000001 Q 0.577 -0.6940000000000001 0.582 -0.6940000000000001 Q 0.604 -0.6940000000000001 0.604 -0.676 Q 0.604 -0.673 0.6 -0.659 M 0.34900000000000003 -0.093 L 0.41000000000000003 -0.34400000000000003 L 0.41200000000000003 -0.358 Q 0.41200000000000003 -0.372 0.3895 -0.394 Q 0.367 -0.41600000000000004 0.329 -0.41600000000000004 Q 0.25 -0.41600000000000004 0.20800000000000002 -0.318 Q 0.194 -0.28400000000000003 0.176 -0.212 Q 0.158 -0.14 0.158 -0.10400000000000001 Q 0.158 -0.028 0.225 -0.028 Q 0.259 -0.028 0.292 -0.0465 Q 0.325 -0.065 0.34900000000000003 -0.093 Z"/></g><g transform="translate(11.331285714285713,8.92142857142857)"><path fill="rgb(0,0,0)" stroke="none" paint-order="stroke fill markers" d=" M 0.334 -0.646 Q 0.334 -0.62 0.312 -0.5985 Q 0.29 -0.577 0.263 -0.577 Q 0.242 -0.577 0.228 -0.5905 Q 0.214 -0.604 0.214 -0.625 Q 0.214 -0.651 0.23550000000000001 -0.6725 Q 0.257 -0.6940000000000001 0.28500000000000003 -0.6940000000000001 Q 0.306 -0.6940000000000001 0.32 -0.68 Q 0.334 -0.666 0.334 -0.646 M 0.359 -0.148 Q 0.359 -0.132 0.343 -0.0975 Q 0.327 -0.063 0.289 -0.0275 Q 0.251 0.008 0.20400000000000001 0.008 Q 0.157 0.008 0.1235 -0.0175 Q 0.09 -0.043000000000000003 0.09 -0.082 Q 0.09 -0.095 0.098 -0.116 L 0.165 -0.289 Q 0.198 -0.372 0.198 -0.394 Q 0.198 -0.41600000000000004 0.182 -0.41600000000000004 Q 0.168 -0.41600000000000004 0.1525 -0.40850000000000003 Q 0.137 -0.401 0.115 -0.372 Q 0.093 -0.343 0.079 -0.295 Q 0.075 -0.28200000000000003 0.056 -0.28200000000000003 Q 0.032 -0.28200000000000003 0.032 -0.296 Q 0.032 -0.312 0.048 -0.34650000000000003 Q 0.064 -0.381 0.10200000000000001 -0.4165 Q 0.14 -0.452 0.187 -0.452 Q 0.234 -0.452 0.2675 -0.4265 Q 0.301 -0.401 0.301 -0.362 Q 0.301 -0.34900000000000003 0.293 -0.328 L 0.226 -0.155 Q 0.193 -0.07200000000000001 0.193 -0.05 Q 0.193 -0.028 0.209 -0.028 Q 0.223 -0.028 0.23850000000000002 -0.035500000000000004 Q 0.254 -0.043000000000000003 0.276 -0.07200000000000001 Q 0.298 -0.101 0.312 -0.149 Q 0.316 -0.162 0.335 -0.162 Q 0.359 -0.162 0.359 -0.148 Z"/></g><g transform="translate(11.736285714285712,8.92142857142857)"><path fill="rgb(0,0,0)" stroke="none" paint-order="stroke fill markers" d=" M 0.431 -0.396 Q 0.404 -0.41600000000000004 0.36 -0.41600000000000004 Q 0.268 -0.41600000000000004 0.217 -0.33 Q 0.196 -0.294 0.1785 -0.223 Q 0.161 -0.152 0.161 -0.121 Q 0.161 -0.028 0.26 -0.028 Q 0.396 -0.028 0.47100000000000003 -0.107 Q 0.481 -0.11800000000000001 0.486 -0.11800000000000001 Q 0.493 -0.11800000000000001 0.502 -0.108 Q 0.511 -0.098 0.511 -0.092 Q 0.511 -0.081 0.482 -0.0565 Q 0.453 -0.032 0.41300000000000003 -0.016 Q 0.35000000000000003 0.008 0.258 0.008 Q 0.149 0.008 0.0975 -0.041 Q 0.046 -0.09 0.046 -0.165 Q 0.046 -0.273 0.132 -0.3625 Q 0.218 -0.452 0.359 -0.452 Q 0.424 -0.452 0.4615 -0.426 Q 0.499 -0.4 0.499 -0.359 Q 0.499 -0.328 0.47850000000000004 -0.305 Q 0.458 -0.28200000000000003 0.427 -0.28200000000000003 Q 0.4 -0.28200000000000003 0.3885 -0.297 Q 0.377 -0.312 0.377 -0.328 Q 0.377 -0.334 0.3785 -0.3435 Q 0.38 -0.353 0.3935 -0.371 Q 0.40700000000000003 -0.389 0.431 -0.396 Z"/></g><g transform="translate(12.249285714285712,8.92142857142857)"><path fill="rgb(0,0,0)" stroke="none" paint-order="stroke fill markers" d=" M 0.5630000000000001 -0.317 L 0.54 -0.228 Q 0.535 -0.20600000000000002 0.518 -0.138 Q 0.504 -0.082 0.504 -0.065 Q 0.504 -0.028 0.527 -0.028 Q 0.5690000000000001 -0.028 0.595 -0.128 Q 0.602 -0.156 0.603 -0.157 Q 0.608 -0.162 0.623 -0.162 Q 0.647 -0.162 0.647 -0.148 Q 0.647 -0.14 0.636 -0.1075 Q 0.625 -0.075 0.609 -0.049 Q 0.5760000000000001 0.008 0.522 0.008 Q 0.444 0.008 0.40800000000000003 -0.047 Q 0.35000000000000003 0.008 0.281 0.008 Q 0.254 0.008 0.2305 0.0035 Q 0.20700000000000002 -0.001 0.1805 -0.0135 Q 0.154 -0.026000000000000002 0.138 -0.054 Q 0.122 -0.082 0.122 -0.122 Q 0.122 -0.18 0.183 -0.332 Q 0.199 -0.38 0.199 -0.395 Q 0.199 -0.405 0.196 -0.41000000000000003 Q 0.193 -0.41500000000000004 0.19 -0.41550000000000004 Q 0.187 -0.41600000000000004 0.182 -0.41600000000000004 Q 0.17300000000000001 -0.41600000000000004 0.163 -0.41200000000000003 Q 0.153 -0.40800000000000003 0.1375 -0.3975 Q 0.122 -0.387 0.1065 -0.3605 Q 0.091 -0.334 0.079 -0.295 Q 0.075 -0.28200000000000003 0.056 -0.28200000000000003 Q 0.032 -0.28200000000000003 0.032 -0.296 Q 0.032 -0.306 0.042 -0.3295 Q 0.052000000000000005 -0.353 0.07 -0.3815 Q 0.088 -0.41000000000000003 0.11950000000000001 -0.431 Q 0.151 -0.452 0.188 -0.452 Q 0.233 -0.452 0.267 -0.4275 Q 0.301 -0.403 0.301 -0.362 Q 0.301 -0.34600000000000003 0.28800000000000003 -0.312 Q 0.229 -0.16 0.229 -0.101 Q 0.229 -0.028 0.289 -0.028 Q 0.34800000000000003 -0.028 0.397 -0.093 Q 0.399 -0.115 0.41200000000000003 -0.163 Q 0.458 -0.35100000000000003 0.46900000000000003 -0.391 Q 0.47800000000000004 -0.42 0.4975 -0.432 Q 0.517 -0.444 0.535 -0.444 Q 0.557 -0.444 0.5695 -0.4305 Q 0.582 -0.417 0.582 -0.4 Q 0.582 -0.393 0.5630000000000001 -0.317 Z"/></g><g transform="translate(12.930285714285713,8.92142857142857)"><path fill="rgb(0,0,0)" stroke="none" paint-order="stroke fill markers" d=" M 0.28400000000000003 -0.659 L 0.146 -0.108 Q 0.14 -0.08 0.14 -0.064 Q 0.14 -0.028 0.163 -0.028 Q 0.20600000000000002 -0.028 0.231 -0.128 Q 0.23800000000000002 -0.156 0.23900000000000002 -0.157 Q 0.244 -0.162 0.259 -0.162 Q 0.28300000000000003 -0.162 0.28300000000000003 -0.148 Q 0.28300000000000003 -0.14 0.272 -0.107 Q 0.261 -0.074 0.245 -0.049 Q 0.21 0.008 0.158 0.008 Q 0.109 0.008 0.07100000000000001 -0.018000000000000002 Q 0.033 -0.044 0.033 -0.09 Q 0.033 -0.106 0.038 -0.124 L 0.166 -0.637 Q 0.153 -0.639 0.124 -0.639 Q 0.098 -0.639 0.098 -0.657 Q 0.098 -0.67 0.10400000000000001 -0.677 Q 0.11 -0.684 0.115 -0.685 Q 0.12 -0.686 0.13 -0.687 L 0.259 -0.6930000000000001 Q 0.261 -0.6940000000000001 0.266 -0.6940000000000001 Q 0.28800000000000003 -0.6940000000000001 0.28800000000000003 -0.676 Q 0.28800000000000003 -0.673 0.28400000000000003 -0.659 Z"/></g><g transform="translate(13.287285714285712,8.92142857142857)"><path fill="rgb(0,0,0)" stroke="none" paint-order="stroke fill markers" d=" M 0.515 -0.317 L 0.492 -0.228 Q 0.487 -0.20600000000000002 0.47000000000000003 -0.138 Q 0.456 -0.082 0.456 -0.065 Q 0.456 -0.028 0.47900000000000004 -0.028 Q 0.522 -0.028 0.547 -0.128 Q 0.554 -0.156 0.555 -0.157 Q 0.56 -0.162 0.5750000000000001 -0.162 Q 0.599 -0.162 0.599 -0.148 Q 0.599 -0.14 0.588 -0.1075 Q 0.577 -0.075 0.561 -0.049 Q 0.528 0.008 0.47400000000000003 0.008 Q 0.397 0.008 0.359 -0.046 Q 0.301 0.008 0.22 0.008 Q 0.148 0.008 0.0965 -0.032 Q 0.045 -0.07200000000000001 0.045 -0.157 Q 0.045 -0.268 0.1245 -0.36 Q 0.20400000000000001 -0.452 0.327 -0.452 Q 0.394 -0.452 0.433 -0.41000000000000003 Q 0.453 -0.435 0.484 -0.435 Q 0.502 -0.435 0.5165 -0.424 Q 0.531 -0.41300000000000003 0.531 -0.391 Q 0.531 -0.384 0.515 -0.317 M 0.34900000000000003 -0.093 L 0.41000000000000003 -0.34400000000000003 L 0.41200000000000003 -0.358 Q 0.41200000000000003 -0.372 0.3895 -0.394 Q 0.367 -0.41600000000000004 0.329 -0.41600000000000004 Q 0.25 -0.41600000000000004 0.20800000000000002 -0.318 Q 0.194 -0.28400000000000003 0.176 -0.212 Q 0.158 -0.14 0.158 -0.10400000000000001 Q 0.158 -0.028 0.225 -0.028 Q 0.259 -0.028 0.292 -0.0465 Q 0.325 -0.065 0.34900000000000003 -0.093 Z"/></g><g transform="translate(13.920285714285711,8.92142857142857)"><path fill="rgb(0,0,0)" stroke="none" paint-order="stroke fill markers" d=" M 0.334 -0.646 Q 0.334 -0.62 0.312 -0.5985 Q 0.29 -0.577 0.263 -0.577 Q 0.242 -0.577 0.228 -0.5905 Q 0.214 -0.604 0.214 -0.625 Q 0.214 -0.651 0.23550000000000001 -0.6725 Q 0.257 -0.6940000000000001 0.28500000000000003 -0.6940000000000001 Q 0.306 -0.6940000000000001 0.32 -0.68 Q 0.334 -0.666 0.334 -0.646 M 0.359 -0.148 Q 0.359 -0.132 0.343 -0.0975 Q 0.327 -0.063 0.289 -0.0275 Q 0.251 0.008 0.20400000000000001 0.008 Q 0.157 0.008 0.1235 -0.0175 Q 0.09 -0.043000000000000003 0.09 -0.082 Q 0.09 -0.095 0.098 -0.116 L 0.165 -0.289 Q 0.198 -0.372 0.198 -0.394 Q 0.198 -0.41600000000000004 0.182 -0.41600000000000004 Q 0.168 -0.41600000000000004 0.1525 -0.40850000000000003 Q 0.137 -0.401 0.115 -0.372 Q 0.093 -0.343 0.079 -0.295 Q 0.075 -0.28200000000000003 0.056 -0.28200000000000003 Q 0.032 -0.28200000000000003 0.032 -0.296 Q 0.032 -0.312 0.048 -0.34650000000000003 Q 0.064 -0.381 0.10200000000000001 -0.4165 Q 0.14 -0.452 0.187 -0.452 Q 0.234 -0.452 0.2675 -0.4265 Q 0.301 -0.401 0.301 -0.362 Q 0.301 -0.34900000000000003 0.293 -0.328 L 0.226 -0.155 Q 0.193 -0.07200000000000001 0.193 -0.05 Q 0.193 -0.028 0.209 -0.028 Q 0.223 -0.028 0.23850000000000002 -0.035500000000000004 Q 0.254 -0.043000000000000003 0.276 -0.07200000000000001 Q 0.298 -0.101 0.312 -0.149 Q 0.316 -0.162 0.335 -0.162 Q 0.359 -0.162 0.359 -0.148 Z"/></g><g transform="translate(14.32528571428571,8.92142857142857)"><path fill="rgb(0,0,0)" stroke="none" paint-order="stroke fill markers" d=" M 0.444 -0.402 Q 0.43 -0.41600000000000004 0.405 -0.41600000000000004 Q 0.341 -0.41600000000000004 0.295 -0.358 Q 0.28300000000000003 -0.34400000000000003 0.278 -0.326 Q 0.277 -0.322 0.243 -0.185 Q 0.209 -0.048 0.20800000000000002 -0.045 Q 0.201 -0.017 0.181 -0.0045000000000000005 Q 0.161 0.008 0.14200000000000002 0.008 Q 0.12 0.008 0.1075 -0.0055 Q 0.095 -0.019 0.095 -0.036000000000000004 L 0.113 -0.114 Q 0.124 -0.155 0.133 -0.196 Q 0.136 -0.20800000000000002 0.147 -0.2515 Q 0.158 -0.295 0.161 -0.304 Q 0.17500000000000002 -0.364 0.17500000000000002 -0.38 Q 0.17500000000000002 -0.41600000000000004 0.152 -0.41600000000000004 Q 0.109 -0.41600000000000004 0.084 -0.316 Q 0.077 -0.28800000000000003 0.076 -0.28700000000000003 Q 0.07100000000000001 -0.28200000000000003 0.056 -0.28200000000000003 Q 0.032 -0.28200000000000003 0.032 -0.296 Q 0.032 -0.304 0.043000000000000003 -0.337 Q 0.054 -0.37 0.07 -0.395 Q 0.105 -0.452 0.157 -0.452 Q 0.19 -0.452 0.224 -0.4375 Q 0.258 -0.423 0.274 -0.392 Q 0.33 -0.452 0.40700000000000003 -0.452 Q 0.452 -0.452 0.47850000000000004 -0.4265 Q 0.505 -0.401 0.505 -0.365 Q 0.505 -0.329 0.483 -0.3075 Q 0.461 -0.28600000000000003 0.433 -0.28600000000000003 Q 0.41000000000000003 -0.28600000000000003 0.3965 -0.3 Q 0.383 -0.314 0.383 -0.332 Q 0.383 -0.341 0.386 -0.3525 Q 0.389 -0.364 0.404 -0.3805 Q 0.419 -0.397 0.444 -0.402 Z"/></g><g transform="translate(14.88628571428571,8.92142857142857)"><path fill="rgb(0,0,0)" stroke="none" paint-order="stroke fill markers" d=" M 0.222 -0.218 L 0.178 -0.218 Q 0.163 -0.162 0.163 -0.125 Q 0.163 -0.028 0.261 -0.028 Q 0.396 -0.028 0.47100000000000003 -0.107 Q 0.481 -0.11800000000000001 0.486 -0.11800000000000001 Q 0.493 -0.11800000000000001 0.502 -0.108 Q 0.511 -0.098 0.511 -0.092 Q 0.511 -0.081 0.482 -0.0565 Q 0.453 -0.032 0.41300000000000003 -0.016 Q 0.35000000000000003 0.008 0.258 0.008 Q 0.159 0.008 0.10400000000000001 -0.039 Q 0.049 -0.08600000000000001 0.049 -0.17200000000000001 Q 0.049 -0.29 0.1365 -0.371 Q 0.224 -0.452 0.358 -0.452 Q 0.42 -0.452 0.4575 -0.4255 Q 0.495 -0.399 0.495 -0.356 Q 0.495 -0.272 0.396 -0.23800000000000002 Q 0.336 -0.218 0.222 -0.218 M 0.187 -0.254 Q 0.216 -0.254 0.232 -0.254 Q 0.248 -0.254 0.278 -0.256 Q 0.308 -0.258 0.326 -0.2615 Q 0.34400000000000003 -0.265 0.367 -0.2725 Q 0.39 -0.28 0.403 -0.2905 Q 0.41600000000000004 -0.301 0.4255 -0.3175 Q 0.435 -0.334 0.435 -0.355 Q 0.435 -0.386 0.41200000000000003 -0.401 Q 0.389 -0.41600000000000004 0.358 -0.41600000000000004 Q 0.292 -0.41600000000000004 0.246 -0.37 Q 0.20600000000000002 -0.333 0.187 -0.254 Z"/></g><g transform="translate(15.44028571428571,8.92142857142857)"><path fill="rgb(0,0,0)" stroke="none" paint-order="stroke fill markers" d=" M 0.515 -0.317 L 0.492 -0.228 Q 0.487 -0.20600000000000002 0.47000000000000003 -0.138 Q 0.456 -0.082 0.456 -0.065 Q 0.456 -0.028 0.47900000000000004 -0.028 Q 0.522 -0.028 0.547 -0.128 Q 0.554 -0.156 0.555 -0.157 Q 0.56 -0.162 0.5750000000000001 -0.162 Q 0.599 -0.162 0.599 -0.148 Q 0.599 -0.14 0.588 -0.1075 Q 0.577 -0.075 0.561 -0.049 Q 0.528 0.008 0.47400000000000003 0.008 Q 0.397 0.008 0.359 -0.046 Q 0.301 0.008 0.22 0.008 Q 0.148 0.008 0.0965 -0.032 Q 0.045 -0.07200000000000001 0.045 -0.157 Q 0.045 -0.268 0.1245 -0.36 Q 0.20400000000000001 -0.452 0.327 -0.452 Q 0.394 -0.452 0.433 -0.41000000000000003 Q 0.453 -0.435 0.484 -0.435 Q 0.502 -0.435 0.5165 -0.424 Q 0.531 -0.41300000000000003 0.531 -0.391 Q 0.531 -0.384 0.515 -0.317 M 0.34900000000000003 -0.093 L 0.41000000000000003 -0.34400000000000003 L 0.41200000000000003 -0.358 Q 0.41200000000000003 -0.372 0.3895 -0.394 Q 0.367 -0.41600000000000004 0.329 -0.41600000000000004 Q 0.25 -0.41600000000000004 0.20800000000000002 -0.318 Q 0.194 -0.28400000000000003 0.176 -0.212 Q 0.158 -0.14 0.158 -0.10400000000000001 Q 0.158 -0.028 0.225 -0.028 Q 0.259 -0.028 0.292 -0.0465 Q 0.325 -0.065 0.34900000000000003 -0.093 Z"/></g><g transform="translate(16.07328571428571,8.92142857142857)"><path fill="rgb(0,0,0)" stroke="none" paint-order="stroke fill markers" d=" M 0.5630000000000001 -0.317 L 0.54 -0.228 Q 0.535 -0.20600000000000002 0.518 -0.138 Q 0.504 -0.082 0.504 -0.065 Q 0.504 -0.028 0.527 -0.028 Q 0.5690000000000001 -0.028 0.595 -0.128 Q 0.602 -0.156 0.603 -0.157 Q 0.608 -0.162 0.623 -0.162 Q 0.647 -0.162 0.647 -0.148 Q 0.647 -0.14 0.636 -0.1075 Q 0.625 -0.075 0.609 -0.049 Q 0.5760000000000001 0.008 0.522 0.008 Q 0.444 0.008 0.40800000000000003 -0.047 Q 0.35000000000000003 0.008 0.281 0.008 Q 0.254 0.008 0.2305 0.0035 Q 0.20700000000000002 -0.001 0.1805 -0.0135 Q 0.154 -0.026000000000000002 0.138 -0.054 Q 0.122 -0.082 0.122 -0.122 Q 0.122 -0.18 0.183 -0.332 Q 0.199 -0.38 0.199 -0.395 Q 0.199 -0.405 0.196 -0.41000000000000003 Q 0.193 -0.41500000000000004 0.19 -0.41550000000000004 Q 0.187 -0.41600000000000004 0.182 -0.41600000000000004 Q 0.17300000000000001 -0.41600000000000004 0.163 -0.41200000000000003 Q 0.153 -0.40800000000000003 0.1375 -0.3975 Q 0.122 -0.387 0.1065 -0.3605 Q 0.091 -0.334 0.079 -0.295 Q 0.075 -0.28200000000000003 0.056 -0.28200000000000003 Q 0.032 -0.28200000000000003 0.032 -0.296 Q 0.032 -0.306 0.042 -0.3295 Q 0.052000000000000005 -0.353 0.07 -0.3815 Q 0.088 -0.41000000000000003 0.11950000000000001 -0.431 Q 0.151 -0.452 0.188 -0.452 Q 0.233 -0.452 0.267 -0.4275 Q 0.301 -0.403 0.301 -0.362 Q 0.301 -0.34600000000000003 0.28800000000000003 -0.312 Q 0.229 -0.16 0.229 -0.101 Q 0.229 -0.028 0.289 -0.028 Q 0.34800000000000003 -0.028 0.397 -0.093 Q 0.399 -0.115 0.41200000000000003 -0.163 Q 0.458 -0.35100000000000003 0.46900000000000003 -0.391 Q 0.47800000000000004 -0.42 0.4975 -0.432 Q 0.517 -0.444 0.535 -0.444 Q 0.557 -0.444 0.5695 -0.4305 Q 0.582 -0.417 0.582 -0.4 Q 0.582 -0.393 0.5630000000000001 -0.317 Z"/></g><g transform="translate(17.08728571428571,8.92142857142857)"><path fill="rgb(0,0,0)" stroke="none" paint-order="stroke fill markers" d=" M 0.052000000000000005 0.129 L 0.169 -0.336 Q 0.17500000000000002 -0.357 0.17500000000000002 -0.379 Q 0.17500000000000002 -0.41600000000000004 0.152 -0.41600000000000004 Q 0.109 -0.41600000000000004 0.084 -0.316 Q 0.077 -0.28800000000000003 0.076 -0.28700000000000003 Q 0.07100000000000001 -0.28200000000000003 0.056 -0.28200000000000003 Q 0.032 -0.28200000000000003 0.032 -0.296 Q 0.032 -0.304 0.043000000000000003 -0.3365 Q 0.054 -0.369 0.07 -0.395 Q 0.10300000000000001 -0.452 0.157 -0.452 Q 0.234 -0.452 0.272 -0.398 Q 0.33 -0.452 0.41100000000000003 -0.452 Q 0.483 -0.452 0.5345 -0.41200000000000003 Q 0.586 -0.372 0.586 -0.28700000000000003 Q 0.586 -0.176 0.5065000000000001 -0.084 Q 0.427 0.008 0.304 0.008 Q 0.242 0.008 0.203 -0.028 L 0.16 0.146 Q 0.17300000000000001 0.147 0.203 0.147 Q 0.229 0.147 0.229 0.165 Q 0.229 0.194 0.203 0.194 Q 0.186 0.194 0.15 0.1925 Q 0.114 0.191 0.096 0.191 Q 0.081 0.191 0.0495 0.1925 Q 0.018000000000000002 0.194 0.004 0.194 Q -0.015 0.194 -0.015 0.17500000000000002 Q -0.015 0.162 -0.009000000000000001 0.1555 Q -0.003 0.149 0.003 0.148 Q 0.009000000000000001 0.147 0.02 0.147 Q 0.04 0.147 0.046 0.145 Q 0.048 0.14300000000000002 0.052000000000000005 0.129 M 0.28200000000000003 -0.35100000000000003 L 0.221 -0.1 L 0.219 -0.08600000000000001 Q 0.219 -0.07200000000000001 0.2415 -0.05 Q 0.264 -0.028 0.302 -0.028 Q 0.381 -0.028 0.423 -0.126 Q 0.437 -0.16 0.455 -0.232 Q 0.47300000000000003 -0.304 0.47300000000000003 -0.34 Q 0.47300000000000003 -0.41600000000000004 0.406 -0.41600000000000004 Q 0.372 -0.41600000000000004 0.339 -0.3975 Q 0.306 -0.379 0.28200000000000003 -0.35100000000000003 Z"/></g><g transform="translate(17.68828571428571,8.92142857142857)"><path fill="rgb(0,0,0)" stroke="none" paint-order="stroke fill markers" d=" M 0.28400000000000003 -0.659 L 0.146 -0.108 Q 0.14 -0.08 0.14 -0.064 Q 0.14 -0.028 0.163 -0.028 Q 0.20600000000000002 -0.028 0.231 -0.128 Q 0.23800000000000002 -0.156 0.23900000000000002 -0.157 Q 0.244 -0.162 0.259 -0.162 Q 0.28300000000000003 -0.162 0.28300000000000003 -0.148 Q 0.28300000000000003 -0.14 0.272 -0.107 Q 0.261 -0.074 0.245 -0.049 Q 0.21 0.008 0.158 0.008 Q 0.109 0.008 0.07100000000000001 -0.018000000000000002 Q 0.033 -0.044 0.033 -0.09 Q 0.033 -0.106 0.038 -0.124 L 0.166 -0.637 Q 0.153 -0.639 0.124 -0.639 Q 0.098 -0.639 0.098 -0.657 Q 0.098 -0.67 0.10400000000000001 -0.677 Q 0.11 -0.684 0.115 -0.685 Q 0.12 -0.686 0.13 -0.687 L 0.259 -0.6930000000000001 Q 0.261 -0.6940000000000001 0.266 -0.6940000000000001 Q 0.28800000000000003 -0.6940000000000001 0.28800000000000003 -0.676 Q 0.28800000000000003 -0.673 0.28400000000000003 -0.659 Z"/></g><g transform="translate(18.045285714285708,8.92142857142857)"><path fill="rgb(0,0,0)" stroke="none" paint-order="stroke fill markers" d=" M 0.515 -0.317 L 0.492 -0.228 Q 0.487 -0.20600000000000002 0.47000000000000003 -0.138 Q 0.456 -0.082 0.456 -0.065 Q 0.456 -0.028 0.47900000000000004 -0.028 Q 0.522 -0.028 0.547 -0.128 Q 0.554 -0.156 0.555 -0.157 Q 0.56 -0.162 0.5750000000000001 -0.162 Q 0.599 -0.162 0.599 -0.148 Q 0.599 -0.14 0.588 -0.1075 Q 0.577 -0.075 0.561 -0.049 Q 0.528 0.008 0.47400000000000003 0.008 Q 0.397 0.008 0.359 -0.046 Q 0.301 0.008 0.22 0.008 Q 0.148 0.008 0.0965 -0.032 Q 0.045 -0.07200000000000001 0.045 -0.157 Q 0.045 -0.268 0.1245 -0.36 Q 0.20400000000000001 -0.452 0.327 -0.452 Q 0.394 -0.452 0.433 -0.41000000000000003 Q 0.453 -0.435 0.484 -0.435 Q 0.502 -0.435 0.5165 -0.424 Q 0.531 -0.41300000000000003 0.531 -0.391 Q 0.531 -0.384 0.515 -0.317 M 0.34900000000000003 -0.093 L 0.41000000000000003 -0.34400000000000003 L 0.41200000000000003 -0.358 Q 0.41200000000000003 -0.372 0.3895 -0.394 Q 0.367 -0.41600000000000004 0.329 -0.41600000000000004 Q 0.25 -0.41600000000000004 0.20800000000000002 -0.318 Q 0.194 -0.28400000000000003 0.176 -0.212 Q 0.158 -0.14 0.158 -0.10400000000000001 Q 0.158 -0.028 0.225 -0.028 Q 0.259 -0.028 0.292 -0.0465 Q 0.325 -0.065 0.34900000000000003 -0.093 Z"/></g><g transform="translate(18.678285714285707,8.92142857142857)"><path fill="rgb(0,0,0)" stroke="none" paint-order="stroke fill markers" d=" M 0.28 -0.376 Q 0.35100000000000003 -0.452 0.445 -0.452 Q 0.509 -0.452 0.5515 -0.4255 Q 0.594 -0.399 0.594 -0.336 Q 0.594 -0.281 0.532 -0.122 Q 0.512 -0.07200000000000001 0.512 -0.049 Q 0.512 -0.039 0.515 -0.034 Q 0.518 -0.029 0.521 -0.0285 Q 0.524 -0.028 0.529 -0.028 Q 0.538 -0.028 0.548 -0.032 Q 0.558 -0.036000000000000004 0.5735 -0.0465 Q 0.589 -0.057 0.6045 -0.0835 Q 0.62 -0.11 0.632 -0.149 Q 0.636 -0.162 0.655 -0.162 Q 0.679 -0.162 0.679 -0.148 Q 0.679 -0.138 0.669 -0.1145 Q 0.659 -0.091 0.641 -0.0625 Q 0.623 -0.034 0.5915 -0.013000000000000001 Q 0.56 0.008 0.523 0.008 Q 0.47800000000000004 0.008 0.444 -0.0165 Q 0.41000000000000003 -0.041 0.41000000000000003 -0.082 Q 0.41000000000000003 -0.099 0.424 -0.133 Q 0.487 -0.299 0.487 -0.357 Q 0.487 -0.41600000000000004 0.437 -0.41600000000000004 Q 0.384 -0.41600000000000004 0.334 -0.377 Q 0.312 -0.359 0.2925 -0.3325 Q 0.273 -0.306 0.272 -0.299 Q 0.271 -0.297 0.257 -0.241 Q 0.243 -0.185 0.241 -0.18 Q 0.227 -0.12 0.213 -0.068 Q 0.209 -0.053 0.20550000000000002 -0.043000000000000003 Q 0.202 -0.033 0.1945 -0.0195 Q 0.187 -0.006 0.17350000000000002 0.001 Q 0.16 0.008 0.14200000000000002 0.008 Q 0.12 0.008 0.1075 -0.0055 Q 0.095 -0.019 0.095 -0.036000000000000004 Q 0.095 -0.039 0.10300000000000001 -0.076 L 0.139 -0.216 Q 0.14400000000000002 -0.23800000000000002 0.161 -0.306 Q 0.17500000000000002 -0.362 0.17500000000000002 -0.379 Q 0.17500000000000002 -0.41600000000000004 0.152 -0.41600000000000004 Q 0.11 -0.41600000000000004 0.084 -0.316 Q 0.077 -0.28800000000000003 0.076 -0.28700000000000003 Q 0.07100000000000001 -0.28200000000000003 0.056 -0.28200000000000003 Q 0.032 -0.28200000000000003 0.032 -0.296 Q 0.032 -0.304 0.043000000000000003 -0.3365 Q 0.054 -0.369 0.07 -0.395 Q 0.105 -0.452 0.157 -0.452 Q 0.2 -0.452 0.23500000000000001 -0.432 Q 0.27 -0.41200000000000003 0.28 -0.376 Z"/></g><g transform="translate(19.724285714285706,8.92142857142857)"><path fill="rgb(0,0,0)" stroke="none" paint-order="stroke fill markers" d=" M 0.379 0.225 L 0.38 0.228 Q 0.382 0.232 0.382 0.23500000000000001 Q 0.382 0.249 0.364 0.249 Q 0.34500000000000003 0.249 0.2885 0.1965 Q 0.232 0.14400000000000002 0.188 0.067 Q 0.108 -0.074 0.108 -0.251 Q 0.108 -0.518 0.28700000000000003 -0.6960000000000001 Q 0.34400000000000003 -0.75 0.364 -0.75 Q 0.382 -0.75 0.382 -0.736 Q 0.382 -0.731 0.366 -0.715 Q 0.20500000000000002 -0.553 0.20500000000000002 -0.25 Q 0.20500000000000002 -0.106 0.243 0.009000000000000001 Q 0.28500000000000003 0.138 0.379 0.225 Z"/></g><g transform="translate(20.171285714285705,8.92142857142857)"><path fill="rgb(0,0,0)" stroke="none" paint-order="stroke fill markers" d=" M 0.052000000000000005 0.129 L 0.169 -0.336 Q 0.17500000000000002 -0.357 0.17500000000000002 -0.379 Q 0.17500000000000002 -0.41600000000000004 0.152 -0.41600000000000004 Q 0.109 -0.41600000000000004 0.084 -0.316 Q 0.077 -0.28800000000000003 0.076 -0.28700000000000003 Q 0.07100000000000001 -0.28200000000000003 0.056 -0.28200000000000003 Q 0.032 -0.28200000000000003 0.032 -0.296 Q 0.032 -0.304 0.043000000000000003 -0.3365 Q 0.054 -0.369 0.07 -0.395 Q 0.10300000000000001 -0.452 0.157 -0.452 Q 0.234 -0.452 0.272 -0.398 Q 0.33 -0.452 0.41100000000000003 -0.452 Q 0.483 -0.452 0.5345 -0.41200000000000003 Q 0.586 -0.372 0.586 -0.28700000000000003 Q 0.586 -0.176 0.5065000000000001 -0.084 Q 0.427 0.008 0.304 0.008 Q 0.242 0.008 0.203 -0.028 L 0.16 0.146 Q 0.17300000000000001 0.147 0.203 0.147 Q 0.229 0.147 0.229 0.165 Q 0.229 0.194 0.203 0.194 Q 0.186 0.194 0.15 0.1925 Q 0.114 0.191 0.096 0.191 Q 0.081 0.191 0.0495 0.1925 Q 0.018000000000000002 0.194 0.004 0.194 Q -0.015 0.194 -0.015 0.17500000000000002 Q -0.015 0.162 -0.009000000000000001 0.1555 Q -0.003 0.149 0.003 0.148 Q 0.009000000000000001 0.147 0.02 0.147 Q 0.04 0.147 0.046 0.145 Q 0.048 0.14300000000000002 0.052000000000000005 0.129 M 0.28200000000000003 -0.35100000000000003 L 0.221 -0.1 L 0.219 -0.08600000000000001 Q 0.219 -0.07200000000000001 0.2415 -0.05 Q 0.264 -0.028 0.302 -0.028 Q 0.381 -0.028 0.423 -0.126 Q 0.437 -0.16 0.455 -0.232 Q 0.47300000000000003 -0.304 0.47300000000000003 -0.34 Q 0.47300000000000003 -0.41600000000000004 0.406 -0.41600000000000004 Q 0.372 -0.41600000000000004 0.339 -0.3975 Q 0.306 -0.379 0.28200000000000003 -0.35100000000000003 Z"/></g><g transform="translate(20.772285714285704,8.92142857142857)"><path fill="rgb(0,0,0)" stroke="none" paint-order="stroke fill markers" d=" M 0.338 -0.25 Q 0.338 0.017 0.159 0.195 Q 0.10200000000000001 0.249 0.082 0.249 Q 0.064 0.249 0.064 0.23500000000000001 Q 0.064 0.23 0.08 0.214 Q 0.241 0.052000000000000005 0.241 -0.251 Q 0.241 -0.55 0.081 -0.713 Q 0.064 -0.729 0.064 -0.736 Q 0.064 -0.75 0.082 -0.75 Q 0.101 -0.75 0.1575 -0.6975 Q 0.214 -0.645 0.258 -0.5680000000000001 Q 0.338 -0.427 0.338 -0.25 Z"/></g></g><g transform="scale(35,35)"><g transform="translate(3.4,10.351142857142857)"><path fill="rgb(0,0,0)" stroke="none" paint-order="stroke fill markers" d=" M 0.431 -0.11 L 0.47600000000000003 -0.29 Q 0.487 -0.331 0.487 -0.357 Q 0.487 -0.41600000000000004 0.437 -0.41600000000000004 Q 0.384 -0.41600000000000004 0.334 -0.377 Q 0.312 -0.359 0.2925 -0.3325 Q 0.273 -0.306 0.272 -0.299 Q 0.271 -0.297 0.257 -0.241 Q 0.243 -0.185 0.241 -0.18 Q 0.227 -0.12 0.213 -0.068 Q 0.209 -0.053 0.20550000000000002 -0.043000000000000003 Q 0.202 -0.033 0.1945 -0.0195 Q 0.187 -0.006 0.17350000000000002 0.001 Q 0.16 0.008 0.14200000000000002 0.008 Q 0.12 0.008 0.1075 -0.0055 Q 0.095 -0.019 0.095 -0.036000000000000004 Q 0.095 -0.039 0.10300000000000001 -0.076 L 0.139 -0.216 Q 0.14400000000000002 -0.23800000000000002 0.161 -0.306 Q 0.17500000000000002 -0.362 0.17500000000000002 -0.379 Q 0.17500000000000002 -0.41600000000000004 0.152 -0.41600000000000004 Q 0.11 -0.41600000000000004 0.084 -0.316 Q 0.077 -0.28800000000000003 0.076 -0.28700000000000003 Q 0.07100000000000001 -0.28200000000000003 0.056 -0.28200000000000003 Q 0.032 -0.28200000000000003 0.032 -0.296 Q 0.032 -0.304 0.043000000000000003 -0.3365 Q 0.054 -0.369 0.07 -0.395 Q 0.105 -0.452 0.157 -0.452 Q 0.2 -0.452 0.23500000000000001 -0.432 Q 0.27 -0.41200000000000003 0.28 -0.376 Q 0.35100000000000003 -0.452 0.445 -0.452 Q 0.506 -0.452 0.542 -0.431 Q 0.58 -0.41000000000000003 0.59 -0.366 Q 0.665 -0.452 0.764 -0.452 Q 0.8280000000000001 -0.452 0.8705 -0.4255 Q 0.913 -0.399 0.913 -0.336 Q 0.913 -0.281 0.851 -0.122 Q 0.8310000000000001 -0.07200000000000001 0.8310000000000001 -0.049 Q 0.8310000000000001 -0.039 0.834 -0.034 Q 0.837 -0.029 0.84 -0.0285 Q 0.843 -0.028 0.848 -0.028 Q 0.857 -0.028 0.867 -0.032 Q 0.877 -0.036000000000000004 0.8925000000000001 -0.0465 Q 0.908 -0.057 0.9235 -0.0835 Q 0.9390000000000001 -0.11 0.9510000000000001 -0.149 Q 0.9550000000000001 -0.162 0.974 -0.162 Q 0.998 -0.162 0.998 -0.148 Q 0.998 -0.138 0.988 -0.1145 Q 0.978 -0.091 0.96 -0.0625 Q 0.9420000000000001 -0.034 0.9105 -0.013000000000000001 Q 0.879 0.008 0.842 0.008 Q 0.797 0.008 0.763 -0.0165 Q 0.729 -0.041 0.729 -0.082 Q 0.729 -0.099 0.743 -0.133 Q 0.806 -0.299 0.806 -0.357 Q 0.806 -0.41600000000000004 0.756 -0.41600000000000004 Q 0.676 -0.41600000000000004 0.613 -0.334 Q 0.591 -0.304 0.587 -0.28600000000000003 Q 0.529 -0.048 0.524 -0.035 Q 0.505 0.008 0.461 0.008 Q 0.439 0.008 0.4265 -0.0055 Q 0.41400000000000003 -0.019 0.41400000000000003 -0.036000000000000004 Q 0.41400000000000003 -0.039 0.431 -0.11 Z"/></g><g transform="translate(4.432,10.351142857142857)"><path fill="rgb(0,0,0)" stroke="none" paint-order="stroke fill markers" d=" M 0.5630000000000001 -0.317 L 0.54 -0.228 Q 0.535 -0.20600000000000002 0.518 -0.138 Q 0.504 -0.082 0.504 -0.065 Q 0.504 -0.028 0.527 -0.028 Q 0.5690000000000001 -0.028 0.595 -0.128 Q 0.602 -0.156 0.603 -0.157 Q 0.608 -0.162 0.623 -0.162 Q 0.647 -0.162 0.647 -0.148 Q 0.647 -0.14 0.636 -0.1075 Q 0.625 -0.075 0.609 -0.049 Q 0.5760000000000001 0.008 0.522 0.008 Q 0.444 0.008 0.40800000000000003 -0.047 Q 0.35000000000000003 0.008 0.281 0.008 Q 0.254 0.008 0.2305 0.0035 Q 0.20700000000000002 -0.001 0.1805 -0.0135 Q 0.154 -0.026000000000000002 0.138 -0.054 Q 0.122 -0.082 0.122 -0.122 Q 0.122 -0.18 0.183 -0.332 Q 0.199 -0.38 0.199 -0.395 Q 0.199 -0.405 0.196 -0.41000000000000003 Q 0.193 -0.41500000000000004 0.19 -0.41550000000000004 Q 0.187 -0.41600000000000004 0.182 -0.41600000000000004 Q 0.17300000000000001 -0.41600000000000004 0.163 -0.41200000000000003 Q 0.153 -0.40800000000000003 0.1375 -0.3975 Q 0.122 -0.387 0.1065 -0.3605 Q 0.091 -0.334 0.079 -0.295 Q 0.075 -0.28200000000000003 0.056 -0.28200000000000003 Q 0.032 -0.28200000000000003 0.032 -0.296 Q 0.032 -0.306 0.042 -0.3295 Q 0.052000000000000005 -0.353 0.07 -0.3815 Q 0.088 -0.41000000000000003 0.11950000000000001 -0.431 Q 0.151 -0.452 0.188 -0.452 Q 0.233 -0.452 0.267 -0.4275 Q 0.301 -0.403 0.301 -0.362 Q 0.301 -0.34600000000000003 0.28800000000000003 -0.312 Q 0.229 -0.16 0.229 -0.101 Q 0.229 -0.028 0.289 -0.028 Q 0.34800000000000003 -0.028 0.397 -0.093 Q 0.399 -0.115 0.41200000000000003 -0.163 Q 0.458 -0.35100000000000003 0.46900000000000003 -0.391 Q 0.47800000000000004 -0.42 0.4975 -0.432 Q 0.517 -0.444 0.535 -0.444 Q 0.557 -0.444 0.5695 -0.4305 Q 0.582 -0.417 0.582 -0.4 Q 0.582 -0.393 0.5630000000000001 -0.317 Z"/></g><g transform="translate(5.113,10.351142857142857)"><path fill="rgb(0,0,0)" stroke="none" paint-order="stroke fill markers" d=" M 0.28 -0.376 Q 0.35100000000000003 -0.452 0.445 -0.452 Q 0.509 -0.452 0.5515 -0.4255 Q 0.594 -0.399 0.594 -0.336 Q 0.594 -0.281 0.532 -0.122 Q 0.512 -0.07200000000000001 0.512 -0.049 Q 0.512 -0.039 0.515 -0.034 Q 0.518 -0.029 0.521 -0.0285 Q 0.524 -0.028 0.529 -0.028 Q 0.538 -0.028 0.548 -0.032 Q 0.558 -0.036000000000000004 0.5735 -0.0465 Q 0.589 -0.057 0.6045 -0.0835 Q 0.62 -0.11 0.632 -0.149 Q 0.636 -0.162 0.655 -0.162 Q 0.679 -0.162 0.679 -0.148 Q 0.679 -0.138 0.669 -0.1145 Q 0.659 -0.091 0.641 -0.0625 Q 0.623 -0.034 0.5915 -0.013000000000000001 Q 0.56 0.008 0.523 0.008 Q 0.47800000000000004 0.008 0.444 -0.0165 Q 0.41000000000000003 -0.041 0.41000000000000003 -0.082 Q 0.41000000000000003 -0.099 0.424 -0.133 Q 0.487 -0.299 0.487 -0.357 Q 0.487 -0.41600000000000004 0.437 -0.41600000000000004 Q 0.384 -0.41600000000000004 0.334 -0.377 Q 0.312 -0.359 0.2925 -0.3325 Q 0.273 -0.306 0.272 -0.299 Q 0.271 -0.297 0.257 -0.241 Q 0.243 -0.185 0.241 -0.18 Q 0.227 -0.12 0.213 -0.068 Q 0.209 -0.053 0.20550000000000002 -0.043000000000000003 Q 0.202 -0.033 0.1945 -0.0195 Q 0.187 -0.006 0.17350000000000002 0.001 Q 0.16 0.008 0.14200000000000002 0.008 Q 0.12 0.008 0.1075 -0.0055 Q 0.095 -0.019 0.095 -0.036000000000000004 Q 0.095 -0.039 0.10300000000000001 -0.076 L 0.139 -0.216 Q 0.14400000000000002 -0.23800000000000002 0.161 -0.306 Q 0.17500000000000002 -0.362 0.17500000000000002 -0.379 Q 0.17500000000000002 -0.41600000000000004 0.152 -0.41600000000000004 Q 0.11 -0.41600000000000004 0.084 -0.316 Q 0.077 -0.28800000000000003 0.076 -0.28700000000000003 Q 0.07100000000000001 -0.28200000000000003 0.056 -0.28200000000000003 Q 0.032 -0.28200000000000003 0.032 -0.296 Q 0.032 -0.304 0.043000000000000003 -0.3365 Q 0.054 -0.369 0.07 -0.395 Q 0.105 -0.452 0.157 -0.452 Q 0.2 -0.452 0.23500000000000001 -0.432 Q 0.27 -0.41200000000000003 0.28 -0.376 Z"/></g><g transform="translate(5.8260000000000005,10.351142857142857)"><path fill="rgb(0,0,0)" stroke="none" paint-order="stroke fill markers" d=" M 0.334 -0.646 Q 0.334 -0.62 0.312 -0.5985 Q 0.29 -0.577 0.263 -0.577 Q 0.242 -0.577 0.228 -0.5905 Q 0.214 -0.604 0.214 -0.625 Q 0.214 -0.651 0.23550000000000001 -0.6725 Q 0.257 -0.6940000000000001 0.28500000000000003 -0.6940000000000001 Q 0.306 -0.6940000000000001 0.32 -0.68 Q 0.334 -0.666 0.334 -0.646 M 0.359 -0.148 Q 0.359 -0.132 0.343 -0.0975 Q 0.327 -0.063 0.289 -0.0275 Q 0.251 0.008 0.20400000000000001 0.008 Q 0.157 0.008 0.1235 -0.0175 Q 0.09 -0.043000000000000003 0.09 -0.082 Q 0.09 -0.095 0.098 -0.116 L 0.165 -0.289 Q 0.198 -0.372 0.198 -0.394 Q 0.198 -0.41600000000000004 0.182 -0.41600000000000004 Q 0.168 -0.41600000000000004 0.1525 -0.40850000000000003 Q 0.137 -0.401 0.115 -0.372 Q 0.093 -0.343 0.079 -0.295 Q 0.075 -0.28200000000000003 0.056 -0.28200000000000003 Q 0.032 -0.28200000000000003 0.032 -0.296 Q 0.032 -0.312 0.048 -0.34650000000000003 Q 0.064 -0.381 0.10200000000000001 -0.4165 Q 0.14 -0.452 0.187 -0.452 Q 0.234 -0.452 0.2675 -0.4265 Q 0.301 -0.401 0.301 -0.362 Q 0.301 -0.34900000000000003 0.293 -0.328 L 0.226 -0.155 Q 0.193 -0.07200000000000001 0.193 -0.05 Q 0.193 -0.028 0.209 -0.028 Q 0.223 -0.028 0.23850000000000002 -0.035500000000000004 Q 0.254 -0.043000000000000003 0.276 -0.07200000000000001 Q 0.298 -0.101 0.312 -0.149 Q 0.316 -0.162 0.335 -0.162 Q 0.359 -0.162 0.359 -0.148 Z"/></g><g transform="translate(6.564000000000001,10.351142857142857)"><path fill="rgb(0,0,0)" stroke="none" paint-order="stroke fill markers" d=" M 0.6 -0.659 L 0.462 -0.108 Q 0.456 -0.08700000000000001 0.456 -0.065 Q 0.456 -0.028 0.47900000000000004 -0.028 Q 0.522 -0.028 0.547 -0.128 Q 0.554 -0.156 0.555 -0.157 Q 0.56 -0.162 0.5750000000000001 -0.162 Q 0.599 -0.162 0.599 -0.148 Q 0.599 -0.14 0.588 -0.1075 Q 0.577 -0.075 0.561 -0.049 Q 0.528 0.008 0.47400000000000003 0.008 Q 0.397 0.008 0.359 -0.046 Q 0.301 0.008 0.22 0.008 Q 0.148 0.008 0.0965 -0.032 Q 0.045 -0.07200000000000001 0.045 -0.157 Q 0.045 -0.268 0.1245 -0.36 Q 0.20400000000000001 -0.452 0.327 -0.452 Q 0.389 -0.452 0.428 -0.41600000000000004 L 0.482 -0.637 Q 0.46900000000000003 -0.639 0.44 -0.639 Q 0.41400000000000003 -0.639 0.41400000000000003 -0.657 Q 0.41400000000000003 -0.67 0.42 -0.677 Q 0.426 -0.684 0.431 -0.685 Q 0.436 -0.686 0.446 -0.687 L 0.5750000000000001 -0.6930000000000001 Q 0.577 -0.6940000000000001 0.582 -0.6940000000000001 Q 0.604 -0.6940000000000001 0.604 -0.676 Q 0.604 -0.673 0.6 -0.659 M 0.34900000000000003 -0.093 L 0.41000000000000003 -0.34400000000000003 L 0.41200000000000003 -0.358 Q 0.41200000000000003 -0.372 0.3895 -0.394 Q 0.367 -0.41600000000000004 0.329 -0.41600000000000004 Q 0.25 -0.41600000000000004 0.20800000000000002 -0.318 Q 0.194 -0.28400000000000003 0.176 -0.212 Q 0.158 -0.14 0.158 -0.10400000000000001 Q 0.158 -0.028 0.225 -0.028 Q 0.259 -0.028 0.292 -0.0465 Q 0.325 -0.065 0.34900000000000003 -0.093 Z"/></g><g transform="translate(7.174000000000001,10.351142857142857)"><path fill="rgb(0,0,0)" stroke="none" paint-order="stroke fill markers" d=" M 0.222 -0.218 L 0.178 -0.218 Q 0.163 -0.162 0.163 -0.125 Q 0.163 -0.028 0.261 -0.028 Q 0.396 -0.028 0.47100000000000003 -0.107 Q 0.481 -0.11800000000000001 0.486 -0.11800000000000001 Q 0.493 -0.11800000000000001 0.502 -0.108 Q 0.511 -0.098 0.511 -0.092 Q 0.511 -0.081 0.482 -0.0565 Q 0.453 -0.032 0.41300000000000003 -0.016 Q 0.35000000000000003 0.008 0.258 0.008 Q 0.159 0.008 0.10400000000000001 -0.039 Q 0.049 -0.08600000000000001 0.049 -0.17200000000000001 Q 0.049 -0.29 0.1365 -0.371 Q 0.224 -0.452 0.358 -0.452 Q 0.42 -0.452 0.4575 -0.4255 Q 0.495 -0.399 0.495 -0.356 Q 0.495 -0.272 0.396 -0.23800000000000002 Q 0.336 -0.218 0.222 -0.218 M 0.187 -0.254 Q 0.216 -0.254 0.232 -0.254 Q 0.248 -0.254 0.278 -0.256 Q 0.308 -0.258 0.326 -0.2615 Q 0.34400000000000003 -0.265 0.367 -0.2725 Q 0.39 -0.28 0.403 -0.2905 Q 0.41600000000000004 -0.301 0.4255 -0.3175 Q 0.435 -0.334 0.435 -0.355 Q 0.435 -0.386 0.41200000000000003 -0.401 Q 0.389 -0.41600000000000004 0.358 -0.41600000000000004 Q 0.292 -0.41600000000000004 0.246 -0.37 Q 0.20600000000000002 -0.333 0.187 -0.254 Z"/></g><g transform="translate(7.7280000000000015,10.351142857142857)"><path fill="rgb(0,0,0)" stroke="none" paint-order="stroke fill markers" d=" M 0.052000000000000005 0.129 L 0.169 -0.336 Q 0.17500000000000002 -0.357 0.17500000000000002 -0.379 Q 0.17500000000000002 -0.41600000000000004 0.152 -0.41600000000000004 Q 0.109 -0.41600000000000004 0.084 -0.316 Q 0.077 -0.28800000000000003 0.076 -0.28700000000000003 Q 0.07100000000000001 -0.28200000000000003 0.056 -0.28200000000000003 Q 0.032 -0.28200000000000003 0.032 -0.296 Q 0.032 -0.304 0.043000000000000003 -0.3365 Q 0.054 -0.369 0.07 -0.395 Q 0.10300000000000001 -0.452 0.157 -0.452 Q 0.234 -0.452 0.272 -0.398 Q 0.33 -0.452 0.41100000000000003 -0.452 Q 0.483 -0.452 0.5345 -0.41200000000000003 Q 0.586 -0.372 0.586 -0.28700000000000003 Q 0.586 -0.176 0.5065000000000001 -0.084 Q 0.427 0.008 0.304 0.008 Q 0.242 0.008 0.203 -0.028 L 0.16 0.146 Q 0.17300000000000001 0.147 0.203 0.147 Q 0.229 0.147 0.229 0.165 Q 0.229 0.194 0.203 0.194 Q 0.186 0.194 0.15 0.1925 Q 0.114 0.191 0.096 0.191 Q 0.081 0.191 0.0495 0.1925 Q 0.018000000000000002 0.194 0.004 0.194 Q -0.015 0.194 -0.015 0.17500000000000002 Q -0.015 0.162 -0.009000000000000001 0.1555 Q -0.003 0.149 0.003 0.148 Q 0.009000000000000001 0.147 0.02 0.147 Q 0.04 0.147 0.046 0.145 Q 0.048 0.14300000000000002 0.052000000000000005 0.129 M 0.28200000000000003 -0.35100000000000003 L 0.221 -0.1 L 0.219 -0.08600000000000001 Q 0.219 -0.07200000000000001 0.2415 -0.05 Q 0.264 -0.028 0.302 -0.028 Q 0.381 -0.028 0.423 -0.126 Q 0.437 -0.16 0.455 -0.232 Q 0.47300000000000003 -0.304 0.47300000000000003 -0.34 Q 0.47300000000000003 -0.41600000000000004 0.406 -0.41600000000000004 Q 0.372 -0.41600000000000004 0.339 -0.3975 Q 0.306 -0.379 0.28200000000000003 -0.35100000000000003 Z"/></g><g transform="translate(8.329,10.351142857142857)"><path fill="rgb(0,0,0)" stroke="none" paint-order="stroke fill markers" d=" M 0.5630000000000001 -0.317 L 0.54 -0.228 Q 0.535 -0.20600000000000002 0.518 -0.138 Q 0.504 -0.082 0.504 -0.065 Q 0.504 -0.028 0.527 -0.028 Q 0.5690000000000001 -0.028 0.595 -0.128 Q 0.602 -0.156 0.603 -0.157 Q 0.608 -0.162 0.623 -0.162 Q 0.647 -0.162 0.647 -0.148 Q 0.647 -0.14 0.636 -0.1075 Q 0.625 -0.075 0.609 -0.049 Q 0.5760000000000001 0.008 0.522 0.008 Q 0.444 0.008 0.40800000000000003 -0.047 Q 0.35000000000000003 0.008 0.281 0.008 Q 0.254 0.008 0.2305 0.0035 Q 0.20700000000000002 -0.001 0.1805 -0.0135 Q 0.154 -0.026000000000000002 0.138 -0.054 Q 0.122 -0.082 0.122 -0.122 Q 0.122 -0.18 0.183 -0.332 Q 0.199 -0.38 0.199 -0.395 Q 0.199 -0.405 0.196 -0.41000000000000003 Q 0.193 -0.41500000000000004 0.19 -0.41550000000000004 Q 0.187 -0.41600000000000004 0.182 -0.41600000000000004 Q 0.17300000000000001 -0.41600000000000004 0.163 -0.41200000000000003 Q 0.153 -0.40800000000000003 0.1375 -0.3975 Q 0.122 -0.387 0.1065 -0.3605 Q 0.091 -0.334 0.079 -0.295 Q 0.075 -0.28200000000000003 0.056 -0.28200000000000003 Q 0.032 -0.28200000000000003 0.032 -0.296 Q 0.032 -0.306 0.042 -0.3295 Q 0.052000000000000005 -0.353 0.07 -0.3815 Q 0.088 -0.41000000000000003 0.11950000000000001 -0.431 Q 0.151 -0.452 0.188 -0.452 Q 0.233 -0.452 0.267 -0.4275 Q 0.301 -0.403 0.301 -0.362 Q 0.301 -0.34600000000000003 0.28800000000000003 -0.312 Q 0.229 -0.16 0.229 -0.101 Q 0.229 -0.028 0.289 -0.028 Q 0.34800000000000003 -0.028 0.397 -0.093 Q 0.399 -0.115 0.41200000000000003 -0.163 Q 0.458 -0.35100000000000003 0.46900000000000003 -0.391 Q 0.47800000000000004 -0.42 0.4975 -0.432 Q 0.517 -0.444 0.535 -0.444 Q 0.557 -0.444 0.5695 -0.4305 Q 0.582 -0.417 0.582 -0.4 Q 0.582 -0.393 0.5630000000000001 -0.317 Z"/></g><g transform="translate(9.010000000000002,10.351142857142857)"><path fill="rgb(0,0,0)" stroke="none" paint-order="stroke fill markers" d=" M 0.334 -0.646 Q 0.334 -0.62 0.312 -0.5985 Q 0.29 -0.577 0.263 -0.577 Q 0.242 -0.577 0.228 -0.5905 Q 0.214 -0.604 0.214 -0.625 Q 0.214 -0.651 0.23550000000000001 -0.6725 Q 0.257 -0.6940000000000001 0.28500000000000003 -0.6940000000000001 Q 0.306 -0.6940000000000001 0.32 -0.68 Q 0.334 -0.666 0.334 -0.646 M 0.359 -0.148 Q 0.359 -0.132 0.343 -0.0975 Q 0.327 -0.063 0.289 -0.0275 Q 0.251 0.008 0.20400000000000001 0.008 Q 0.157 0.008 0.1235 -0.0175 Q 0.09 -0.043000000000000003 0.09 -0.082 Q 0.09 -0.095 0.098 -0.116 L 0.165 -0.289 Q 0.198 -0.372 0.198 -0.394 Q 0.198 -0.41600000000000004 0.182 -0.41600000000000004 Q 0.168 -0.41600000000000004 0.1525 -0.40850000000000003 Q 0.137 -0.401 0.115 -0.372 Q 0.093 -0.343 0.079 -0.295 Q 0.075 -0.28200000000000003 0.056 -0.28200000000000003 Q 0.032 -0.28200000000000003 0.032 -0.296 Q 0.032 -0.312 0.048 -0.34650000000000003 Q 0.064 -0.381 0.10200000000000001 -0.4165 Q 0.14 -0.452 0.187 -0.452 Q 0.234 -0.452 0.2675 -0.4265 Q 0.301 -0.401 0.301 -0.362 Q 0.301 -0.34900000000000003 0.293 -0.328 L 0.226 -0.155 Q 0.193 -0.07200000000000001 0.193 -0.05 Q 0.193 -0.028 0.209 -0.028 Q 0.223 -0.028 0.23850000000000002 -0.035500000000000004 Q 0.254 -0.043000000000000003 0.276 -0.07200000000000001 Q 0.298 -0.101 0.312 -0.149 Q 0.316 -0.162 0.335 -0.162 Q 0.359 -0.162 0.359 -0.148 Z"/></g><g transform="translate(9.415000000000001,10.351142857142857)"><path fill="rgb(0,0,0)" stroke="none" paint-order="stroke fill markers" d=" M 0.41400000000000003 -0.394 Q 0.384 -0.41600000000000004 0.331 -0.41600000000000004 Q 0.292 -0.41600000000000004 0.2665 -0.405 Q 0.241 -0.394 0.2325 -0.3775 Q 0.224 -0.361 0.2215 -0.353 Q 0.219 -0.34500000000000003 0.219 -0.339 Q 0.219 -0.321 0.233 -0.3105 Q 0.247 -0.3 0.2625 -0.2955 Q 0.278 -0.291 0.313 -0.28500000000000003 Q 0.385 -0.273 0.417 -0.245 Q 0.457 -0.21 0.457 -0.164 Q 0.457 -0.159 0.4555 -0.1505 Q 0.454 -0.14200000000000002 0.4485 -0.11950000000000001 Q 0.443 -0.097 0.428 -0.077 Q 0.41300000000000003 -0.057 0.39 -0.0365 Q 0.367 -0.016 0.325 -0.004 Q 0.28300000000000003 0.008 0.229 0.008 Q 0.15 0.008 0.10350000000000001 -0.0175 Q 0.057 -0.043000000000000003 0.057 -0.091 Q 0.057 -0.126 0.079 -0.1475 Q 0.101 -0.169 0.129 -0.169 Q 0.148 -0.169 0.163 -0.158 Q 0.178 -0.147 0.178 -0.123 Q 0.178 -0.1 0.163 -0.0805 Q 0.148 -0.061 0.123 -0.054 Q 0.159 -0.028 0.231 -0.028 Q 0.28200000000000003 -0.028 0.316 -0.0415 Q 0.35000000000000003 -0.055 0.362 -0.075 Q 0.374 -0.095 0.377 -0.1055 Q 0.38 -0.116 0.38 -0.123 Q 0.38 -0.169 0.29 -0.184 Q 0.234 -0.195 0.2155 -0.2005 Q 0.197 -0.20600000000000002 0.177 -0.222 Q 0.14100000000000001 -0.251 0.14100000000000001 -0.298 Q 0.14100000000000001 -0.322 0.1565 -0.357 Q 0.17200000000000001 -0.392 0.202 -0.41500000000000004 Q 0.251 -0.452 0.333 -0.452 Q 0.4 -0.452 0.438 -0.428 Q 0.47600000000000003 -0.404 0.47600000000000003 -0.364 Q 0.47600000000000003 -0.331 0.4565 -0.3135 Q 0.437 -0.296 0.41500000000000004 -0.296 Q 0.398 -0.296 0.385 -0.307 Q 0.372 -0.318 0.372 -0.337 Q 0.372 -0.35100000000000003 0.382 -0.368 Q 0.392 -0.385 0.41400000000000003 -0.394 Z"/></g><g transform="translate(10.279000000000002,10.351142857142857)"><path fill="rgb(0,0,0)" stroke="none" paint-order="stroke fill markers" d=" M 0.28400000000000003 -0.659 L 0.146 -0.108 Q 0.14 -0.08 0.14 -0.064 Q 0.14 -0.028 0.163 -0.028 Q 0.20600000000000002 -0.028 0.231 -0.128 Q 0.23800000000000002 -0.156 0.23900000000000002 -0.157 Q 0.244 -0.162 0.259 -0.162 Q 0.28300000000000003 -0.162 0.28300000000000003 -0.148 Q 0.28300000000000003 -0.14 0.272 -0.107 Q 0.261 -0.074 0.245 -0.049 Q 0.21 0.008 0.158 0.008 Q 0.109 0.008 0.07100000000000001 -0.018000000000000002 Q 0.033 -0.044 0.033 -0.09 Q 0.033 -0.106 0.038 -0.124 L 0.166 -0.637 Q 0.153 -0.639 0.124 -0.639 Q 0.098 -0.639 0.098 -0.657 Q 0.098 -0.67 0.10400000000000001 -0.677 Q 0.11 -0.684 0.115 -0.685 Q 0.12 -0.686 0.13 -0.687 L 0.259 -0.6930000000000001 Q 0.261 -0.6940000000000001 0.266 -0.6940000000000001 Q 0.28800000000000003 -0.6940000000000001 0.28800000000000003 -0.676 Q 0.28800000000000003 -0.673 0.28400000000000003 -0.659 Z"/></g><g transform="translate(10.636000000000001,10.351142857142857)"><path fill="rgb(0,0,0)" stroke="none" paint-order="stroke fill markers" d=" M 0.222 -0.218 L 0.178 -0.218 Q 0.163 -0.162 0.163 -0.125 Q 0.163 -0.028 0.261 -0.028 Q 0.396 -0.028 0.47100000000000003 -0.107 Q 0.481 -0.11800000000000001 0.486 -0.11800000000000001 Q 0.493 -0.11800000000000001 0.502 -0.108 Q 0.511 -0.098 0.511 -0.092 Q 0.511 -0.081 0.482 -0.0565 Q 0.453 -0.032 0.41300000000000003 -0.016 Q 0.35000000000000003 0.008 0.258 0.008 Q 0.159 0.008 0.10400000000000001 -0.039 Q 0.049 -0.08600000000000001 0.049 -0.17200000000000001 Q 0.049 -0.29 0.1365 -0.371 Q 0.224 -0.452 0.358 -0.452 Q 0.42 -0.452 0.4575 -0.4255 Q 0.495 -0.399 0.495 -0.356 Q 0.495 -0.272 0.396 -0.23800000000000002 Q 0.336 -0.218 0.222 -0.218 M 0.187 -0.254 Q 0.216 -0.254 0.232 -0.254 Q 0.248 -0.254 0.278 -0.256 Q 0.308 -0.258 0.326 -0.2615 Q 0.34400000000000003 -0.265 0.367 -0.2725 Q 0.39 -0.28 0.403 -0.2905 Q 0.41600000000000004 -0.301 0.4255 -0.3175 Q 0.435 -0.334 0.435 -0.355 Q 0.435 -0.386 0.41200000000000003 -0.401 Q 0.389 -0.41600000000000004 0.358 -0.41600000000000004 Q 0.292 -0.41600000000000004 0.246 -0.37 Q 0.20600000000000002 -0.333 0.187 -0.254 Z"/></g><g transform="translate(11.523000000000001,10.351142857142857)"><path fill="rgb(0,0,0)" stroke="none" paint-order="stroke fill markers" d=" M 0.052000000000000005 0.129 L 0.169 -0.336 Q 0.17500000000000002 -0.357 0.17500000000000002 -0.379 Q 0.17500000000000002 -0.41600000000000004 0.152 -0.41600000000000004 Q 0.109 -0.41600000000000004 0.084 -0.316 Q 0.077 -0.28800000000000003 0.076 -0.28700000000000003 Q 0.07100000000000001 -0.28200000000000003 0.056 -0.28200000000000003 Q 0.032 -0.28200000000000003 0.032 -0.296 Q 0.032 -0.304 0.043000000000000003 -0.3365 Q 0.054 -0.369 0.07 -0.395 Q 0.10300000000000001 -0.452 0.157 -0.452 Q 0.234 -0.452 0.272 -0.398 Q 0.33 -0.452 0.41100000000000003 -0.452 Q 0.483 -0.452 0.5345 -0.41200000000000003 Q 0.586 -0.372 0.586 -0.28700000000000003 Q 0.586 -0.176 0.5065000000000001 -0.084 Q 0.427 0.008 0.304 0.008 Q 0.242 0.008 0.203 -0.028 L 0.16 0.146 Q 0.17300000000000001 0.147 0.203 0.147 Q 0.229 0.147 0.229 0.165 Q 0.229 0.194 0.203 0.194 Q 0.186 0.194 0.15 0.1925 Q 0.114 0.191 0.096 0.191 Q 0.081 0.191 0.0495 0.1925 Q 0.018000000000000002 0.194 0.004 0.194 Q -0.015 0.194 -0.015 0.17500000000000002 Q -0.015 0.162 -0.009000000000000001 0.1555 Q -0.003 0.149 0.003 0.148 Q 0.009000000000000001 0.147 0.02 0.147 Q 0.04 0.147 0.046 0.145 Q 0.048 0.14300000000000002 0.052000000000000005 0.129 M 0.28200000000000003 -0.35100000000000003 L 0.221 -0.1 L 0.219 -0.08600000000000001 Q 0.219 -0.07200000000000001 0.2415 -0.05 Q 0.264 -0.028 0.302 -0.028 Q 0.381 -0.028 0.423 -0.126 Q 0.437 -0.16 0.455 -0.232 Q 0.47300000000000003 -0.304 0.47300000000000003 -0.34 Q 0.47300000000000003 -0.41600000000000004 0.406 -0.41600000000000004 Q 0.372 -0.41600000000000004 0.339 -0.3975 Q 0.306 -0.379 0.28200000000000003 -0.35100000000000003 Z"/></g><g transform="translate(12.124000000000002,10.351142857142857)"><path fill="rgb(0,0,0)" stroke="none" paint-order="stroke fill markers" d=" M 0.5690000000000001 -0.279 Q 0.5690000000000001 -0.23 0.5485 -0.1805 Q 0.528 -0.131 0.49 -0.0885 Q 0.452 -0.046 0.3905 -0.019 Q 0.329 0.008 0.254 0.008 Q 0.156 0.008 0.101 -0.038 Q 0.046 -0.084 0.046 -0.165 Q 0.046 -0.214 0.0665 -0.2635 Q 0.08700000000000001 -0.313 0.125 -0.3555 Q 0.163 -0.398 0.2245 -0.425 Q 0.28600000000000003 -0.452 0.361 -0.452 Q 0.459 -0.452 0.514 -0.406 Q 0.5690000000000001 -0.36 0.5690000000000001 -0.279 M 0.189 -0.049 Q 0.189 -0.049 0.203 -0.0385 Q 0.217 -0.028 0.256 -0.028 Q 0.295 -0.028 0.3335 -0.049 Q 0.372 -0.07 0.398 -0.115 Q 0.419 -0.152 0.4365 -0.2225 Q 0.454 -0.293 0.454 -0.323 Q 0.454 -0.374 0.426 -0.395 Q 0.398 -0.41600000000000004 0.359 -0.41600000000000004 Q 0.32 -0.41600000000000004 0.28150000000000003 -0.395 Q 0.243 -0.374 0.217 -0.329 Q 0.196 -0.292 0.1785 -0.2215 Q 0.161 -0.151 0.161 -0.121 Q 0.161 -0.07 0.189 -0.049 Z"/></g><g transform="translate(12.709000000000003,10.351142857142857)"><path fill="rgb(0,0,0)" stroke="none" paint-order="stroke fill markers" d=" M 0.334 -0.646 Q 0.334 -0.62 0.312 -0.5985 Q 0.29 -0.577 0.263 -0.577 Q 0.242 -0.577 0.228 -0.5905 Q 0.214 -0.604 0.214 -0.625 Q 0.214 -0.651 0.23550000000000001 -0.6725 Q 0.257 -0.6940000000000001 0.28500000000000003 -0.6940000000000001 Q 0.306 -0.6940000000000001 0.32 -0.68 Q 0.334 -0.666 0.334 -0.646 M 0.359 -0.148 Q 0.359 -0.132 0.343 -0.0975 Q 0.327 -0.063 0.289 -0.0275 Q 0.251 0.008 0.20400000000000001 0.008 Q 0.157 0.008 0.1235 -0.0175 Q 0.09 -0.043000000000000003 0.09 -0.082 Q 0.09 -0.095 0.098 -0.116 L 0.165 -0.289 Q 0.198 -0.372 0.198 -0.394 Q 0.198 -0.41600000000000004 0.182 -0.41600000000000004 Q 0.168 -0.41600000000000004 0.1525 -0.40850000000000003 Q 0.137 -0.401 0.115 -0.372 Q 0.093 -0.343 0.079 -0.295 Q 0.075 -0.28200000000000003 0.056 -0.28200000000000003 Q 0.032 -0.28200000000000003 0.032 -0.296 Q 0.032 -0.312 0.048 -0.34650000000000003 Q 0.064 -0.381 0.10200000000000001 -0.4165 Q 0.14 -0.452 0.187 -0.452 Q 0.234 -0.452 0.2675 -0.4265 Q 0.301 -0.401 0.301 -0.362 Q 0.301 -0.34900000000000003 0.293 -0.328 L 0.226 -0.155 Q 0.193 -0.07200000000000001 0.193 -0.05 Q 0.193 -0.028 0.209 -0.028 Q 0.223 -0.028 0.23850000000000002 -0.035500000000000004 Q 0.254 -0.043000000000000003 0.276 -0.07200000000000001 Q 0.298 -0.101 0.312 -0.149 Q 0.316 -0.162 0.335 -0.162 Q 0.359 -0.162 0.359 -0.148 Z"/></g><g transform="translate(13.114000000000003,10.351142857142857)"><path fill="rgb(0,0,0)" stroke="none" paint-order="stroke fill markers" d=" M 0.28 -0.376 Q 0.35100000000000003 -0.452 0.445 -0.452 Q 0.509 -0.452 0.5515 -0.4255 Q 0.594 -0.399 0.594 -0.336 Q 0.594 -0.281 0.532 -0.122 Q 0.512 -0.07200000000000001 0.512 -0.049 Q 0.512 -0.039 0.515 -0.034 Q 0.518 -0.029 0.521 -0.0285 Q 0.524 -0.028 0.529 -0.028 Q 0.538 -0.028 0.548 -0.032 Q 0.558 -0.036000000000000004 0.5735 -0.0465 Q 0.589 -0.057 0.6045 -0.0835 Q 0.62 -0.11 0.632 -0.149 Q 0.636 -0.162 0.655 -0.162 Q 0.679 -0.162 0.679 -0.148 Q 0.679 -0.138 0.669 -0.1145 Q 0.659 -0.091 0.641 -0.0625 Q 0.623 -0.034 0.5915 -0.013000000000000001 Q 0.56 0.008 0.523 0.008 Q 0.47800000000000004 0.008 0.444 -0.0165 Q 0.41000000000000003 -0.041 0.41000000000000003 -0.082 Q 0.41000000000000003 -0.099 0.424 -0.133 Q 0.487 -0.299 0.487 -0.357 Q 0.487 -0.41600000000000004 0.437 -0.41600000000000004 Q 0.384 -0.41600000000000004 0.334 -0.377 Q 0.312 -0.359 0.2925 -0.3325 Q 0.273 -0.306 0.272 -0.299 Q 0.271 -0.297 0.257 -0.241 Q 0.243 -0.185 0.241 -0.18 Q 0.227 -0.12 0.213 -0.068 Q 0.209 -0.053 0.20550000000000002 -0.043000000000000003 Q 0.202 -0.033 0.1945 -0.0195 Q 0.187 -0.006 0.17350000000000002 0.001 Q 0.16 0.008 0.14200000000000002 0.008 Q 0.12 0.008 0.1075 -0.0055 Q 0.095 -0.019 0.095 -0.036000000000000004 Q 0.095 -0.039 0.10300000000000001 -0.076 L 0.139 -0.216 Q 0.14400000000000002 -0.23800000000000002 0.161 -0.306 Q 0.17500000000000002 -0.362 0.17500000000000002 -0.379 Q 0.17500000000000002 -0.41600000000000004 0.152 -0.41600000000000004 Q 0.11 -0.41600000000000004 0.084 -0.316 Q 0.077 -0.28800000000000003 0.076 -0.28700000000000003 Q 0.07100000000000001 -0.28200000000000003 0.056 -0.28200000000000003 Q 0.032 -0.28200000000000003 0.032 -0.296 Q 0.032 -0.304 0.043000000000000003 -0.3365 Q 0.054 -0.369 0.07 -0.395 Q 0.105 -0.452 0.157 -0.452 Q 0.2 -0.452 0.23500000000000001 -0.432 Q 0.27 -0.41200000000000003 0.28 -0.376 Z"/></g><g transform="translate(13.827000000000002,10.351142857142857)"><path fill="rgb(0,0,0)" stroke="none" paint-order="stroke fill markers" d=" M 0.252 -0.397 L 0.179 -0.108 Q 0.17300000000000001 -0.082 0.17300000000000001 -0.065 Q 0.17300000000000001 -0.052000000000000005 0.17500000000000002 -0.044 Q 0.177 -0.036000000000000004 0.1815 -0.0325 Q 0.186 -0.029 0.189 -0.0285 Q 0.192 -0.028 0.197 -0.028 Q 0.23 -0.028 0.267 -0.057 Q 0.304 -0.08600000000000001 0.33 -0.146 Q 0.335 -0.157 0.3385 -0.1595 Q 0.342 -0.162 0.355 -0.162 Q 0.379 -0.162 0.379 -0.148 Q 0.379 -0.14 0.366 -0.116 Q 0.353 -0.092 0.3305 -0.0635 Q 0.308 -0.035 0.2705 -0.0135 Q 0.233 0.008 0.192 0.008 Q 0.14100000000000001 0.008 0.10350000000000001 -0.018000000000000002 Q 0.066 -0.044 0.066 -0.09 Q 0.066 -0.106 0.083 -0.169 L 0.14 -0.397 L 0.059000000000000004 -0.397 Q 0.047 -0.397 0.0415 -0.3975 Q 0.036000000000000004 -0.398 0.0305 -0.4025 Q 0.025 -0.40700000000000003 0.025 -0.41500000000000004 Q 0.025 -0.429 0.031 -0.4355 Q 0.037 -0.442 0.043000000000000003 -0.443 Q 0.049 -0.444 0.062 -0.444 L 0.152 -0.444 L 0.17200000000000001 -0.526 Q 0.19 -0.598 0.195 -0.608 Q 0.215 -0.643 0.253 -0.643 Q 0.271 -0.643 0.28550000000000003 -0.632 Q 0.3 -0.621 0.3 -0.599 Q 0.3 -0.589 0.296 -0.5730000000000001 L 0.264 -0.444 L 0.34400000000000003 -0.444 Q 0.377 -0.444 0.377 -0.426 Q 0.377 -0.40800000000000003 0.368 -0.402 Q 0.363 -0.397 0.341 -0.397 L 0.252 -0.397 Z"/></g><g transform="translate(14.575000000000001,10.351142857142857)"><path fill="rgb(0,0,0)" stroke="none" paint-order="stroke fill markers" d=" M 1.1 -0.635 L 0.9540000000000001 -0.049 Q 0.996 -0.047 1.0150000000000001 -0.047 Q 1.032 -0.047 1.039 -0.0465 Q 1.046 -0.046 1.051 -0.042 Q 1.056 -0.038 1.056 -0.029 Q 1.056 -0.014 1.049 -0.007 Q 1.044 0 1.028 0 Q 1.0170000000000001 0 0.993 -0.001 Q 0.969 -0.002 0.9570000000000001 -0.002 Q 0.9440000000000001 -0.002 0.9185 -0.0025 Q 0.893 -0.003 0.88 -0.003 Q 0.869 -0.003 0.8455 -0.0025 Q 0.8220000000000001 -0.002 0.81 -0.002 Q 0.798 -0.002 0.7735 -0.001 Q 0.749 0 0.737 0 Q 0.715 0 0.715 -0.018000000000000002 Q 0.715 -0.038 0.727 -0.045 Q 0.731 -0.047 0.759 -0.047 Q 0.795 -0.047 0.812 -0.048 Q 0.8250000000000001 -0.049 0.8285 -0.052000000000000005 Q 0.8320000000000001 -0.055 0.835 -0.067 L 0.977 -0.637 L 0.976 -0.638 L 0.544 -0.023 Q 0.527 0 0.508 0 Q 0.498 0 0.492 -0.005 Q 0.486 -0.01 0.4845 -0.015 Q 0.483 -0.02 0.481 -0.03 L 0.36 -0.624 L 0.359 -0.624 L 0.218 -0.057 Q 0.242 -0.047 0.28800000000000003 -0.047 Q 0.318 -0.047 0.318 -0.029 Q 0.318 0 0.291 0 Q 0.278 0 0.234 -0.0015 Q 0.19 -0.003 0.177 -0.003 Q 0.158 -0.003 0.121 -0.0015 Q 0.084 0 0.066 0 Q 0.056 0 0.051000000000000004 -0.006 Q 0.046 -0.012 0.046 -0.018000000000000002 Q 0.046 -0.032 0.052000000000000005 -0.0385 Q 0.058 -0.045 0.064 -0.046 Q 0.07 -0.047 0.082 -0.047 Q 0.115 -0.047 0.139 -0.053 Q 0.157 -0.057 0.161 -0.0605 Q 0.165 -0.064 0.169 -0.079 L 0.309 -0.637 Q 0.267 -0.639 0.248 -0.639 Q 0.23 -0.639 0.223 -0.6395000000000001 Q 0.216 -0.64 0.211 -0.644 Q 0.20600000000000002 -0.648 0.20600000000000002 -0.657 Q 0.20600000000000002 -0.671 0.212 -0.6775 Q 0.218 -0.684 0.224 -0.685 Q 0.23 -0.686 0.243 -0.686 L 0.431 -0.686 Q 0.452 -0.686 0.4595 -0.682 Q 0.467 -0.678 0.47100000000000003 -0.658 L 0.578 -0.129 L 0.9530000000000001 -0.661 Q 0.964 -0.678 0.9725 -0.682 Q 0.981 -0.686 1.004 -0.686 L 1.182 -0.686 Q 1.194 -0.686 1.1995 -0.6855 Q 1.205 -0.685 1.2105000000000001 -0.6805 Q 1.216 -0.676 1.216 -0.668 Q 1.216 -0.648 1.207 -0.6435 Q 1.198 -0.639 1.168 -0.639 Q 1.122 -0.639 1.1 -0.635 Z"/></g><g transform="translate(15.831000000000001,10.351142857142857)"><path fill="rgb(0,0,0)" stroke="none" paint-order="stroke fill markers" d=" M 0.09716796875 0 Q 0.091796875 0 0.08837890625 -0.00341796875 Q 0.0849609375 -0.0068359375 0.0849609375 -0.01220703125 L 0.0849609375 -0.1240234375 Q 0.0849609375 -0.12841796875 0.088623046875 -0.131591796875 Q 0.09228515625 -0.134765625 0.09716796875 -0.134765625 L 0.208984375 -0.134765625 Q 0.212890625 -0.134765625 0.216552734375 -0.131591796875 Q 0.22021484375 -0.12841796875 0.22021484375 -0.1240234375 L 0.22021484375 -0.01220703125 Q 0.22021484375 -0.0068359375 0.216796875 -0.00341796875 Q 0.21337890625 0 0.208984375 0 L 0.09716796875 0 Z"/></g></g></g></g></svg>