<svg version="1.1" xmlns="http://www.w3.org/2000/svg" xmlns:xlink="http://www.w3.org/1999/xlink" width="1358" height="662"><defs><clipPath id="eSaTVLtLAtaR"><path fill="none" stroke="none" d=" M 0 0 L 1358 0 L 1358 662 L 0 662 L 0 0 Z"/></clipPath></defs><g transform="scale(1,1)" clip-path="url(#eSaTVLtLAtaR)"><g><rect fill="rgb(255,255,255)" stroke="none" x="0" y="0" width="1358" height="662" fill-opacity="0"/><path fill="rgb(0,0,255)" stroke="none" paint-order="stroke fill markers" fill-rule="evenodd" d=" M 574.2719469878562 363.3224887408986 L 722.027184791 276.2524378926173 L 1013.1401830817176 417.8512074539637 L 848.6745314794089 520.7521766382962 Z" fill-opacity="0.09803921568627451"/><path fill="rgb(153,51,0)" stroke="none" paint-order="stroke fill markers" fill-rule="evenodd" d=" M 776.8474435910441 361.8803393540303 L 792.733105702225 365.34982927553835 L 793.1517372934484 381.6764613332491 L 777.0747574469094 377.25629043644216 Z" fill-opacity="0.09803921568627451"/><path fill="none" stroke="rgb(0,0,0)" paint-order="fill stroke markers" d=" M 760.2679183295085 302.9576055427194 C 768.3651666528893 188.35039850409524 682.0217852245287 88.87878364218273 567.4145781859047 80.78153531880176 C 452.80737114728066 72.68428699542079 353.33575628536835 159.0276684237814 345.2385079619873 273.63487546240555" stroke-opacity="0.6980392156862745" stroke-linejoin="round" stroke-miterlimit="10" stroke-width="2.5" stroke-dasharray="6.5,4"/><path fill="none" stroke="rgb(0,0,0)" paint-order="fill stroke markers" d=" M 728.6895936276318 348.0694979739721 C 749.2441470639068 242.18240451437367 680.0684555101911 139.68119732164135 574.1813620505927 119.12664388536629 C 468.2942685909945 98.5720904490912 365.79306139826224 167.74778200280704 345.23850796198724 273.63487546240543" stroke-opacity="0.6980392156862745" stroke-linejoin="round" stroke-miterlimit="10" stroke-width="2.5" stroke-dasharray="6.5,4"/><path fill="none" stroke="rgb(0,0,0)" paint-order="fill stroke markers" d=" M 697.1112689257552 372.8810388111611 C 714.8398884732127 310.0250240519936 697.6885238172542 242.48556530848725 652.1179280288944 195.70412302677585 C 606.5473322405346 148.92268074506447 539.4807628828277 130.00646887494187 476.1815475470103 146.081041352398 C 412.882332211193 162.1556138298541 362.9671275094447 210.77886070323808 345.2385079619872 273.63487546240555" stroke-opacity="0.6980392156862745" stroke-linejoin="round" stroke-miterlimit="10" stroke-width="2.5" stroke-dasharray="6.5,4"/><path fill="none" stroke="rgb(0,0,0)" paint-order="fill stroke markers" d=" M 816.9886044130695 413.1659587522695 C 841.9134318041087 328.89592050335494 819.9873918795179 237.72995687764438 759.4698116735912 174.00940404760496 C 698.9522314676644 110.28885121756554 609.0371710450157 83.69437698379784 523.5947634480499 104.24386240267307 C 438.1523558510844 124.79334782154802 370.16333535302647 189.36483721349074 345.23850796198724 273.6348754624054" stroke-opacity="0.6980392156862745" stroke-linejoin="round" stroke-miterlimit="10" stroke-width="2.5" stroke-dasharray="6.5,4"/><path fill="none" stroke="rgb(0,0,0)" paint-order="fill stroke markers" d=" M 864.7771357952429 396.18884990064146 C 898.619481351938 252.7222193504797 809.7514396478946 108.98489432159067 666.2848090977329 75.14254876489537 C 522.8181785475714 41.3002032082 379.0808535186823 130.16824491224378 345.2385079619872 273.6348754624056" stroke-opacity="0.6980392156862745" stroke-linejoin="round" stroke-miterlimit="10" stroke-width="2.5" stroke-dasharray="6.5,4"/><path fill="none" stroke="rgb(0,0,255)" paint-order="fill stroke markers" d=" M 777.0747574469094 377.25629043644216 L 773.5567755944536 118.68462428094006" stroke-opacity="0.6980392156862745" stroke-linecap="round" stroke-linejoin="round" stroke-miterlimit="10" stroke-width="2.5"/><path fill="none" stroke="rgb(0,0,255)" paint-order="fill stroke markers" d=" M 777.4689271676197 476.3451376162951 L 780.1074135569614 603.8719797678183" stroke-opacity="0.6980392156862745" stroke-linejoin="round" stroke-miterlimit="10" stroke-width="2.5" stroke-dasharray="10.5,8"/><path fill="none" stroke="rgb(153,51,0)" paint-order="fill stroke markers" d=" M 776.8474435910441 361.8803393540303 L 792.733105702225 365.34982927553835" stroke-opacity="0.6980392156862745" stroke-linecap="round" stroke-linejoin="round" stroke-miterlimit="10" stroke-width="2.5"/><path fill="none" stroke="rgb(153,51,0)" paint-order="fill stroke markers" d=" M 792.733105702225 365.34982927553835 L 793.1517372934484 381.6764613332491" stroke-opacity="0.6980392156862745" stroke-linecap="round" stroke-linejoin="round" stroke-miterlimit="10" stroke-width="2.5"/><path fill="none" stroke="rgb(153,51,0)" paint-order="fill stroke markers" d=" M 777.0747574469094 377.25629043644216 L 776.8474435910441 361.8803393540303" stroke-opacity="0.6980392156862745" stroke-linecap="round" stroke-linejoin="round" stroke-miterlimit="10" stroke-width="2.5"/><path fill="none" stroke="rgb(244,0,153)" paint-order="fill stroke markers" d=" M 777.0060133540733 377.7964937773555 L 688.5161778429166 346.39097047876623" stroke-opacity="0.6980392156862745" stroke-linecap="round" stroke-linejoin="round" stroke-miterlimit="10" stroke-width="2.5"/><path fill="none" stroke="rgb(244,0,153)" paint-order="fill stroke markers" d=" M 777.0060133540733 377.7964937773555 L 813.6870236186992 442.2576048689143" stroke-opacity="0.6980392156862745" stroke-linecap="round" stroke-linejoin="round" stroke-miterlimit="10" stroke-width="2.5"/><path fill="none" stroke="rgb(244,0,153)" paint-order="fill stroke markers" d=" M 777.0060133540733 377.7964937773555 L 751.3109165264195 308.295495677441" stroke-opacity="0.6980392156862745" stroke-linecap="round" stroke-linejoin="round" stroke-miterlimit="10" stroke-width="2.5"/><path fill="none" stroke="rgb(244,0,153)" paint-order="fill stroke markers" d=" M 777.0060133540733 377.7964937773555 L 694.3770201200435 384.48644528009146" stroke-opacity="0.6980392156862745" stroke-linecap="round" stroke-linejoin="round" stroke-miterlimit="10" stroke-width="2.5"/><path fill="none" stroke="rgb(244,0,153)" paint-order="fill stroke markers" d=" M 777.0060133540733 377.7964937773555 L 916.41033323145 418.4037581260209" stroke-opacity="0.6980392156862745" stroke-linecap="round" stroke-linejoin="round" stroke-miterlimit="10" stroke-width="2.5"/><path fill="rgb(255,85,0)" stroke="none" paint-order="stroke fill markers" d=" M 352.23850796198724 273.6348754624055 C 352.23850796198724 277.500868711221 349.10450121080277 280.6348754624055 345.23850796198724 280.6348754624055 C 341.3725147131717 280.6348754624055 338.23850796198724 277.500868711221 338.23850796198724 273.6348754624055 C 338.23850796198724 269.76888221358996 341.3725147131717 266.6348754624055 345.23850796198724 266.6348754624055 C 349.10450121080277 266.6348754624055 352.23850796198724 269.76888221358996 352.23850796198724 273.6348754624055 Z" fill-opacity="1"/><path fill="none" stroke="rgb(0,0,0)" paint-order="fill stroke markers" d=" M 760.2679183295083 309.9576055427196 L 766.3300961559994 299.4576055427196 L 754.2057405030173 299.4576055427196 L 760.2679183295083 309.9576055427196 Z" stroke-opacity="1" stroke-linecap="square" stroke-miterlimit="10" stroke-width="3.5"/><path fill="rgb(0,0,0)" stroke="none" paint-order="stroke fill markers" fill-rule="evenodd" d=" M 760.2679183295083 309.9576055427196 L 766.3300961559994 299.4576055427196 L 754.2057405030173 299.4576055427196 L 760.2679183295083 309.9576055427196 Z" fill-opacity="1"/><path fill="none" stroke="rgb(0,0,0)" paint-order="fill stroke markers" d=" M 728.6895936276318 355.0694979739721 L 734.7517714541228 344.5694979739721 L 722.6274158011407 344.5694979739721 L 728.6895936276318 355.0694979739721 Z" stroke-opacity="1" stroke-linecap="square" stroke-miterlimit="10" stroke-width="3.5"/><path fill="rgb(0,0,0)" stroke="none" paint-order="stroke fill markers" fill-rule="evenodd" d=" M 728.6895936276318 355.0694979739721 L 734.7517714541228 344.5694979739721 L 722.6274158011407 344.5694979739721 L 728.6895936276318 355.0694979739721 Z" fill-opacity="1"/><path fill="none" stroke="rgb(0,0,0)" paint-order="fill stroke markers" d=" M 697.1112689257552 379.881038811161 L 703.1734467522463 369.381038811161 L 691.0490910992642 369.381038811161 L 697.1112689257552 379.881038811161 Z" stroke-opacity="1" stroke-linecap="square" stroke-miterlimit="10" stroke-width="3.5"/><path fill="rgb(0,0,0)" stroke="none" paint-order="stroke fill markers" fill-rule="evenodd" d=" M 697.1112689257552 379.881038811161 L 703.1734467522463 369.381038811161 L 691.0490910992642 369.381038811161 L 697.1112689257552 379.881038811161 Z" fill-opacity="1"/><path fill="none" stroke="rgb(0,0,0)" paint-order="fill stroke markers" d=" M 816.9886044130695 420.1659587522694 L 823.0507822395606 409.6659587522694 L 810.9264265865785 409.6659587522694 L 816.9886044130695 420.1659587522694 Z" stroke-opacity="1" stroke-linecap="square" stroke-miterlimit="10" stroke-width="3.5"/><path fill="rgb(0,0,0)" stroke="none" paint-order="stroke fill markers" fill-rule="evenodd" d=" M 816.9886044130695 420.1659587522694 L 823.0507822395606 409.6659587522694 L 810.9264265865785 409.6659587522694 L 816.9886044130695 420.1659587522694 Z" fill-opacity="1"/><path fill="none" stroke="rgb(0,0,0)" paint-order="fill stroke markers" d=" M 864.7771357952429 403.1888499006414 L 870.8393136217339 392.6888499006414 L 858.7149579687518 392.6888499006414 L 864.7771357952429 403.1888499006414 Z" stroke-opacity="1" stroke-linecap="square" stroke-miterlimit="10" stroke-width="3.5"/><path fill="rgb(0,0,0)" stroke="none" paint-order="stroke fill markers" fill-rule="evenodd" d=" M 864.7771357952429 403.1888499006414 L 870.8393136217339 392.6888499006414 L 858.7149579687518 392.6888499006414 L 864.7771357952429 403.1888499006414 Z" fill-opacity="1"/><path fill="rgb(0,0,255)" stroke="none" paint-order="stroke fill markers" d=" M 784.0747574469094 377.2562904364414 C 784.0747574469094 381.12228368525695 780.940750695725 384.2562904364414 777.0747574469094 384.2562904364414 C 773.2087641980938 384.2562904364414 770.0747574469094 381.12228368525695 770.0747574469094 377.2562904364414 C 770.0747574469094 373.3902971876259 773.2087641980938 370.2562904364414 777.0747574469094 370.2562904364414 C 780.940750695725 370.2562904364414 784.0747574469094 373.3902971876259 784.0747574469094 377.2562904364414 Z" fill-opacity="1"/><path fill="none" stroke="rgb(0,0,0)" paint-order="fill stroke markers" d=" M 784.0747574469094 377.2562904364414 C 784.0747574469094 381.12228368525695 780.940750695725 384.2562904364414 777.0747574469094 384.2562904364414 C 773.2087641980938 384.2562904364414 770.0747574469094 381.12228368525695 770.0747574469094 377.2562904364414 C 770.0747574469094 373.3902971876259 773.2087641980938 370.2562904364414 777.0747574469094 370.2562904364414 C 780.940750695725 370.2562904364414 784.0747574469094 373.3902971876259 784.0747574469094 377.2562904364414 Z" stroke-opacity="1" stroke-linecap="round" stroke-linejoin="round" stroke-miterlimit="10"/><text fill="rgb(0,0,0)" stroke="none" font-family="geogebra-sans-serif, sans-serif" font-size="32px" font-style="normal" font-weight="bold" text-decoration="normal" x="781" y="226" text-anchor="start" dominant-baseline="alphabetic" fill-opacity="1">(f)</text><text fill="rgb(0,0,0)" stroke="none" font-family="geogebra-sans-serif, sans-serif" font-size="32px" font-style="normal" font-weight="bold" text-decoration="normal" x="835" y="498" text-anchor="start" dominant-baseline="alphabetic" fill-opacity="1">(p)</text><text fill="rgb(0,0,0)" stroke="none" font-family="geogebra-sans-serif, sans-serif" font-size="32px" font-style="normal" font-weight="bold" text-decoration="normal" x="243" y="318" text-anchor="start" dominant-baseline="alphabetic" fill-opacity="1">droites du plan (p)</text><text fill="rgb(0,0,255)" stroke="none" font-family="geogebra-sans-serif, sans-serif" font-size="32px" font-style="normal" font-weight="bold" text-decoration="normal" x="763" y="411" text-anchor="start" dominant-baseline="alphabetic" fill-opacity="1">A</text></g></g></svg>