<svg version="1.1" xmlns="http://www.w3.org/2000/svg" xmlns:xlink="http://www.w3.org/1999/xlink" width="1358" height="662"><defs><clipPath id="QtOCUfTZafFK"><path fill="none" stroke="none" d=" M 0 0 L 1358 0 L 1358 662 L 0 662 L 0 0 Z"/></clipPath></defs><g transform="scale(1,1)" clip-path="url(#QtOCUfTZafFK)"><g><rect fill="rgb(255,255,255)" stroke="none" x="0" y="0" width="1358" height="662" fill-opacity="0"/><path fill="none" stroke="rgb(0,0,255)" paint-order="fill stroke markers" d=" M 622.9999999999999 268.00000000000006 L 609.9999999999999 403.9999999999999" stroke-opacity="0.6980392156862745" stroke-linecap="round" stroke-linejoin="round" stroke-miterlimit="10" stroke-width="2.5"/><path fill="none" stroke="rgb(0,0,255)" paint-order="fill stroke markers" d=" M 609.9999999999999 403.9999999999999 L 1015.9999999999998 243.00000000000009" stroke-opacity="0.6980392156862745" stroke-linecap="round" stroke-linejoin="round" stroke-miterlimit="10" stroke-width="2.5"/><path fill="none" stroke="rgb(0,0,255)" paint-order="fill stroke markers" d=" M 1015.9999999999998 243.00000000000009 L 622.9999999999999 268.00000000000006" stroke-opacity="0.6980392156862745" stroke-linecap="round" stroke-linejoin="round" stroke-miterlimit="10" stroke-width="2.5"/><path fill="none" stroke="rgb(0,0,0)" paint-order="fill stroke markers" d=" M 399 144.00000000000017 L 1190.9999999999995 166.0000000000001" stroke-opacity="0.6980392156862745" stroke-linecap="round" stroke-linejoin="round" stroke-miterlimit="10" stroke-width="2.5"/><path fill="none" stroke="rgb(0,0,0)" paint-order="fill stroke markers" d=" M 1190.9999999999995 166.0000000000001 L 902.9999999999998 513.9999999999998" stroke-opacity="0.6980392156862745" stroke-linecap="round" stroke-linejoin="round" stroke-miterlimit="10" stroke-width="2.5"/><path fill="none" stroke="rgb(0,0,0)" paint-order="fill stroke markers" d=" M 902.9999999999998 513.9999999999998 L 106.00000000000011 487.99999999999983" stroke-opacity="0.6980392156862745" stroke-linecap="round" stroke-linejoin="round" stroke-miterlimit="10" stroke-width="2.5"/><path fill="none" stroke="rgb(0,0,0)" paint-order="fill stroke markers" d=" M 106.00000000000011 487.99999999999983 L 399 144.00000000000017" stroke-opacity="0.6980392156862745" stroke-linecap="round" stroke-linejoin="round" stroke-miterlimit="10" stroke-width="2.5"/><path fill="none" stroke="rgb(0,0,0)" paint-order="fill stroke markers" d=" M 421 240.00000000000009 L 567.0139860139861 0" stroke-opacity="0.6980392156862745" stroke-linecap="round" stroke-linejoin="round" stroke-miterlimit="10" stroke-width="2.5"/><path fill="none" stroke="rgb(0,0,0)" paint-order="fill stroke markers" d=" M 421 240.00000000000009 L 154.36318407960187 662" stroke-opacity="0.6980392156862745" stroke-linejoin="round" stroke-miterlimit="10" stroke-width="2.5" stroke-dasharray="10.5,8"/><path fill="rgb(0,0,0)" stroke="none" paint-order="stroke fill markers" d=" M 631.9999999999999 268.00000000000006 C 631.9999999999999 272.9705627484772 627.970562748477 277.00000000000006 622.9999999999999 277.00000000000006 C 618.0294372515227 277.00000000000006 613.9999999999999 272.9705627484772 613.9999999999999 268.00000000000006 C 613.9999999999999 263.0294372515229 618.0294372515227 259.00000000000006 622.9999999999999 259.00000000000006 C 627.970562748477 259.00000000000006 631.9999999999999 263.0294372515229 631.9999999999999 268.00000000000006 Z" fill-opacity="1"/><path fill="rgb(0,0,0)" stroke="none" paint-order="stroke fill markers" d=" M 618.9999999999999 403.9999999999999 C 618.9999999999999 408.97056274847705 614.970562748477 412.9999999999999 609.9999999999999 412.9999999999999 C 605.0294372515227 412.9999999999999 600.9999999999999 408.97056274847705 600.9999999999999 403.9999999999999 C 600.9999999999999 399.0294372515227 605.0294372515227 394.9999999999999 609.9999999999999 394.9999999999999 C 614.970562748477 394.9999999999999 618.9999999999999 399.0294372515227 618.9999999999999 403.9999999999999 Z" fill-opacity="1"/><path fill="rgb(0,0,0)" stroke="none" paint-order="stroke fill markers" d=" M 1024.9999999999998 243.00000000000009 C 1024.9999999999998 247.97056274847722 1020.9705627484769 252.00000000000009 1015.9999999999998 252.00000000000009 C 1011.0294372515226 252.00000000000009 1006.9999999999998 247.97056274847722 1006.9999999999998 243.00000000000009 C 1006.9999999999998 238.02943725152295 1011.0294372515226 234.00000000000009 1015.9999999999998 234.00000000000009 C 1020.9705627484769 234.00000000000009 1024.9999999999998 238.02943725152295 1024.9999999999998 243.00000000000009 Z" fill-opacity="1"/><path fill="rgb(255,85,0)" stroke="none" paint-order="stroke fill markers" d=" M 426 240.00000000000009 C 426 242.76142374915406 423.76142374915395 245.00000000000009 421 245.00000000000009 C 418.23857625084605 245.00000000000009 416 242.76142374915406 416 240.00000000000009 C 416 237.2385762508461 418.23857625084605 235.00000000000009 421 235.00000000000009 C 423.76142374915395 235.00000000000009 426 237.2385762508461 426 240.00000000000009 Z" fill-opacity="1"/><text fill="rgb(0,0,0)" stroke="none" font-family="geogebra-sans-serif, sans-serif" font-size="32px" font-style="normal" font-weight="bold" text-decoration="normal" x="613" y="232" text-anchor="start" dominant-baseline="alphabetic" fill-opacity="1">A</text><text fill="rgb(0,0,0)" stroke="none" font-family="geogebra-sans-serif, sans-serif" font-size="32px" font-style="normal" font-weight="bold" text-decoration="normal" x="1038" y="223" text-anchor="start" dominant-baseline="alphabetic" fill-opacity="1">B</text><text fill="rgb(0,0,0)" stroke="none" font-family="geogebra-sans-serif, sans-serif" font-size="32px" font-style="normal" font-weight="bold" text-decoration="normal" x="620" y="442" text-anchor="start" dominant-baseline="alphabetic" fill-opacity="1">C</text><text fill="rgb(0,0,0)" stroke="none" font-family="geogebra-sans-serif, sans-serif" font-size="32px" font-style="normal" font-weight="bold" text-decoration="normal" x="450" y="250" text-anchor="start" dominant-baseline="alphabetic" fill-opacity="1">V</text><text fill="rgb(0,0,0)" stroke="none" font-family="geogebra-sans-serif, sans-serif" font-size="32px" font-style="normal" font-weight="normal" text-decoration="normal" x="545" y="72" text-anchor="start" dominant-baseline="alphabetic" fill-opacity="1">(D)</text><text fill="rgb(0,0,0)" stroke="none" font-family="geogebra-sans-serif, sans-serif" font-size="32px" font-style="normal" font-weight="bold" text-decoration="normal" x="355" y="472" text-anchor="start" dominant-baseline="alphabetic" fill-opacity="1">plan (IJK)</text></g></g></svg>