<svg version="1.1" xmlns="http://www.w3.org/2000/svg" xmlns:xlink="http://www.w3.org/1999/xlink" width="1358" height="662"><defs><clipPath id="wJTWaVbdAIoe"><path fill="none" stroke="none" d=" M 0 0 L 1358 0 L 1358 662 L 0 662 L 0 0 Z"/></clipPath></defs><g transform="scale(1,1)" clip-path="url(#wJTWaVbdAIoe)"><g><rect fill="rgb(255,255,255)" stroke="none" x="0" y="0" width="1358" height="662" fill-opacity="0"/><path fill="none" stroke="rgb(0,0,0)" paint-order="fill stroke markers" d=" M 679 3 L 679 662" stroke-opacity="1" stroke-miterlimit="10" stroke-width="2"/><path fill="none" stroke="rgb(0,0,0)" paint-order="fill stroke markers" d=" M 679 2 L 674 7" stroke-opacity="1" stroke-miterlimit="10" stroke-width="2"/><path fill="none" stroke="rgb(0,0,0)" paint-order="fill stroke markers" d=" M 679 2 L 684 7" stroke-opacity="1" stroke-miterlimit="10" stroke-width="2"/><path fill="none" stroke="rgb(0,0,0)" paint-order="fill stroke markers" d=" M 0 331 L 1355 331" stroke-opacity="1" stroke-miterlimit="10" stroke-width="2"/><path fill="none" stroke="rgb(0,0,0)" paint-order="fill stroke markers" d=" M 1356 331 L 1351 326" stroke-opacity="1" stroke-miterlimit="10" stroke-width="2"/><path fill="none" stroke="rgb(0,0,0)" paint-order="fill stroke markers" d=" M 1356 331 L 1351 336" stroke-opacity="1" stroke-miterlimit="10" stroke-width="2"/><path fill="none" stroke="rgb(0,0,0)" paint-order="fill stroke markers" d=" M 29 331 L 29 334" stroke-opacity="1" stroke-miterlimit="10" stroke-width="2"/><path fill="none" stroke="rgb(0,0,0)" paint-order="fill stroke markers" d=" M 79 331 L 79 334" stroke-opacity="1" stroke-miterlimit="10" stroke-width="2"/><path fill="none" stroke="rgb(0,0,0)" paint-order="fill stroke markers" d=" M 129 331 L 129 334" stroke-opacity="1" stroke-miterlimit="10" stroke-width="2"/><path fill="none" stroke="rgb(0,0,0)" paint-order="fill stroke markers" d=" M 179 331 L 179 334" stroke-opacity="1" stroke-miterlimit="10" stroke-width="2"/><path fill="none" stroke="rgb(0,0,0)" paint-order="fill stroke markers" d=" M 229 331 L 229 334" stroke-opacity="1" stroke-miterlimit="10" stroke-width="2"/><path fill="none" stroke="rgb(0,0,0)" paint-order="fill stroke markers" d=" M 279 331 L 279 334" stroke-opacity="1" stroke-miterlimit="10" stroke-width="2"/><path fill="none" stroke="rgb(0,0,0)" paint-order="fill stroke markers" d=" M 329 331 L 329 334" stroke-opacity="1" stroke-miterlimit="10" stroke-width="2"/><path fill="none" stroke="rgb(0,0,0)" paint-order="fill stroke markers" d=" M 379 331 L 379 334" stroke-opacity="1" stroke-miterlimit="10" stroke-width="2"/><path fill="none" stroke="rgb(0,0,0)" paint-order="fill stroke markers" d=" M 429 331 L 429 334" stroke-opacity="1" stroke-miterlimit="10" stroke-width="2"/><path fill="none" stroke="rgb(0,0,0)" paint-order="fill stroke markers" d=" M 479 331 L 479 334" stroke-opacity="1" stroke-miterlimit="10" stroke-width="2"/><path fill="none" stroke="rgb(0,0,0)" paint-order="fill stroke markers" d=" M 529 331 L 529 334" stroke-opacity="1" stroke-miterlimit="10" stroke-width="2"/><path fill="none" stroke="rgb(0,0,0)" paint-order="fill stroke markers" d=" M 579 331 L 579 334" stroke-opacity="1" stroke-miterlimit="10" stroke-width="2"/><path fill="none" stroke="rgb(0,0,0)" paint-order="fill stroke markers" d=" M 629 331 L 629 334" stroke-opacity="1" stroke-miterlimit="10" stroke-width="2"/><path fill="none" stroke="rgb(0,0,0)" paint-order="fill stroke markers" d=" M 729 331 L 729 334" stroke-opacity="1" stroke-miterlimit="10" stroke-width="2"/><path fill="none" stroke="rgb(0,0,0)" paint-order="fill stroke markers" d=" M 779 331 L 779 334" stroke-opacity="1" stroke-miterlimit="10" stroke-width="2"/><path fill="none" stroke="rgb(0,0,0)" paint-order="fill stroke markers" d=" M 829 331 L 829 334" stroke-opacity="1" stroke-miterlimit="10" stroke-width="2"/><path fill="none" stroke="rgb(0,0,0)" paint-order="fill stroke markers" d=" M 879 331 L 879 334" stroke-opacity="1" stroke-miterlimit="10" stroke-width="2"/><path fill="none" stroke="rgb(0,0,0)" paint-order="fill stroke markers" d=" M 929 331 L 929 334" stroke-opacity="1" stroke-miterlimit="10" stroke-width="2"/><path fill="none" stroke="rgb(0,0,0)" paint-order="fill stroke markers" d=" M 979 331 L 979 334" stroke-opacity="1" stroke-miterlimit="10" stroke-width="2"/><path fill="none" stroke="rgb(0,0,0)" paint-order="fill stroke markers" d=" M 1029 331 L 1029 334" stroke-opacity="1" stroke-miterlimit="10" stroke-width="2"/><path fill="none" stroke="rgb(0,0,0)" paint-order="fill stroke markers" d=" M 1079 331 L 1079 334" stroke-opacity="1" stroke-miterlimit="10" stroke-width="2"/><path fill="none" stroke="rgb(0,0,0)" paint-order="fill stroke markers" d=" M 1129 331 L 1129 334" stroke-opacity="1" stroke-miterlimit="10" stroke-width="2"/><path fill="none" stroke="rgb(0,0,0)" paint-order="fill stroke markers" d=" M 1179 331 L 1179 334" stroke-opacity="1" stroke-miterlimit="10" stroke-width="2"/><path fill="none" stroke="rgb(0,0,0)" paint-order="fill stroke markers" d=" M 1229 331 L 1229 334" stroke-opacity="1" stroke-miterlimit="10" stroke-width="2"/><path fill="none" stroke="rgb(0,0,0)" paint-order="fill stroke markers" d=" M 1279 331 L 1279 334" stroke-opacity="1" stroke-miterlimit="10" stroke-width="2"/><path fill="none" stroke="rgb(0,0,0)" paint-order="fill stroke markers" d=" M 1329 331 L 1329 334" stroke-opacity="1" stroke-miterlimit="10" stroke-width="2"/><path fill="none" stroke="rgb(0,0,0)" paint-order="fill stroke markers" d=" M 676 631 L 679 631" stroke-opacity="1" stroke-miterlimit="10" stroke-width="2"/><path fill="none" stroke="rgb(0,0,0)" paint-order="fill stroke markers" d=" M 676 581 L 679 581" stroke-opacity="1" stroke-miterlimit="10" stroke-width="2"/><path fill="none" stroke="rgb(0,0,0)" paint-order="fill stroke markers" d=" M 676 531 L 679 531" stroke-opacity="1" stroke-miterlimit="10" stroke-width="2"/><path fill="none" stroke="rgb(0,0,0)" paint-order="fill stroke markers" d=" M 676 481 L 679 481" stroke-opacity="1" stroke-miterlimit="10" stroke-width="2"/><path fill="none" stroke="rgb(0,0,0)" paint-order="fill stroke markers" d=" M 676 431 L 679 431" stroke-opacity="1" stroke-miterlimit="10" stroke-width="2"/><path fill="none" stroke="rgb(0,0,0)" paint-order="fill stroke markers" d=" M 676 381 L 679 381" stroke-opacity="1" stroke-miterlimit="10" stroke-width="2"/><path fill="none" stroke="rgb(0,0,0)" paint-order="fill stroke markers" d=" M 676 281 L 679 281" stroke-opacity="1" stroke-miterlimit="10" stroke-width="2"/><path fill="none" stroke="rgb(0,0,0)" paint-order="fill stroke markers" d=" M 676 231 L 679 231" stroke-opacity="1" stroke-miterlimit="10" stroke-width="2"/><path fill="none" stroke="rgb(0,0,0)" paint-order="fill stroke markers" d=" M 676 181 L 679 181" stroke-opacity="1" stroke-miterlimit="10" stroke-width="2"/><path fill="none" stroke="rgb(0,0,0)" paint-order="fill stroke markers" d=" M 676 131 L 679 131" stroke-opacity="1" stroke-miterlimit="10" stroke-width="2"/><path fill="none" stroke="rgb(0,0,0)" paint-order="fill stroke markers" d=" M 676 81 L 679 81" stroke-opacity="1" stroke-miterlimit="10" stroke-width="2"/><path fill="none" stroke="rgb(0,0,0)" paint-order="fill stroke markers" d=" M 676 31 L 679 31" stroke-opacity="1" stroke-miterlimit="10" stroke-width="2"/><path fill="none" stroke="rgb(255,85,0)" paint-order="fill stroke markers" d=" M -5 115.83999999999999 L 1363 608.3199999999999" stroke-opacity="0.6980392156862745" stroke-linecap="round" stroke-linejoin="round" stroke-miterlimit="10" stroke-width="2.5"/><path fill="none" stroke="rgb(244,0,153)" paint-order="fill stroke markers" d=" M -5 296.3599999999999 L 1024.5555555555559 667" stroke-opacity="0.6980392156862745" stroke-linecap="round" stroke-linejoin="round" stroke-miterlimit="10" stroke-width="2.5"/><path fill="none" stroke="rgb(0,0,255)" paint-order="fill stroke markers" d=" M 176.99999999999986 -5 L 1363 431.94736842105266" stroke-opacity="0.6980392156862745" stroke-linecap="round" stroke-linejoin="round" stroke-miterlimit="10" stroke-width="2.5"/></g></g></svg>